<?xml version="1.0" encoding="UTF-8" standalone="no"?>
<svg
   xmlns:dc="http://purl.org/dc/elements/1.1/"
   xmlns:cc="http://creativecommons.org/ns#"
   xmlns:rdf="http://www.w3.org/1999/02/22-rdf-syntax-ns#"
   xmlns:svg="http://www.w3.org/2000/svg"
   xmlns="http://www.w3.org/2000/svg"
   xmlns:sodipodi="http://sodipodi.sourceforge.net/DTD/sodipodi-0.dtd"
   xmlns:inkscape="http://www.inkscape.org/namespaces/inkscape"
   version="1.1"
   id="Layer_1"
   x="0px"
   y="0px"
   viewBox="0 0 490.39642 115"
   xml:space="preserve"
   sodipodi:docname="bahandian-logo-inline.svg"
   width="490.39642"
   height="115"
   inkscape:version="1.0.1 (3bc2e813f5, 2020-09-07)"><metadata
   id="metadata2943"><rdf:RDF><cc:Work
       rdf:about=""><dc:format>image/svg+xml</dc:format><dc:type
         rdf:resource="http://purl.org/dc/dcmitype/StillImage" /><dc:title></dc:title></cc:Work></rdf:RDF></metadata><defs
   id="defs2941" /><sodipodi:namedview
   pagecolor="#ffffff"
   bordercolor="#666666"
   borderopacity="1"
   objecttolerance="10"
   gridtolerance="10"
   guidetolerance="10"
   inkscape:pageopacity="0"
   inkscape:pageshadow="2"
   inkscape:window-width="1920"
   inkscape:window-height="1002"
   id="namedview2939"
   showgrid="false"
   fit-margin-top="0"
   fit-margin-left="0"
   fit-margin-right="0"
   fit-margin-bottom="0"
   inkscape:zoom="0.35703125"
   inkscape:cx="52.266778"
   inkscape:cy="418.14173"
   inkscape:window-x="-8"
   inkscape:window-y="-8"
   inkscape:window-maximized="1"
   inkscape:current-layer="Layer_1" />
<style
   type="text/css"
   id="style2674">
	.st0{display:none;}
	.st1{display:inline;fill:#CCCCCC;}
	.st2{display:inline;}
	.st3{fill:#FFFFFF;}
	.st4{fill:#08315C;}
	.st5{fill:#F2C93D;}
	.st6{fill:#1569AB;}
</style>
<g
   class="st0"
   id="g2830"
   transform="translate(-693.80182,-482.2)">
	<rect
   x="1277.9"
   y="2.5"
   class="st1"
   width="642"
   height="1080"
   id="rect2676" />
	<g
   class="st2"
   id="g2752">
		<path
   d="M 953.2,363.6 V 363 c -0.3,-7.5 -0.6,-15.5 -0.7,-24.4 -0.6,-43.3 -35.1,-79.1 -78.4,-81.5 -90.3,-5 -160.2,-34.5 -219.8,-92.6 l -0.5,-0.5 c -19.5,-17.9 -48.8,-17.9 -68.3,0 l -0.5,0.5 C 525.3,222.6 455.4,252 365.1,257 c -43.3,2.4 -77.7,38.2 -78.4,81.5 -0.1,8.8 -0.4,16.8 -0.7,24.4 v 1.4 c -1.8,92.1 -3.9,206.7 34.4,310.7 21.1,57.2 53,106.9 94.9,147.8 47.7,46.6 110.1,83.5 185.7,109.9 2.5,0.9 5,1.5 7.6,2.1 3.7,0.7 7.4,1.1 11,1.1 3.6,0 7.4,-0.4 11,-1.1 2.6,-0.5 5.2,-1.2 7.6,-2.1 75.4,-26.4 137.8,-63.3 185.5,-109.9 41.9,-40.9 73.8,-90.6 94.9,-147.8 38.5,-104.4 36.3,-219.2 34.6,-311.4 z"
   id="path2678" />
		<g
   id="g2688">
			<polygon
   class="st3"
   points="642.5,273.1 969.4,490.5 949.3,511 962.9,491.1 641.4,283.7 283.7,447.8 311.2,468.6 267.4,446.6 "
   id="polygon2680" />
			<polygon
   class="st3"
   points="666.7,476.2 1025.3,597.8 948.4,537 632.2,390.8 298.7,502.5 183.3,584.4 "
   id="polygon2682" />
			<polygon
   class="st3"
   points="940.3,507 940.1,517.5 632,377.1 311,488.5 311.2,463.2 633.1,334.4 "
   id="polygon2684" />
			<polygon
   class="st3"
   points="974.3,657.3 645.6,697.1 283.5,649.2 283.5,576.8 642.1,517.3 969.4,597.8 "
   id="polygon2686" />
		</g>
		<g
   id="g2750">
			<path
   class="st3"
   d="m 226.1,715.9 c 0.4,-9.5 8.1,-17 17.6,-17.1 52.1,-0.4 217,-5 389.8,-44.7 170.4,-39.1 330.5,-45.1 384,-46 10.2,-0.2 18.5,8.3 18,18.5 l -5.5,126.6 c -0.4,10 -9.1,17.7 -19.1,16.9 -53.1,-4 -216.7,-9.7 -423.7,46.8 -169.5,46.3 -304.5,37.7 -349.9,32.7 -9.3,-1 -16.2,-9 -15.8,-18.3 z"
   id="path2690" />
			<path
   class="st3"
   d="m 232.1,728.5 c 0.4,-9.5 8.1,-17 17.6,-17.1 52.1,-0.4 217,-5 389.8,-44.7 170.4,-39.1 330.5,-45.1 384,-46 10.2,-0.2 18.5,8.3 18,18.5 l -5.5,126.6 c -0.4,10 -9.1,17.7 -19.1,16.9 -53.1,-4 -216.7,-9.7 -423.7,46.8 -169.5,46.3 -304.5,37.7 -349.9,32.7 -9.3,-1 -16.2,-9 -15.8,-18.3 z"
   id="path2692" />
			<path
   d="m 986.9,605 -0.1,3.8 7,0.2 0.1,-3.8 c 3.8,-1.3 6.6,-4.9 6.7,-9.2 0.2,-5.5 -4.2,-10.1 -9.7,-10.2 -5.5,-0.2 -10.1,4.2 -10.2,9.7 -0.1,4.2 2.5,7.9 6.2,9.5 z"
   id="path2694" />
			<path
   d="m 1045.9,691.8 -6.6,74.8 c -0.9,9.8 -9.4,17.2 -19.2,16.8 -13.7,-0.5 -33.2,-1.1 -50.7,-0.8 -14.9,0.3 -17.1,8.6 -15.3,17.2 2.3,11.3 11.8,19.8 23.3,21.3 27.6,3.5 87.7,4.6 132.4,-40.5 36.6,-36.9 63.4,-42 78.8,-40.4 5.2,0.6 8.6,-5.3 5.4,-9.5 -5.7,-7.4 -13.7,-15.9 -23.2,-21.3 -7.7,-4.3 -9.6,-14.5 -3.9,-21.2 l 23.1,-27.4 c 3.7,-4.4 1.2,-11.2 -4.4,-12.2 -27.3,-4.7 -93.1,-10.6 -133.1,31.1 -3.6,3.3 -6.2,7.6 -6.6,12.1 z"
   id="path2696" />
			<path
   class="st3"
   d="m 980.2,778.3 0.2,-6.1 11.4,0.3 -0.2,6.1 c 6.1,2.5 10.3,8.5 10.2,15.5 -0.2,9 -7.7,16 -16.7,15.8 -9,-0.2 -16,-7.7 -15.8,-16.7 0.1,-7 4.7,-12.8 10.9,-14.9 z"
   id="path2698" />
			<path
   d="m 982.2,785.2 0.1,-3.8 7,0.2 -0.1,3.8 c 3.8,1.5 6.3,5.2 6.2,9.5 -0.2,5.5 -4.7,9.8 -10.2,9.7 -5.5,-0.2 -9.8,-4.7 -9.7,-10.2 0.1,-4.3 2.9,-7.9 6.7,-9.2 z"
   id="path2700" />
			<path
   d="m 211.2,772.7 0.8,75.1 c 0.2,9.8 8,17.8 17.9,18.2 13.7,0.5 33.2,1.5 50.7,3.1 16.2,1.5 16.6,11.5 13.2,20.6 -3.6,9.8 -12.8,16.5 -23.3,17.1 -27.4,1.5 -88.2,-1.6 -129.7,-50.5 -35.3,-41.6 -62.6,-47.4 -77.6,-46.2 -4.4,0.3 -7,-4.8 -4.1,-8.1 6.5,-7.5 16.2,-16.9 27.4,-21.8 7.5,-3.3 10,-12.8 5.2,-19.5 L 69.1,729.3 c -2.9,-4 -0.4,-9.7 4.6,-10.2 26.4,-2.7 94.6,-4.6 132.2,41 3,3.6 5.2,8 5.3,12.6 z"
   id="path2702" />
			<path
   class="st3"
   d="m 260.1,859.9 0.3,-6.1 11.4,0.5 -0.3,6.1 c 6,2.6 10.2,8.7 9.9,15.7 -0.4,9 -8,15.9 -17,15.5 -9,-0.4 -15.9,-8 -15.5,-17 0.3,-7 5,-12.7 11.2,-14.7 z"
   id="path2704" />
			<path
   d="m 228.1,721.8 c 0.4,-9.5 8.1,-17 17.6,-17.1 52.1,-0.4 217,-5 389.8,-44.7 170.4,-39.1 330.5,-45.1 384,-46 10.2,-0.2 18.5,8.3 18,18.5 l -5.5,126.6 c -0.4,10 -9.1,17.7 -19.1,16.9 -53.1,-4 -216.7,-9.7 -423.7,46.8 -169.5,46.3 -304.5,37.7 -349.9,32.7 -9.3,-1 -16.2,-9 -15.8,-18.3 z"
   id="path2706" />
			<g
   id="g2744">
				<g
   id="g2742">
					<path
   class="st3"
   d="m 249.5,771.3 c 0.5,-10.5 0.6,-12.4 0.6,-14.6 0,-2.3 -0.6,-3.4 -3,-3.9 -0.6,-0.2 -1.9,-0.3 -2.5,-0.3 -0.3,0 -0.6,-0.2 -0.6,-0.4 0,-0.4 0.4,-0.5 1.2,-0.5 3.4,0.1 7.9,0.4 8.5,0.4 0.6,0 5.1,-0.1 7.4,-0.1 0.8,0 1.2,0.2 1.2,0.6 0,0.3 -0.3,0.4 -0.6,0.4 -0.5,0 -1,0.1 -1.9,0.2 -2,0.3 -2.7,1.5 -2.9,3.8 -0.3,2.2 -0.3,4.1 -0.9,14.6 -0.2,3.8 -0.3,5.7 -0.4,9.5 -0.5,9.8 1.7,14 4.8,16.9 3.5,3.2 6.8,3.9 11,3.9 4.5,0.1 9.1,-1.9 11.9,-4.8 3.6,-3.8 4.8,-9.7 5.1,-16.8 0.2,-3.4 0.2,-5.1 0.4,-8.5 0.5,-10.7 0.6,-12.6 0.5,-14.8 0,-2.3 -0.6,-3.4 -3,-3.8 -0.6,-0.1 -1.9,-0.2 -2.5,-0.2 -0.3,0 -0.6,-0.1 -0.6,-0.4 0,-0.4 0.4,-0.5 1.2,-0.6 3.4,0 7.4,0.1 7.9,0.1 0.5,0 4,-0.3 6.3,-0.4 0.8,0 1.2,0.1 1.2,0.5 0,0.3 -0.3,0.4 -0.6,0.4 -0.5,0 -1,0.1 -1.9,0.3 -2,0.5 -2.7,1.6 -2.9,4 -0.3,2.2 -0.3,4.1 -0.9,14.8 -0.1,2.9 -0.2,4.4 -0.4,7.3 -0.4,7.4 -1.6,15.6 -7.8,20.5 -5.6,4.4 -11.2,5 -15.6,4.9 -2.5,0 -10,-0.5 -15.1,-5.2 -3.5,-3.3 -6.1,-8.1 -5.6,-18 0.2,-3.9 0.3,-5.9 0.5,-9.8 z"
   id="path2708" />
					<path
   class="st3"
   d="m 313.2,795.1 c -0.1,4.8 0.5,6.3 2.2,6.6 1.2,0.2 2.7,0.3 3.3,0.2 0.3,0 0.5,0.2 0.5,0.5 0,0.3 -0.5,0.5 -1.2,0.5 -3.7,0.1 -6.3,0 -6.9,0 -0.6,0 -3.4,0.3 -6.3,0.3 -0.7,0 -1,0 -1,-0.5 0,-0.3 0.3,-0.5 0.5,-0.5 0.5,0 1.7,-0.1 2.7,-0.4 1.6,-0.5 2,-2 2.2,-7.3 0.5,-11.2 1,-22.3 1.6,-33.5 0.1,-2.3 0.5,-3 1,-3 0.7,0 1.8,1.1 2.4,1.7 1,0.9 10.1,9.9 19.7,19.1 6.2,5.9 12.8,12.5 14.8,14.3 0.2,-9.9 0.5,-19.7 0.7,-29.6 0.1,-3.8 -0.2,-5.1 -2.2,-5.3 -1.2,-0.1 -2.7,-0.1 -3.2,-0.1 -0.5,0 -0.5,-0.3 -0.5,-0.5 0,-0.3 0.5,-0.5 1.3,-0.5 3,-0.2 6.1,-0.3 6.8,-0.3 0.7,0 2.9,-0.3 5.6,-0.5 0.7,0 1.2,0 1.2,0.3 0,0.2 -0.3,0.6 -0.8,0.6 -0.3,0 -0.8,0.1 -1.6,0.3 -2.2,0.6 -2.4,1.8 -2.5,5.3 -0.6,11.6 -1.2,23.1 -1.8,34.7 -0.2,3.9 -0.3,4.3 -0.7,4.3 -0.7,0 -1.3,-0.4 -4.8,-3.3 -0.6,-0.5 -9.7,-8.7 -16.3,-15.1 -7.2,-7 -14.3,-13.9 -16.2,-15.9 -0.2,11 -0.3,16.5 -0.5,27.6 z"
   id="path2710" />
					<path
   class="st3"
   d="m 377.3,782.3 c -0.3,5.8 -0.5,10.5 -0.3,12.9 0.1,1.7 0.3,2.8 2.2,3 1,0.1 2.4,0.1 3,0 0.4,0 0.5,0.2 0.5,0.5 0,0.3 -0.3,0.5 -1.1,0.6 -3.6,0.3 -7.9,0.4 -8.2,0.4 -0.4,0 -4.5,0.5 -6.5,0.7 -0.7,0 -1,-0.1 -1,-0.4 0,-0.2 0.2,-0.5 0.5,-0.5 0.6,0 1.4,-0.3 2,-0.4 1.3,-0.4 1.6,-1.5 1.9,-3.3 0.4,-2.5 0.7,-7.2 1,-12.9 0.2,-4.2 0.3,-6.3 0.5,-10.5 0.4,-9.2 0.5,-10.9 0.4,-12.8 -0.1,-2 -0.5,-2.9 -1.9,-3 -0.7,-0.1 -1.5,-0.1 -2,0 -0.3,0 -0.5,-0.2 -0.5,-0.5 0,-0.3 0.3,-0.5 1.1,-0.6 2.2,-0.2 6.2,-0.4 6.6,-0.4 0.3,0 4.5,-0.5 6.5,-0.7 0.7,-0.1 1,0 1,0.4 0,0.2 -0.3,0.5 -0.5,0.5 -0.5,0 -0.9,0.1 -1.6,0.3 -1.8,0.5 -2.3,1.4 -2.5,3.5 -0.2,1.9 -0.2,3.6 -0.7,12.8 -0.1,4.1 -0.2,6.2 -0.4,10.4 z"
   id="path2712" />
					<path
   class="st3"
   d="m 414.2,788.3 c 5.5,-11.3 10.7,-22.9 15.3,-34.6 0.3,-1 0.7,-1.8 0.7,-2.3 0,-0.5 -0.2,-1 -0.8,-1.2 -0.7,-0.1 -1.5,0 -2.2,0.1 -0.4,0 -0.7,-0.1 -0.7,-0.4 0,-0.4 0.5,-0.5 1.5,-0.7 2.6,-0.3 5.6,-0.5 6.4,-0.7 0.4,0 3.2,-0.5 5.1,-0.8 0.7,-0.1 1,0 1,0.3 0,0.3 -0.3,0.6 -0.8,0.7 -0.5,0.1 -2,0.3 -3.2,1.1 -0.9,0.7 -2,1.7 -3.9,6 -0.8,1.8 -4.4,9.5 -8,17.2 -4.4,9.3 -7.6,16.1 -9.2,19.2 -2,3.8 -2.4,4.8 -3,4.8 -0.7,0.1 -1.1,-0.7 -2.3,-3.4 -4.8,-11.7 -9.6,-23.4 -14.4,-35.2 -1.3,-3.2 -2.2,-3.8 -4.3,-4 -1,-0.1 -2.1,0 -2.5,0 -0.4,0 -0.5,-0.3 -0.5,-0.5 0,-0.3 0.7,-0.5 1.7,-0.6 3.1,-0.3 6.8,-0.6 7.6,-0.6 0.7,-0.1 3.6,-0.5 6.1,-0.8 1.2,-0.1 1.8,0 1.8,0.2 0,0.3 -0.3,0.6 -0.7,0.6 -0.7,0.1 -1.8,0.3 -2.4,0.5 -0.7,0.3 -0.8,0.7 -0.8,1.1 0,0.8 0.7,2.5 1.5,4.8 3.7,9.9 7.3,19.6 11,29.2 z"
   id="path2714" />
					<path
   class="st3"
   d="m 449.3,763.9 c 0.4,-9.4 0.5,-11.2 0.4,-13.1 -0.1,-2 -0.4,-3 -2.5,-3 -0.5,0 -1.6,0.1 -2.2,0.2 -0.2,0 -0.5,-0.2 -0.5,-0.4 0,-0.4 0.3,-0.5 1.1,-0.6 3,-0.4 7.2,-0.8 7.6,-0.9 0.5,-0.1 14.1,-1.9 15.6,-2.2 1.3,-0.3 2.5,-0.6 3,-0.8 0.3,-0.1 0.6,-0.4 0.9,-0.4 0.2,0 0.3,0.2 0.3,0.5 0,0.4 -0.4,1.3 -0.6,3 -0.1,0.6 -0.4,3.3 -0.5,4.1 -0.1,0.3 -0.3,0.7 -0.6,0.7 -0.4,0 -0.5,-0.2 -0.5,-0.7 0,-0.4 0,-1.4 -0.3,-2.1 -0.4,-0.9 -1,-1.3 -4.6,-1.2 -1.1,0 -8.7,1 -9.4,1.1 -0.3,0 -0.4,0.3 -0.4,0.7 -0.3,6.6 -0.5,9.9 -0.8,16.5 0,0.4 0,0.6 0.3,0.6 0.8,-0.1 9.5,-1.3 10.9,-1.6 1.6,-0.4 2.5,-0.6 3.2,-1.3 0.5,-0.5 0.8,-0.9 1,-0.9 0.2,0 0.4,0.1 0.4,0.5 0,0.4 -0.4,1.5 -0.7,3.5 -0.2,1.2 -0.5,3.6 -0.5,4 0,0.5 -0.2,1.2 -0.6,1.2 -0.3,0 -0.4,-0.2 -0.4,-0.5 0,-0.6 0,-1.3 -0.2,-2 -0.2,-0.8 -0.8,-1.5 -3.3,-1.4 -1.8,0 -8.8,0.9 -9.9,1 -0.4,0 -0.5,0.3 -0.5,0.5 -0.1,2 -0.1,3 -0.2,5.1 -0.1,2.1 -0.5,9.2 -0.5,10.4 0,4 1.1,4.7 7.6,3.9 1.7,-0.2 4.9,-0.6 6.6,-1.5 1.7,-0.9 2.7,-2.2 3.2,-4.6 0.2,-0.7 0.3,-1 0.7,-1 0.4,0 0.4,0.4 0.4,0.9 0,0.4 -0.7,4.7 -1.2,6 -0.5,1.6 -1.2,1.7 -3.7,2.1 -4.9,0.7 -8.7,1 -11.4,1.3 -2.7,0.2 -4.5,0.4 -5.4,0.5 -0.1,0 -1.4,0.2 -2.8,0.4 -1.3,0.2 -2.8,0.5 -3.8,0.6 -0.7,0.1 -1,0 -1,-0.4 0,-0.2 0.2,-0.5 0.5,-0.6 0.6,-0.1 1.4,-0.4 2,-0.5 1.3,-0.3 1.5,-1.6 1.9,-3.4 0.5,-2.5 0.7,-7.3 1,-13.2 0.1,-4.6 0.2,-6.7 0.4,-11 z"
   id="path2716" />
					<path
   class="st3"
   d="m 490.3,758.2 c 0.4,-9.5 0.5,-11.3 0.4,-13.2 -0.1,-2.1 -0.4,-3 -2.5,-3 -0.5,0 -1.6,0.1 -2.2,0.2 -0.2,0 -0.5,-0.2 -0.5,-0.4 0,-0.4 0.3,-0.5 1.1,-0.7 3,-0.5 7.4,-1 7.7,-1 0.7,-0.1 6.2,-1.1 8.2,-1.4 4.2,-0.7 8.8,-1 12.1,0.7 1.6,0.9 4.3,3.4 4.2,7.7 -0.2,4.6 -2.3,9.3 -8.7,15.4 5.1,5.7 9.4,10.7 13,13.9 3.3,3 5.5,3.2 7.1,3.2 1.2,0 1.9,-0.1 2.3,-0.1 0.4,-0.1 0.6,0.2 0.6,0.4 0,0.4 -0.4,0.6 -1.6,0.8 -1.6,0.3 -2.5,0.4 -4.1,0.6 -3.7,0.6 -5.3,0.5 -6.9,-0.2 -2.8,-1 -5,-3.7 -8.5,-7.7 -2.6,-2.9 -5.3,-6.5 -6.7,-7.9 -0.3,-0.2 -0.4,-0.3 -0.9,-0.2 -3.3,0.5 -5,0.7 -8.3,1.1 -0.3,0 -0.5,0.2 -0.5,0.6 0,0.6 0,0.9 -0.1,1.5 -0.3,5.9 -0.5,10.7 -0.3,13.2 0.1,1.8 0.5,2.9 2.5,2.9 0.9,0 2.3,0 2.9,-0.1 0.5,-0.1 0.5,0.2 0.5,0.4 0,0.3 -0.3,0.5 -1.1,0.7 -3.6,0.5 -7.7,0.9 -8,0.9 -0.1,0 -4.5,0.8 -6.5,1.1 -0.7,0.1 -1,0 -1,-0.4 0,-0.2 0.2,-0.5 0.5,-0.6 0.6,-0.1 1.4,-0.3 2,-0.6 1.3,-0.5 1.5,-1.7 1.9,-3.5 0.5,-2.6 0.7,-7.4 1,-13.3 0.1,-4.5 0.2,-6.7 0.4,-11 z m 5.5,4.3 c 0,0.4 0.1,0.6 0.4,0.7 0.9,0.4 4.3,0.3 7.2,-0.2 1.6,-0.2 3.4,-0.6 5,-1.8 2.3,-1.8 4.1,-5.3 4.4,-10.1 0.3,-7.7 -3.8,-11.5 -10.8,-10.3 -1.9,0.3 -4.1,0.8 -4.7,1.1 -0.3,0.1 -0.5,0.4 -0.5,0.8 -0.5,8 -0.7,11.9 -1,19.8 z"
   id="path2718" />
					<path
   class="st3"
   d="m 532.9,779.4 c -0.9,-0.3 -0.9,-0.5 -0.9,-2.2 0.1,-3.1 0.6,-5.6 0.7,-6.6 0,-0.6 0.2,-1 0.6,-1.1 0.4,-0.1 0.6,0.1 0.6,0.6 0,0.5 -0.1,1.4 0.1,2.2 0.8,4.4 5.7,5.2 10.1,4.5 6.5,-1 10,-5.2 10.2,-9.9 0.2,-4.5 -2.2,-6.2 -7.8,-9.5 -1.2,-0.7 -1.7,-1 -2.9,-1.7 -6.8,-4 -9,-7.5 -8.8,-11.8 0.3,-7.3 6.4,-12.7 15,-14.2 2.6,-0.5 5.2,-0.5 6.7,-0.4 1.3,0.1 1.8,0 2.3,-0.1 0.5,-0.1 0.7,0 0.7,0.3 0,0.3 -0.4,2.4 -0.6,6.7 0,1 -0.1,1.4 -0.6,1.5 -0.5,0.1 -0.5,-0.2 -0.6,-0.7 -0.1,-0.7 -0.5,-2.3 -0.8,-2.9 -0.4,-0.7 -2.5,-2.6 -8.3,-1.6 -4.8,0.8 -8.8,3.8 -9,8.2 -0.2,4 1.7,5.9 8,9.1 0.7,0.4 1.1,0.6 1.8,0.9 7.7,4 10.3,7.9 10,13.3 -0.2,3.7 -1.8,7.9 -6.6,11.7 -2.8,2.2 -6.9,3.3 -10.5,3.9 -3,0.5 -6.8,0.7 -9.4,-0.2 z"
   id="path2720" />
					<path
   class="st3"
   d="m 582.6,754.2 c -0.3,6.1 -0.5,11 -0.3,13.6 0.1,1.8 0.3,3 2.2,2.9 1,0 2.4,-0.1 3,-0.2 0.4,-0.1 0.5,0.2 0.5,0.4 0,0.3 -0.3,0.6 -1.1,0.7 -3.6,0.6 -7.9,1.1 -8.2,1.1 -0.4,0.1 -4.5,1 -6.5,1.3 -0.7,0.1 -1,0 -1,-0.3 0,-0.2 0.2,-0.5 0.5,-0.6 0.6,-0.1 1.4,-0.4 2,-0.6 1.3,-0.5 1.6,-1.7 1.9,-3.6 0.4,-2.6 0.7,-7.6 1,-13.7 0.2,-4.4 0.3,-6.7 0.5,-11.1 0.4,-9.8 0.5,-11.5 0.4,-13.5 -0.1,-2.1 -0.5,-3 -1.9,-3 -0.7,0 -1.5,0 -2,0.1 -0.3,0 -0.5,-0.2 -0.5,-0.4 0,-0.4 0.3,-0.6 1.1,-0.7 2.2,-0.4 6.2,-1 6.6,-1 0.3,0 4.5,-1 6.5,-1.3 0.7,-0.1 1,0 1,0.3 0,0.2 -0.3,0.6 -0.5,0.6 -0.5,0.1 -0.9,0.2 -1.6,0.4 -1.8,0.7 -2.3,1.7 -2.5,3.9 -0.2,2 -0.2,3.8 -0.7,13.6 -0.1,4.4 -0.2,6.6 -0.4,11.1 z"
   id="path2722" />
					<path
   class="st3"
   d="m 619.9,747.8 c -0.3,6.1 -0.5,11.1 -0.3,13.7 0.1,1.8 0.4,3 2.4,2.9 0.9,0 2.4,-0.1 3,-0.2 0.5,-0.1 0.5,0.2 0.5,0.4 0,0.3 -0.3,0.6 -1.1,0.7 -3.6,0.6 -7.7,1.1 -8.1,1.1 -0.3,0 -4.8,1 -6.8,1.4 -0.7,0.1 -1,0 -1,-0.3 0,-0.2 0.2,-0.5 0.5,-0.5 0.6,-0.1 1.3,-0.4 2,-0.6 1.3,-0.5 1.8,-1.9 2.1,-3.8 0.4,-2.7 0.6,-7.7 0.9,-13.8 0.5,-10.6 0.7,-16 1.2,-26.6 -3.8,0.7 -5.7,1.1 -9.5,1.8 -4.1,0.8 -5.7,1.5 -6.7,3.2 -0.8,1.2 -0.9,1.7 -1.1,2.2 -0.2,0.5 -0.4,0.7 -0.7,0.7 -0.2,0 -0.4,-0.1 -0.4,-0.4 0,-0.7 1.6,-6.5 1.7,-7.1 0.1,-0.4 0.5,-1.3 0.7,-1.3 0.5,-0.1 1.1,0.3 2.9,0.2 1.8,-0.1 4.4,-0.5 5.1,-0.6 9.9,-1.8 14.8,-2.7 24.7,-4.4 2.2,-0.4 3.7,-0.8 4.7,-1.1 1,-0.3 1.6,-0.6 1.9,-0.6 0.3,0 0.3,0.3 0.3,0.7 -0.1,2 -0.5,6.6 -0.5,7.3 0,0.5 -0.3,0.9 -0.6,0.9 -0.3,0 -0.4,-0.2 -0.5,-1 0,-0.3 0,-0.4 0,-0.7 -0.1,-1.9 -1.5,-3.1 -7.7,-2.1 -3.3,0.5 -4.9,0.8 -8.2,1.3 -0.8,10.6 -1,15.9 -1.4,26.6 z"
   id="path2724" />
					<path
   class="st3"
   d="m 659.8,742.9 c 0.2,-3.5 -0.2,-4.7 -1.1,-6.3 -0.5,-0.9 -8.7,-13.6 -10.8,-16.6 -1.5,-2.1 -3,-3.3 -4.1,-3.9 -0.9,-0.4 -2.2,-0.5 -2.7,-0.4 -0.4,0.1 -0.7,-0.2 -0.6,-0.5 0,-0.3 0.2,-0.5 0.8,-0.6 1.3,-0.2 6.2,-1 6.5,-1 0.5,-0.1 3.1,-0.7 5.7,-1.2 0.7,-0.1 0.9,0 0.9,0.3 0,0.2 -0.5,0.5 -1.1,0.9 -0.5,0.3 -0.8,0.7 -0.9,1.2 0,0.9 0.4,1.6 0.8,2.3 4.4,7.1 6.6,10.7 11,17.9 1.5,-2.9 10.2,-18.1 11.5,-20.4 0.9,-1.6 1.2,-2.7 1.3,-3.5 0,-0.9 -0.3,-1.4 -1,-1.5 -0.6,-0.1 -1,-0.3 -0.9,-0.6 0,-0.2 0.4,-0.4 1.1,-0.6 1.7,-0.3 4,-0.5 4.5,-0.6 0.5,-0.1 5.1,-1 6.4,-1.3 0.5,-0.1 0.8,0 0.8,0.2 0,0.3 -0.3,0.7 -0.8,0.8 -0.7,0.1 -2,0.6 -3.1,1.4 -1.3,1 -1.9,1.8 -3.4,3.8 -2.3,3 -12.1,19.6 -13.6,22.6 -1.2,2.5 -1,4.4 -1.1,6.5 -0.1,2.2 -0.1,3.3 -0.2,5.5 0,1.1 -0.2,3.8 0,6.4 0.1,1.9 0.5,3 2.4,3 0.9,0 2.4,-0.1 3,-0.2 0.4,-0.1 0.5,0.2 0.5,0.4 0,0.3 -0.4,0.6 -1.1,0.7 -3.6,0.6 -7.9,1.1 -8.3,1.1 -0.3,0 -4.5,1 -6.4,1.3 -0.7,0.1 -1,0 -1,-0.3 0,-0.2 0.2,-0.5 0.5,-0.6 0.6,-0.1 1.3,-0.4 2,-0.6 1.3,-0.5 1.9,-1.8 2.1,-3.7 0.3,-2.6 0.4,-5.4 0.4,-6.4 -0.2,-2.2 -0.1,-3.3 0,-5.5 z"
   id="path2726" />
					<path
   class="st3"
   d="m 727.5,726.7 c -0.5,11.2 -0.4,16.1 0.9,17.3 1.1,1 3,1.3 8.8,0.4 3.9,-0.6 7.2,-1.1 9.1,-3.6 1,-1.4 1.8,-3.4 2.1,-4.9 0.1,-0.6 0.3,-1 0.7,-1.1 0.4,0 0.4,0.2 0.4,1.1 0,0.8 -0.7,5.6 -1.4,7.8 -0.6,1.8 -0.8,2.2 -4.8,2.8 -5.3,0.8 -9.3,1.3 -12.3,1.6 -3.1,0.3 -5.4,0.6 -7.6,0.9 -0.3,0 -1.6,0.3 -3,0.5 -1.5,0.3 -3.1,0.6 -4.3,0.8 -0.8,0.1 -1.2,0 -1.2,-0.4 0,-0.2 0.2,-0.5 0.6,-0.5 0.7,-0.1 1.6,-0.4 2.2,-0.7 1.5,-0.5 2,-2.3 2.3,-4.5 0.5,-3.2 0.8,-9.3 1.1,-16.6 0.2,-5.4 0.3,-8.1 0.6,-13.4 0.5,-11.9 0.6,-14.1 0.5,-16.5 0,-2.6 -0.6,-3.7 -3,-3.8 -0.6,0 -1.8,0.1 -2.5,0.2 -0.3,0 -0.6,0 -0.6,-0.4 0,-0.5 0.4,-0.7 1.2,-0.8 3.3,-0.6 8,-1.1 8.4,-1.2 0.4,-0.1 5.8,-1.2 8,-1.5 0.8,-0.1 1.2,0 1.2,0.4 0,0.3 -0.3,0.5 -0.6,0.6 -0.5,0.1 -1.6,0.3 -2.5,0.6 -2.2,0.7 -2.8,2.1 -3.1,4.8 -0.3,2.5 -0.3,4.6 -0.8,16.5 0,5.5 -0.1,8.2 -0.4,13.6 z"
   id="path2728" />
					<path
   class="st3"
   d="m 769.4,723.6 c -0.3,6.3 -0.5,11.5 -0.3,14.2 0.1,1.9 0.3,3.1 2.2,3.2 1,0 2.4,0 3,-0.1 0.4,0 0.5,0.2 0.5,0.5 0,0.3 -0.3,0.6 -1.1,0.7 -3.6,0.5 -7.9,0.8 -8.2,0.9 -0.4,0 -4.5,0.8 -6.5,1.1 -0.7,0.1 -1,0 -1,-0.4 0,-0.2 0.2,-0.6 0.5,-0.6 0.6,-0.1 1.4,-0.4 2,-0.6 1.3,-0.5 1.6,-1.8 1.9,-3.7 0.4,-2.7 0.7,-7.9 1,-14.2 0.2,-4.6 0.3,-6.9 0.5,-11.5 0.4,-10.2 0.5,-12 0.4,-14.1 -0.1,-2.2 -0.5,-3.1 -1.9,-3.2 -0.7,0 -1.5,0 -2,0.1 -0.3,0 -0.5,-0.2 -0.5,-0.5 0,-0.4 0.3,-0.6 1.1,-0.7 2.2,-0.3 6.2,-0.8 6.6,-0.8 0.3,0 4.5,-0.8 6.5,-1.1 0.7,-0.1 1,0 1,0.4 0,0.2 -0.3,0.6 -0.5,0.6 -0.5,0.1 -0.9,0.1 -1.6,0.4 -1.8,0.6 -2.3,1.7 -2.5,4 -0.2,2.1 -0.2,4 -0.7,14.1 -0.1,4.4 -0.2,6.7 -0.4,11.3 z"
   id="path2730" />
					<path
   class="st3"
   d="m 791.4,709.1 c 0.4,-10.2 0.5,-12.1 0.4,-14.2 -0.1,-2.2 -0.4,-3.4 -2.5,-3.4 -0.5,0 -1.6,0.1 -2.2,0.2 -0.2,0 -0.5,-0.1 -0.5,-0.3 0,-0.4 0.3,-0.6 1.1,-0.7 3,-0.4 7.2,-0.8 7.6,-0.9 1.6,-0.2 4.6,-0.8 7.7,-1.2 10.9,-1.4 13.5,4.9 13.3,8.4 -0.2,5.2 -3.6,8.9 -7.1,12.4 4.9,0.9 11.3,4.9 11,12.4 -0.3,7.4 -5.9,15.3 -17,16.6 -1.2,0.1 -3.6,0.3 -5.6,0.5 -2,0.1 -3.9,0.3 -4.2,0.4 -0.2,0 -1.4,0.2 -2.7,0.4 -1.3,0.2 -2.9,0.5 -4,0.7 -0.7,0.1 -1,0 -1,-0.4 0,-0.2 0.2,-0.4 0.5,-0.5 0.6,-0.1 1.4,-0.4 2,-0.6 1.3,-0.3 1.5,-1.9 1.9,-3.9 0.5,-2.7 0.7,-8 1,-14.3 0,-4.6 0.1,-7 0.3,-11.6 z m 5.3,7.9 c -0.2,5.1 -0.5,13 -0.5,14 0.1,3.1 0.1,4 2,4.7 1.7,0.7 4.5,0.4 5.7,0.2 4.3,-0.5 9.7,-2.8 10,-11.3 0.1,-3 -0.8,-8.5 -5.8,-11.3 -2.2,-1.2 -4.3,-0.9 -5.8,-1 -0.8,-0.1 -4.1,0.4 -5.1,0.5 -0.2,0 -0.4,0.2 -0.4,0.5 0,1.5 0,2.3 -0.1,3.7 z m 0.3,-7.3 c 0,0.5 0.1,0.6 0.4,0.6 0.4,0 1.5,0.1 4,-0.2 3.6,-0.5 5.1,-0.8 6.5,-2.5 1.5,-1.8 2.7,-4.2 2.8,-7.4 0.2,-5.1 -2.2,-10.3 -8.8,-9.5 -0.7,0.1 -2.3,0.4 -3.4,0.8 -0.6,0.2 -0.8,0.4 -0.8,0.8 -0.3,7 -0.4,10.5 -0.7,17.4 z"
   id="path2732" />
					<path
   class="st3"
   d="m 834.8,703.8 c 0.4,-10.3 0.5,-12.2 0.4,-14.3 -0.1,-2.2 -0.4,-3.3 -2.5,-3.4 -0.5,0 -1.6,0 -2.2,0.1 -0.2,0 -0.5,-0.3 -0.5,-0.5 0,-0.4 0.3,-0.6 1.1,-0.7 3,-0.3 7.4,-0.7 7.7,-0.7 0.7,-0.1 6.2,-0.8 8.2,-1 4.2,-0.4 8.8,-0.5 12.1,1.7 1.6,1.1 4.3,4 4.2,8.7 -0.2,5 -2.3,9.9 -8.7,16 5.1,6.6 9.3,12.3 13,16.1 3.3,3.5 5.5,3.9 7.1,4.1 1.2,0.1 1.9,0.1 2.3,0.1 0.4,0 0.6,0.3 0.6,0.5 0,0.4 -0.4,0.6 -1.6,0.7 -1.6,0.1 -2.5,0.2 -4.1,0.3 -3.7,0.3 -5.3,0 -6.9,-0.8 -2.8,-1.3 -5,-4.4 -8.5,-9 -2.6,-3.3 -5.3,-7.4 -6.7,-9.1 -0.3,-0.3 -0.4,-0.3 -0.9,-0.3 -3.3,0.3 -5,0.4 -8.3,0.7 -0.3,0 -0.5,0.2 -0.5,0.6 0,0.6 0,0.9 -0.1,1.6 -0.3,6.4 -0.5,11.6 -0.3,14.3 0.1,1.9 0.5,3.1 2.5,3.3 0.9,0.1 2.3,0.1 2.9,0 0.5,0 0.5,0.3 0.5,0.5 0,0.3 -0.3,0.6 -1.1,0.7 -3.6,0.3 -7.7,0.5 -8,0.5 -0.1,0 -4.5,0.7 -6.5,0.9 -0.7,0.1 -1,0 -1,-0.4 0,-0.2 0.2,-0.6 0.5,-0.6 0.6,-0.1 1.4,-0.3 2,-0.5 1.3,-0.5 1.5,-1.7 1.9,-3.7 0.5,-2.8 0.7,-8 1,-14.4 0.2,-5 0.3,-7.3 0.4,-12 z m 5.5,5 c 0,0.4 0.1,0.6 0.4,0.8 0.9,0.5 4.3,0.6 7.2,0.3 1.6,-0.2 3.3,-0.4 5,-1.7 2.3,-1.8 4.2,-5.5 4.4,-10.6 0.3,-8.3 -3.8,-12.7 -10.8,-12 -1.9,0.2 -4.1,0.6 -4.7,0.9 -0.3,0.1 -0.5,0.5 -0.5,0.8 -0.5,8.7 -0.7,13 -1,21.5 z"
   id="path2734" />
					<path
   class="st3"
   d="m 895.9,680.4 c 0.9,-2.3 1.2,-2.7 1.7,-2.7 0.7,0 0.8,0.9 1.5,2.3 4.8,13.3 9.3,26.7 14,40 2.1,5.9 3.9,6.7 5.3,7.1 1,0.3 1.9,0.3 2.6,0.3 0.4,0 0.8,0.1 0.8,0.5 0,0.4 -0.8,0.6 -1.5,0.6 -1,0 -5.9,0.3 -10.3,0.3 -1.2,0 -2.3,0 -2.3,-0.4 0,-0.3 0.2,-0.3 0.5,-0.5 0.4,-0.2 1.1,-0.8 0.7,-1.8 -2.1,-6.1 -3.2,-9.1 -5.2,-15.1 -0.1,-0.3 -0.2,-0.4 -0.6,-0.4 -6,0.3 -9.1,0.5 -15.1,1 -0.3,0 -0.5,0.2 -0.7,0.6 -1.7,4.4 -2.5,6.6 -4.2,11 -0.7,1.7 -1.1,3.4 -1.2,4.6 -0.1,1.3 1,1.7 2.2,1.7 0.2,0 0.4,0 0.6,0 0.5,0 0.7,0.2 0.7,0.5 0,0.4 -0.4,0.6 -1,0.6 -1.6,0.1 -5.1,0.1 -5.9,0.2 -0.7,0 -4,0.5 -6.6,0.7 -0.8,0.1 -1.3,-0.1 -1.2,-0.5 0,-0.3 0.3,-0.6 0.6,-0.6 0.5,0 1.4,-0.2 1.9,-0.3 3,-0.6 4.3,-3.1 5.8,-6.5 5.5,-14.5 11.2,-28.8 16.9,-43.2 z M 902,708 c 0.3,0 0.3,-0.2 0.2,-0.5 -2.3,-7.2 -3.4,-10.8 -5.7,-18 -0.3,-1 -0.7,-1 -1.1,0.1 -2.7,7.5 -4.1,11.3 -6.8,18.8 -0.1,0.3 0,0.5 0.2,0.5 5.3,-0.5 8,-0.6 13.2,-0.9 z"
   id="path2736" />
					<path
   class="st3"
   d="m 931.6,696.7 c 0.4,-10.5 0.5,-12.4 0.4,-14.6 -0.1,-2.3 -0.4,-3.4 -2.5,-3.6 -0.5,-0.1 -1.6,-0.1 -2.2,-0.1 -0.2,0 -0.5,-0.3 -0.5,-0.5 0,-0.4 0.3,-0.6 1.1,-0.6 3,-0.1 7.4,-0.1 7.7,-0.1 0.7,0 6.2,-0.4 8.2,-0.4 4.2,-0.1 8.8,0.2 12.1,2.7 1.6,1.3 4.3,4.5 4.2,9.2 -0.2,5 -2.3,9.9 -8.7,15.6 5.1,7.1 9.3,13.3 13,17.5 3.3,3.8 5.5,4.5 7.1,4.8 1.2,0.2 1.9,0.3 2.3,0.3 0.4,0 0.6,0.3 0.6,0.6 0,0.4 -0.4,0.6 -1.6,0.5 -1.6,0 -2.5,0 -4.1,0 -3.7,0 -5.3,-0.4 -6.9,-1.4 -2.8,-1.6 -5,-4.9 -8.5,-10 -2.6,-3.6 -5.3,-8 -6.7,-9.8 -0.3,-0.3 -0.4,-0.4 -0.9,-0.4 -3.3,0 -5,0 -8.3,0 -0.3,0 -0.5,0.2 -0.5,0.6 0,0.6 0,1 -0.1,1.6 -0.3,6.5 -0.5,11.8 -0.3,14.6 0.1,2 0.5,3.2 2.5,3.5 0.9,0.1 2.3,0.3 2.9,0.3 0.5,0 0.5,0.3 0.5,0.5 0,0.3 -0.3,0.6 -1.1,0.6 -3.6,0.1 -7.7,-0.1 -8,-0.1 -0.1,0 -4.5,0.4 -6.5,0.4 -0.7,0 -1,-0.1 -1,-0.5 0,-0.2 0.2,-0.6 0.5,-0.6 0.6,0 1.4,-0.2 2,-0.4 1.3,-0.4 1.5,-1.7 1.9,-3.6 0.5,-2.8 0.7,-8.1 1,-14.7 0.1,-4.8 0.2,-7.2 0.4,-11.9 z m 5.4,5.5 c 0,0.4 0.1,0.6 0.4,0.9 0.9,0.5 4.3,0.9 7.2,0.9 1.6,0 3.3,-0.2 5,-1.3 2.3,-1.6 4.2,-5.3 4.4,-10.5 0.3,-8.5 -3.8,-13.3 -10.8,-13.1 -1.9,0 -4.1,0.3 -4.7,0.5 -0.3,0.1 -0.5,0.4 -0.5,0.8 -0.4,8.8 -0.6,13.1 -1,21.8 z"
   id="path2738" />
					<path
   class="st3"
   d="m 987.1,710.4 c 0.2,-3.7 -0.2,-5.1 -1.1,-7 -0.5,-1.1 -8.7,-16.4 -10.8,-20 -1.5,-2.6 -3,-4.2 -4.1,-5 -0.9,-0.7 -2.2,-1 -2.7,-1 -0.4,0 -0.7,-0.3 -0.6,-0.6 0,-0.3 0.2,-0.5 0.8,-0.5 1.3,0 6.2,0.2 6.5,0.2 0.5,0 3.1,-0.2 5.7,-0.1 0.7,0 0.9,0.2 0.9,0.5 0,0.2 -0.5,0.5 -1.1,0.7 -0.5,0.2 -0.8,0.5 -0.9,1.1 0,1 0.4,1.8 0.8,2.7 4.4,8.6 6.6,12.9 11,21.5 1.5,-2.9 10.2,-17.3 11.5,-19.5 0.9,-1.5 1.2,-2.6 1.3,-3.5 0,-1 -0.3,-1.6 -1,-1.8 -0.6,-0.2 -1,-0.5 -0.9,-0.8 0,-0.2 0.4,-0.4 1.1,-0.4 1.7,0.1 4,0.3 4.5,0.3 0.5,0 5.1,0 6.4,0.1 0.5,0 0.8,0.2 0.8,0.4 0,0.3 -0.3,0.7 -0.8,0.7 -0.7,0 -2,0.2 -3.1,0.8 -1.3,0.7 -1.9,1.5 -3.4,3.3 -2.3,2.7 -12.1,18.5 -13.6,21.3 -1.2,2.4 -1,4.6 -1.1,6.8 -0.1,2.3 -0.1,3.5 -0.2,5.9 0,1.1 -0.2,4 0,6.8 0.1,2 0.5,3.3 2.4,3.7 0.9,0.2 2.4,0.4 3,0.4 0.4,0 0.5,0.3 0.5,0.6 0,0.3 -0.4,0.5 -1.1,0.5 -3.6,-0.1 -7.9,-0.5 -8.3,-0.5 -0.3,0 -4.5,0.1 -6.4,0.1 -0.7,0 -1,-0.2 -1,-0.6 0,-0.2 0.2,-0.6 0.5,-0.5 0.6,0 1.3,-0.1 2,-0.3 1.3,-0.3 1.9,-1.6 2.1,-3.6 0.3,-2.8 0.4,-5.7 0.4,-6.8 -0.1,-2.4 -0.1,-3.6 0,-5.9 z"
   id="path2740" />
				</g>
			</g>
			<path
   d="m 269.7,694 -0.2,3.8 7,0.3 0.2,-3.8 c 3.9,-1.2 6.7,-4.8 6.9,-9 0.3,-5.5 -4,-10.2 -9.5,-10.4 -5.5,-0.2 -10.2,4 -10.4,9.5 -0.3,4.2 2.3,8 6,9.6 z"
   id="path2746" />
			<path
   d="m 262,866.8 0.2,-3.8 7,0.3 -0.2,3.8 c 3.7,1.6 6.2,5.3 6,9.6 -0.3,5.5 -4.9,9.8 -10.4,9.5 -5.5,-0.3 -9.8,-4.9 -9.5,-10.4 0.2,-4.2 3.1,-7.7 6.9,-9 z"
   id="path2748" />
		</g>
	</g>
	<g
   class="st2"
   id="g2828">
		<path
   d="m 1705.9,308.8 v -0.2 c -0.1,-2.4 -0.2,-5 -0.2,-7.8 -0.2,-13.9 -11.2,-25.4 -25.1,-26.1 -28.9,-1.6 -51.3,-11 -70.5,-29.7 l -0.2,-0.2 c -6.2,-5.7 -15.7,-5.7 -21.9,0 l -0.2,0.2 c -19.1,18.6 -41.5,28.1 -70.5,29.7 -13.9,0.8 -24.9,12.3 -25.1,26.1 0,2.8 -0.1,5.4 -0.2,7.8 v 0.5 c -0.6,29.5 -1.3,66.3 11,99.6 6.8,18.3 17,34.3 30.4,47.4 15.3,14.9 35.3,26.8 59.5,35.2 0.8,0.3 1.6,0.5 2.4,0.7 1.2,0.2 2.4,0.4 3.5,0.4 1.1,0 2.4,-0.1 3.5,-0.4 0.8,-0.2 1.7,-0.4 2.4,-0.7 24.2,-8.5 44.2,-20.3 59.5,-35.2 13.4,-13.1 23.7,-29 30.4,-47.4 12.5,-33.5 11.8,-70.3 11.3,-99.9 z"
   id="path2754" />
		<g
   id="g2764">
			<polygon
   points="1615,517.1 1752.5,608.5 1744,617.2 1749.8,608.8 1614.5,521.5 1464.1,590.6 1475.6,599.3 1457.2,590.1 "
   id="polygon2756" />
			<polygon
   points="1625.2,602.5 1776,653.7 1743.6,628.1 1610.7,566.6 1470.4,613.6 1421.8,648 "
   id="polygon2758" />
			<polygon
   points="1740.3,615.5 1740.2,619.9 1610.6,560.8 1475.5,607.7 1475.6,597 1611,542.9 "
   id="polygon2760" />
			<polygon
   points="1754.6,678.7 1616.3,695.5 1464,675.3 1464,644.8 1614.8,619.8 1752.5,653.7 "
   id="polygon2762" />
		</g>
		<g
   id="g2826">
			<path
   class="st3"
   d="m 1462.9,779.6 c 0.1,-3.2 2.8,-5.8 6,-5.8 17.7,-0.1 73.7,-1.7 132.5,-15.2 57.9,-13.3 112.3,-15.3 130.5,-15.6 3.5,-0.1 6.3,2.8 6.1,6.3 l -1.9,43 c -0.2,3.4 -3.1,6 -6.5,5.8 -18,-1.4 -73.6,-3.3 -144,15.9 -57.6,15.7 -103.5,12.8 -118.9,11.1 -3.2,-0.3 -5.5,-3.1 -5.4,-6.2 z"
   id="path2766" />
			<path
   class="st3"
   d="m 1464.9,783.9 c 0.1,-3.2 2.8,-5.8 6,-5.8 17.7,-0.1 73.7,-1.7 132.5,-15.2 57.9,-13.3 112.3,-15.3 130.5,-15.6 3.5,-0.1 6.3,2.8 6.1,6.3 l -1.9,43 c -0.2,3.4 -3.1,6 -6.5,5.8 -18,-1.4 -73.6,-3.3 -144,15.9 -57.6,15.7 -103.5,12.8 -118.9,11.1 -3.2,-0.3 -5.5,-3.1 -5.4,-6.2 z"
   id="path2768" />
			<path
   d="m 1721.4,741.9 v 1.3 l 2.4,0.1 V 742 c 1.3,-0.5 2.3,-1.7 2.3,-3.1 0.1,-1.9 -1.4,-3.4 -3.3,-3.5 -1.9,-0.1 -3.4,1.4 -3.5,3.3 -0.1,1.4 0.8,2.7 2.1,3.2 z"
   id="path2770" />
			<path
   d="m 1741.4,771.4 -2.3,25.4 c -0.3,3.3 -3.2,5.8 -6.5,5.7 -4.7,-0.2 -11.3,-0.4 -17.2,-0.3 -5.1,0.1 -5.8,2.9 -5.2,5.8 0.8,3.8 4,6.7 7.9,7.2 9.4,1.2 29.8,1.6 45,-13.7 12.4,-12.5 21.6,-14.3 26.8,-13.7 1.8,0.2 2.9,-1.8 1.8,-3.2 -1.9,-2.5 -4.7,-5.4 -7.9,-7.2 -2.6,-1.5 -3.3,-4.9 -1.3,-7.2 l 7.8,-9.3 c 1.3,-1.5 0.4,-3.8 -1.5,-4.1 -9.3,-1.6 -31.6,-3.6 -45.2,10.5 -1.1,1.1 -2,2.6 -2.2,4.1 z"
   id="path2772" />
			<path
   class="st3"
   d="m 1719.1,800.8 0.1,-2.1 3.9,0.1 -0.1,2.1 c 2.1,0.8 3.5,2.9 3.4,5.3 -0.1,3 -2.6,5.5 -5.7,5.4 -3.1,-0.1 -5.4,-2.6 -5.4,-5.7 0.1,-2.4 1.7,-4.4 3.8,-5.1 z"
   id="path2774" />
			<path
   d="m 1719.8,803.1 v -1.3 l 2.4,0.1 v 1.3 c 1.3,0.5 2.2,1.8 2.1,3.2 -0.1,1.9 -1.6,3.3 -3.5,3.3 -1.9,0 -3.3,-1.6 -3.3,-3.5 0,-1.4 1,-2.6 2.3,-3.1 z"
   id="path2776" />
			<path
   d="m 1457.8,798.9 0.3,25.5 c 0.1,3.3 2.7,6.1 6.1,6.2 4.7,0.2 11.3,0.5 17.2,1 5.5,0.5 5.6,3.9 4.5,7 -1.2,3.3 -4.3,5.6 -7.9,5.8 -9.3,0.5 -30,-0.5 -44.1,-17.2 -12,-14.1 -21.3,-16.1 -26.4,-15.7 -1.5,0.1 -2.4,-1.6 -1.4,-2.8 2.2,-2.6 5.5,-5.7 9.3,-7.4 2.6,-1.1 3.4,-4.3 1.8,-6.6 l -7.7,-10.7 c -1,-1.4 -0.1,-3.3 1.6,-3.5 9,-0.9 32.1,-1.6 44.9,13.9 1,1.4 1.8,2.9 1.8,4.5 z"
   id="path2778" />
			<path
   class="st3"
   d="m 1474.4,828.5 0.1,-2.1 3.9,0.2 -0.1,2.1 c 2.1,0.9 3.5,3 3.3,5.3 -0.1,3 -2.7,5.4 -5.8,5.3 -3.1,-0.1 -5.4,-2.7 -5.3,-5.8 0.2,-2.3 1.8,-4.3 3.9,-5 z"
   id="path2780" />
			<path
   d="m 1463.6,781.6 c 0.1,-3.2 2.8,-5.8 6,-5.8 17.7,-0.1 73.7,-1.7 132.5,-15.2 57.9,-13.3 112.3,-15.3 130.5,-15.6 3.5,-0.1 6.3,2.8 6.1,6.3 l -1.9,43 c -0.2,3.4 -3.1,6 -6.5,5.8 -18,-1.4 -73.6,-3.3 -144,15.9 -57.6,15.7 -103.5,12.8 -118.9,11.1 -3.2,-0.3 -5.5,-3.1 -5.4,-6.2 z"
   id="path2782" />
			<g
   id="g2820">
				<g
   id="g2818">
					<path
   class="st3"
   d="m 1470.8,798.4 c 0.2,-3.6 0.2,-4.2 0.2,-5 0,-0.8 -0.2,-1.2 -1,-1.3 -0.2,0 -0.6,-0.1 -0.9,-0.1 -0.1,0 -0.2,0 -0.2,-0.1 0,-0.1 0.1,-0.2 0.4,-0.2 1.1,0 2.7,0.1 2.9,0.1 0.2,0 1.8,0 2.5,0 0.3,0 0.4,0 0.4,0.2 0,0.1 -0.1,0.1 -0.2,0.1 -0.2,0 -0.3,0 -0.6,0.1 -0.7,0.1 -0.9,0.5 -1,1.3 -0.1,0.7 -0.1,1.4 -0.3,5 -0.1,1.3 -0.1,1.9 -0.2,3.2 -0.2,3.3 0.6,4.8 1.6,5.7 1.2,1.1 2.3,1.3 3.8,1.3 1.5,0 3.1,-0.7 4.1,-1.6 1.2,-1.3 1.6,-3.3 1.7,-5.7 0.1,-1.2 0.1,-1.7 0.1,-2.9 0.2,-3.6 0.2,-4.3 0.2,-5 0,-0.8 -0.2,-1.2 -1,-1.3 -0.2,0 -0.6,-0.1 -0.9,-0.1 -0.1,0 -0.2,0 -0.2,-0.1 0,-0.1 0.1,-0.2 0.4,-0.2 1.1,0 2.5,0 2.7,0 0.2,0 1.4,-0.1 2.1,-0.1 0.3,0 0.4,0 0.4,0.2 0,0.1 -0.1,0.1 -0.2,0.2 -0.2,0 -0.3,0 -0.6,0.1 -0.7,0.2 -0.9,0.5 -1,1.3 -0.1,0.7 -0.1,1.4 -0.3,5 -0.1,1 -0.1,1.5 -0.1,2.5 -0.1,2.5 -0.6,5.3 -2.7,7 -1.9,1.5 -3.8,1.7 -5.3,1.7 -0.9,0 -3.4,-0.2 -5.1,-1.8 -1.2,-1.1 -2.1,-2.8 -1.9,-6.1 0.1,-1.4 0.2,-2.1 0.2,-3.4 z"
   id="path2784" />
					<path
   class="st3"
   d="m 1492.5,806.5 c 0,1.6 0.2,2.1 0.8,2.2 0.4,0.1 0.9,0.1 1.1,0.1 0.1,0 0.2,0.1 0.2,0.2 0,0.1 -0.2,0.2 -0.4,0.2 -1.3,0 -2.1,0 -2.3,0 -0.2,0 -1.1,0.1 -2.2,0.1 -0.2,0 -0.3,0 -0.3,-0.2 0,-0.1 0.1,-0.2 0.2,-0.2 0.2,0 0.6,0 0.9,-0.1 0.6,-0.2 0.7,-0.7 0.8,-2.5 0.2,-4.5 0.3,-6.8 0.5,-11.4 0,-0.8 0.2,-1 0.3,-1 0.3,0 0.6,0.4 0.8,0.6 0.3,0.3 3.4,3.4 6.7,6.5 2.1,2 4.4,4.3 5,4.9 0.1,-4 0.1,-6 0.2,-10.1 0,-1.3 -0.1,-1.7 -0.8,-1.8 -0.4,0 -0.9,0 -1.1,0 -0.2,0 -0.2,-0.1 -0.2,-0.2 0,-0.1 0.2,-0.2 0.4,-0.2 1,-0.1 2.1,-0.1 2.3,-0.1 0.3,0 1,-0.1 1.9,-0.2 0.2,0 0.4,0 0.4,0.1 0,0.1 -0.1,0.2 -0.3,0.2 -0.1,0 -0.3,0 -0.5,0.1 -0.7,0.2 -0.8,0.6 -0.9,1.8 -0.2,4.7 -0.4,7.1 -0.6,11.8 -0.1,1.3 -0.1,1.4 -0.2,1.5 -0.2,0 -0.4,-0.1 -1.6,-1.1 -0.2,-0.2 -3.3,-3 -5.5,-5.1 -2.5,-2.4 -4.8,-4.7 -5.5,-5.4 0,3.6 -0.1,5.5 -0.1,9.3 z"
   id="path2786" />
					<path
   class="st3"
   d="m 1514.2,802.1 c -0.1,2 -0.2,3.5 -0.1,4.4 0.1,0.6 0.1,1 0.8,1 0.3,0 0.8,0 1,0 0.1,0 0.2,0.1 0.2,0.2 0,0.1 -0.1,0.2 -0.4,0.2 -1.2,0.1 -2.7,0.1 -2.8,0.2 -0.1,0 -1.5,0.2 -2.2,0.2 -0.2,0 -0.3,0 -0.3,-0.1 0,-0.1 0.1,-0.2 0.2,-0.2 0.2,0 0.5,-0.1 0.7,-0.1 0.4,-0.1 0.5,-0.5 0.6,-1.1 0.1,-0.8 0.2,-2.4 0.3,-4.4 0.1,-1.4 0.1,-2.1 0.2,-3.6 0.2,-3.1 0.2,-3.7 0.2,-4.3 0,-0.7 -0.2,-1 -0.7,-1 -0.3,0 -0.5,0 -0.7,0 -0.1,0 -0.2,-0.1 -0.2,-0.2 0,-0.1 0.1,-0.2 0.4,-0.2 0.7,-0.1 2.1,-0.1 2.3,-0.2 0.1,0 1.5,-0.2 2.2,-0.3 0.3,0 0.3,0 0.3,0.1 0,0.1 -0.1,0.2 -0.2,0.2 -0.2,0 -0.3,0 -0.6,0.1 -0.6,0.2 -0.8,0.5 -0.8,1.2 -0.1,0.6 -0.1,1.2 -0.2,4.4 -0.1,1.4 -0.1,2.1 -0.2,3.5 z"
   id="path2788" />
					<path
   class="st3"
   d="m 1526.8,804.2 c 1.4,-2.9 4.6,-10.2 5.2,-11.8 0.1,-0.3 0.2,-0.6 0.2,-0.8 0,-0.2 -0.1,-0.4 -0.3,-0.4 -0.3,0 -0.5,0 -0.8,0 -0.1,0 -0.3,0 -0.3,-0.1 0,-0.1 0.2,-0.2 0.5,-0.2 0.9,-0.1 1.9,-0.2 2.2,-0.2 0.1,0 1.1,-0.2 1.8,-0.3 0.2,0 0.3,0 0.3,0.1 0,0.1 -0.1,0.2 -0.3,0.2 -0.2,0 -0.7,0.1 -1.1,0.4 -0.3,0.2 -0.7,0.6 -1.3,2 -0.3,0.6 -1.5,3.2 -2.7,5.9 -1.5,3.2 -2.6,5.5 -3.1,6.5 -0.7,1.3 -0.8,1.6 -1,1.6 -0.3,0 -0.4,-0.2 -0.8,-1.2 -1.9,-4.8 -2.9,-7.2 -4.9,-12 -0.4,-1.1 -0.8,-1.3 -1.5,-1.4 -0.3,0 -0.7,0 -0.9,0 -0.2,0 -0.2,-0.1 -0.2,-0.2 0,-0.1 0.2,-0.2 0.6,-0.2 1.1,-0.1 2.3,-0.2 2.6,-0.2 0.2,0 1.2,-0.2 2.1,-0.3 0.4,0 0.6,0 0.6,0.1 0,0.1 -0.1,0.2 -0.2,0.2 -0.3,0 -0.6,0.1 -0.8,0.2 -0.2,0.1 -0.3,0.2 -0.3,0.4 0,0.3 0.2,0.9 0.5,1.6 1.6,4.2 2.4,6.1 3.9,10.1 z"
   id="path2790" />
					<path
   class="st3"
   d="m 1538.7,795.9 c 0.2,-3.2 0.2,-3.8 0.2,-4.4 0,-0.7 -0.1,-1 -0.9,-1 -0.2,0 -0.6,0 -0.8,0 -0.1,0 -0.2,-0.1 -0.2,-0.2 0,-0.1 0.1,-0.2 0.4,-0.2 1,-0.1 2.4,-0.3 2.6,-0.3 0.2,0 4.8,-0.7 5.3,-0.8 0.4,-0.1 0.8,-0.2 1,-0.3 0.1,0 0.2,-0.1 0.3,-0.1 0.1,0 0.1,0.1 0.1,0.2 0,0.2 -0.1,0.4 -0.2,1 0,0.2 -0.1,1.1 -0.2,1.4 0,0.1 -0.1,0.2 -0.2,0.3 -0.1,0 -0.2,-0.1 -0.2,-0.2 0,-0.2 0,-0.5 -0.1,-0.7 -0.1,-0.3 -0.4,-0.4 -1.6,-0.4 -0.4,0 -2.9,0.3 -3.2,0.4 -0.1,0 -0.1,0.1 -0.1,0.2 -0.1,2.3 -0.2,3.4 -0.3,5.6 0,0.2 0,0.2 0.1,0.2 0.3,0 3.2,-0.4 3.7,-0.5 0.5,-0.1 0.9,-0.2 1.1,-0.4 0.2,-0.2 0.3,-0.3 0.3,-0.3 0,0 0.1,0 0.1,0.2 0,0.1 -0.1,0.5 -0.2,1.2 -0.1,0.4 -0.2,1.2 -0.2,1.4 0,0.2 -0.1,0.4 -0.2,0.4 -0.1,0 -0.2,0 -0.1,-0.2 0,-0.2 0,-0.4 -0.1,-0.7 -0.1,-0.3 -0.3,-0.5 -1.1,-0.5 -0.6,0 -3,0.3 -3.4,0.3 -0.1,0 -0.2,0.1 -0.2,0.2 0,0.7 -0.1,1 -0.1,1.7 0,0.7 -0.2,3.1 -0.2,3.5 0,1.4 0.4,1.6 2.6,1.3 0.6,-0.1 1.7,-0.2 2.2,-0.5 0.6,-0.3 0.9,-0.7 1.1,-1.6 0.1,-0.3 0.1,-0.3 0.2,-0.3 0.1,0 0.1,0.2 0.1,0.3 0,0.2 -0.3,1.6 -0.4,2 -0.2,0.6 -0.4,0.6 -1.3,0.7 -1.7,0.2 -3,0.3 -3.9,0.4 -0.9,0.1 -1.5,0.1 -1.8,0.2 -0.1,0 -0.5,0.1 -1,0.1 -0.4,0.1 -0.9,0.2 -1.3,0.2 -0.2,0 -0.3,0 -0.3,-0.1 0,-0.1 0.1,-0.2 0.2,-0.2 0.2,0 0.5,-0.1 0.7,-0.2 0.4,-0.1 0.5,-0.5 0.6,-1.2 0.2,-0.9 0.2,-2.5 0.3,-4.5 0.5,-1.4 0.6,-2.2 0.6,-3.6 z"
   id="path2792" />
					<path
   class="st3"
   d="m 1552.6,793.9 c 0.2,-3.2 0.2,-3.8 0.2,-4.5 0,-0.7 -0.1,-1 -0.9,-1 -0.2,0 -0.6,0 -0.8,0.1 -0.1,0 -0.2,-0.1 -0.2,-0.2 0,-0.1 0.1,-0.2 0.4,-0.2 1,-0.2 2.5,-0.3 2.6,-0.3 0.2,0 2.1,-0.4 2.8,-0.5 1.4,-0.2 3,-0.3 4.1,0.3 0.5,0.3 1.5,1.2 1.4,2.6 -0.1,1.6 -0.8,3.2 -2.9,5.2 1.7,1.9 3.2,3.6 4.4,4.7 1.1,1 1.9,1.1 2.4,1.1 0.4,0 0.7,0 0.8,0 0.1,0 0.2,0.1 0.2,0.1 0,0.1 -0.1,0.2 -0.5,0.3 -0.6,0.1 -0.8,0.1 -1.4,0.2 -1.3,0.2 -1.8,0.2 -2.4,-0.1 -0.9,-0.3 -1.7,-1.3 -2.9,-2.6 -0.9,-1 -1.8,-2.2 -2.3,-2.7 -0.1,-0.1 -0.2,-0.1 -0.3,-0.1 -1.1,0.2 -1.7,0.2 -2.8,0.4 -0.1,0 -0.2,0.1 -0.2,0.2 0,0.2 0,0.3 0,0.5 -0.1,2 -0.2,3.6 -0.1,4.5 0.1,0.6 0.2,1 0.8,1 0.3,0 0.8,0 1,0 0.2,0 0.2,0.1 0.2,0.2 0,0.1 -0.1,0.2 -0.4,0.2 -1.2,0.2 -2.6,0.3 -2.7,0.3 0,0 -1.5,0.3 -2.2,0.4 -0.2,0 -0.3,0 -0.3,-0.1 0,-0.1 0.1,-0.2 0.2,-0.2 0.2,0 0.5,-0.1 0.7,-0.2 0.4,-0.2 0.5,-0.6 0.6,-1.2 0.2,-0.9 0.2,-2.5 0.3,-4.5 0.1,-1.7 0.2,-2.4 0.2,-3.9 z m 1.9,1.5 c 0,0.1 0,0.2 0.1,0.3 0.3,0.1 1.4,0.1 2.4,0 0.5,-0.1 1.1,-0.2 1.7,-0.6 0.8,-0.6 1.4,-1.8 1.5,-3.4 0.1,-2.6 -1.3,-3.9 -3.7,-3.5 -0.7,0.1 -1.4,0.3 -1.6,0.4 -0.1,0 -0.2,0.2 -0.2,0.3 0,2.5 -0.1,3.8 -0.2,6.5 z"
   id="path2794" />
					<path
   class="st3"
   d="m 1567.1,801.2 c -0.3,-0.1 -0.3,-0.2 -0.3,-0.7 0.1,-1 0.2,-1.9 0.2,-2.3 0,-0.2 0.1,-0.4 0.2,-0.4 0.1,0 0.2,0 0.2,0.2 0,0.2 0,0.5 0,0.8 0.3,1.5 1.9,1.8 3.4,1.5 2.2,-0.3 3.4,-1.8 3.5,-3.3 0.1,-1.5 -0.7,-2.1 -2.6,-3.2 -0.4,-0.2 -0.6,-0.3 -1,-0.6 -2.3,-1.4 -3.1,-2.5 -3,-4 0.1,-2.5 2.2,-4.3 5.1,-4.8 0.9,-0.2 1.8,-0.2 2.3,-0.2 0.4,0 0.6,0 0.8,0 0.2,0 0.2,0 0.2,0.1 0,0.1 -0.1,0.8 -0.2,2.3 0,0.3 -0.1,0.5 -0.2,0.5 -0.2,0 -0.2,-0.1 -0.2,-0.2 0,-0.2 -0.2,-0.8 -0.3,-1 -0.1,-0.2 -0.8,-0.9 -2.8,-0.6 -1.6,0.3 -3,1.3 -3.1,2.8 -0.1,1.3 0.6,2 2.7,3.1 0.3,0.1 0.4,0.2 0.6,0.3 2.6,1.4 3.5,2.7 3.4,4.5 -0.1,1.3 -0.6,2.7 -2.2,4 -1,0.8 -2.4,1.1 -3.6,1.3 -0.9,0.1 -2.2,0.1 -3.1,-0.1 z"
   id="path2796" />
					<path
   class="st3"
   d="m 1584,792.6 c -0.1,2.1 -0.2,3.8 -0.1,4.6 0.1,0.6 0.1,1 0.8,1 0.3,0 0.8,0 1,-0.1 0.1,0 0.2,0.1 0.2,0.2 0,0.1 -0.1,0.2 -0.4,0.2 -1.2,0.2 -2.7,0.4 -2.8,0.4 -0.1,0 -1.5,0.3 -2.2,0.4 -0.2,0 -0.3,0 -0.3,-0.1 0,-0.1 0.1,-0.2 0.2,-0.2 0.2,0 0.5,-0.1 0.7,-0.2 0.4,-0.2 0.5,-0.6 0.6,-1.2 0.1,-0.9 0.2,-2.6 0.3,-4.6 0.1,-1.5 0.1,-2.3 0.2,-3.8 0.2,-3.3 0.2,-3.9 0.2,-4.6 0,-0.7 -0.2,-1 -0.7,-1 -0.3,0 -0.5,0 -0.7,0 -0.1,0 -0.2,-0.1 -0.2,-0.1 0,-0.1 0.1,-0.2 0.4,-0.2 0.7,-0.1 2.1,-0.3 2.3,-0.3 0.1,0 1.5,-0.3 2.2,-0.4 0.3,0 0.3,0 0.3,0.1 0,0.1 -0.1,0.2 -0.2,0.2 -0.2,0 -0.3,0 -0.6,0.2 -0.6,0.2 -0.8,0.6 -0.8,1.3 -0.1,0.7 -0.1,1.3 -0.2,4.6 -0.1,1.3 -0.1,2.1 -0.2,3.6 z"
   id="path2798" />
					<path
   class="st3"
   d="m 1596.7,790.4 c -0.1,2.1 -0.2,3.8 -0.1,4.7 0.1,0.6 0.1,1 0.8,1 0.3,0 0.8,0 1,-0.1 0.2,0 0.2,0.1 0.2,0.2 0,0.1 -0.1,0.2 -0.4,0.2 -1.2,0.2 -2.6,0.4 -2.8,0.4 -0.1,0 -1.7,0.3 -2.3,0.5 -0.3,0 -0.3,0 -0.3,-0.1 0,-0.1 0.1,-0.2 0.2,-0.2 0.2,0 0.5,-0.1 0.7,-0.2 0.4,-0.2 0.6,-0.6 0.7,-1.3 0.1,-0.9 0.2,-2.6 0.3,-4.7 0.2,-3.6 0.2,-5.4 0.4,-9 -1.3,0.3 -1.9,0.4 -3.2,0.6 -1.4,0.3 -1.9,0.5 -2.3,1.1 -0.3,0.4 -0.3,0.6 -0.4,0.7 -0.1,0.2 -0.1,0.2 -0.2,0.2 -0.1,0 -0.2,0 -0.1,-0.2 0,-0.2 0.5,-2.2 0.6,-2.4 0,-0.1 0.2,-0.4 0.3,-0.4 0.2,0 0.4,0.1 1,0.1 0.6,0 1.5,-0.2 1.7,-0.2 3.4,-0.6 5,-0.9 8.4,-1.5 0.7,-0.1 1.2,-0.3 1.6,-0.4 0.3,-0.1 0.5,-0.2 0.6,-0.2 0.1,0 0.1,0.1 0.1,0.2 0,0.7 -0.2,2.2 -0.2,2.5 0,0.2 -0.1,0.3 -0.2,0.3 -0.1,0 -0.2,0 -0.2,-0.3 0,-0.1 0,-0.1 0,-0.2 -0.1,-0.7 -0.5,-1 -2.6,-0.7 -1.1,0.2 -1.7,0.3 -2.8,0.4 -0.3,3.6 -0.4,5.4 -0.5,9 z"
   id="path2800" />
					<path
   class="st3"
   d="m 1610.2,788.8 c 0.1,-1.2 -0.1,-1.6 -0.4,-2.1 -0.2,-0.3 -3,-4.6 -3.7,-5.6 -0.5,-0.7 -1,-1.1 -1.4,-1.3 -0.3,-0.2 -0.7,-0.2 -0.9,-0.1 -0.1,0 -0.2,-0.1 -0.2,-0.2 0,-0.1 0.1,-0.2 0.3,-0.2 0.4,-0.1 2.1,-0.3 2.2,-0.3 0.2,0 1.1,-0.2 1.9,-0.4 0.3,0 0.3,0 0.3,0.1 0,0.1 -0.2,0.2 -0.4,0.3 -0.2,0.1 -0.3,0.2 -0.3,0.4 0,0.3 0.1,0.5 0.3,0.8 1.5,2.4 2.3,3.6 3.8,6.1 0.5,-1 3.5,-6.2 3.9,-6.9 0.3,-0.5 0.4,-0.9 0.4,-1.2 0,-0.3 -0.1,-0.5 -0.3,-0.5 -0.2,0 -0.3,-0.1 -0.3,-0.2 0,-0.1 0.1,-0.2 0.4,-0.2 0.6,-0.1 1.4,-0.2 1.5,-0.2 0.2,0 1.8,-0.3 2.2,-0.4 0.2,0 0.3,0 0.3,0.1 0,0.1 -0.1,0.3 -0.3,0.3 -0.3,0 -0.7,0.2 -1.1,0.5 -0.4,0.3 -0.7,0.6 -1.2,1.3 -0.8,1 -4.1,6.7 -4.6,7.7 -0.4,0.8 -0.3,1.5 -0.4,2.2 0,0.8 -0.1,1.1 -0.1,1.9 0,0.4 -0.1,1.3 0,2.2 0,0.6 0.2,1 0.8,1 0.3,0 0.8,0 1,-0.1 0.1,0 0.2,0.1 0.2,0.2 0,0.1 -0.1,0.2 -0.4,0.2 -1.2,0.2 -2.7,0.4 -2.8,0.4 -0.1,0 -1.5,0.3 -2.2,0.4 -0.3,0 -0.3,0 -0.3,-0.1 0,-0.1 0.1,-0.2 0.2,-0.2 0.2,0 0.5,-0.1 0.7,-0.2 0.4,-0.2 0.6,-0.6 0.7,-1.3 0.1,-0.9 0.1,-1.8 0.1,-2.2 0.1,-1.1 0.1,-1.5 0.1,-2.2 z"
   id="path2802" />
					<path
   class="st3"
   d="m 1633.2,783.3 c -0.2,3.8 -0.1,5.5 0.3,5.9 0.4,0.3 1,0.4 3,0.1 1.3,-0.2 2.4,-0.4 3.1,-1.2 0.3,-0.5 0.6,-1.2 0.7,-1.7 0,-0.2 0.1,-0.3 0.2,-0.4 0.1,0 0.2,0.1 0.1,0.4 0,0.3 -0.3,1.9 -0.5,2.7 -0.2,0.6 -0.3,0.7 -1.6,0.9 -1.8,0.3 -3.1,0.4 -4.2,0.5 -1,0.1 -1.8,0.2 -2.6,0.3 -0.1,0 -0.6,0.1 -1,0.2 -0.5,0.1 -1.1,0.2 -1.4,0.3 -0.3,0 -0.4,0 -0.4,-0.1 0,-0.1 0.1,-0.2 0.2,-0.2 0.2,0 0.5,-0.1 0.8,-0.2 0.5,-0.2 0.7,-0.8 0.8,-1.5 0.2,-1.1 0.3,-3.2 0.4,-5.7 0.1,-1.8 0.1,-2.7 0.2,-4.6 0.2,-4 0.2,-4.8 0.2,-5.6 0,-0.9 -0.2,-1.3 -1,-1.3 -0.2,0 -0.6,0 -0.9,0.1 -0.1,0 -0.2,0 -0.2,-0.1 0,-0.2 0.1,-0.2 0.4,-0.3 1.1,-0.2 2.7,-0.4 2.8,-0.4 0.1,0 2,-0.4 2.7,-0.5 0.3,0 0.4,0 0.4,0.1 0,0.1 -0.1,0.2 -0.2,0.2 -0.2,0 -0.5,0.1 -0.8,0.2 -0.7,0.3 -1,0.7 -1.1,1.6 -0.1,0.8 -0.1,1.6 -0.3,5.6 0.1,1.9 0,2.8 -0.1,4.7 z"
   id="path2804" />
					<path
   class="st3"
   d="m 1647.5,782.2 c -0.1,2.2 -0.2,3.9 -0.1,4.8 0.1,0.6 0.1,1 0.8,1.1 0.3,0 0.8,0 1,0 0.1,0 0.2,0.1 0.2,0.2 0,0.1 -0.1,0.2 -0.4,0.2 -1.2,0.2 -2.7,0.3 -2.8,0.3 -0.1,0 -1.5,0.3 -2.2,0.4 -0.2,0 -0.3,0 -0.3,-0.1 0,-0.1 0.1,-0.2 0.2,-0.2 0.2,0 0.5,-0.1 0.7,-0.2 0.4,-0.2 0.5,-0.6 0.6,-1.3 0.1,-0.9 0.2,-2.7 0.3,-4.8 0.1,-1.6 0.1,-2.4 0.2,-3.9 0.2,-3.5 0.2,-4.1 0.2,-4.8 0,-0.8 -0.2,-1.1 -0.7,-1.1 -0.3,0 -0.5,0 -0.7,0 -0.1,0 -0.2,-0.1 -0.2,-0.2 0,-0.1 0.1,-0.2 0.4,-0.2 0.7,-0.1 2.1,-0.3 2.3,-0.3 0.1,0 1.5,-0.3 2.2,-0.4 0.3,0 0.3,0 0.3,0.1 0,0.1 -0.1,0.2 -0.2,0.2 -0.2,0 -0.3,0 -0.6,0.1 -0.6,0.2 -0.8,0.6 -0.8,1.3 -0.1,0.7 -0.1,1.3 -0.2,4.8 -0.1,1.6 -0.2,2.4 -0.2,4 z"
   id="path2806" />
					<path
   class="st3"
   d="m 1654.9,777.3 c 0.2,-3.5 0.2,-4.1 0.2,-4.8 0,-0.8 -0.1,-1.2 -0.9,-1.2 -0.2,0 -0.6,0 -0.8,0 -0.1,0 -0.2,0 -0.2,-0.1 0,-0.1 0.1,-0.2 0.4,-0.2 1,-0.1 2.4,-0.3 2.6,-0.3 0.5,-0.1 1.6,-0.3 2.6,-0.4 3.7,-0.5 4.6,1.7 4.5,2.8 -0.1,1.8 -1.2,3 -2.4,4.2 1.7,0.3 3.8,1.7 3.7,4.2 -0.1,2.5 -2,5.2 -5.8,5.7 -0.4,0 -1.2,0.1 -1.9,0.2 -0.7,0 -1.3,0.1 -1.4,0.1 -0.1,0 -0.5,0.1 -0.9,0.1 -0.4,0.1 -1,0.2 -1.3,0.2 -0.2,0 -0.3,0 -0.3,-0.1 0,-0.1 0.1,-0.1 0.2,-0.2 0.2,0 0.5,-0.1 0.7,-0.2 0.4,-0.1 0.5,-0.6 0.6,-1.3 0.2,-0.9 0.2,-2.7 0.3,-4.9 0,-1.5 0.1,-2.3 0.1,-3.8 z m 1.8,2.7 c -0.1,1.7 -0.2,4.4 -0.2,4.8 0,1.1 0,1.3 0.7,1.6 0.6,0.2 1.5,0.1 1.9,0.1 1.5,-0.2 3.3,-1 3.4,-3.8 0,-1 -0.3,-2.9 -1.9,-3.8 -0.7,-0.4 -1.4,-0.3 -2,-0.3 -0.3,0 -1.4,0.1 -1.7,0.2 -0.1,0 -0.1,0.1 -0.1,0.2 0,0.2 0,0.5 -0.1,1 z m 0.1,-2.5 c 0,0.2 0,0.2 0.1,0.2 0.1,0 0.5,0 1.4,-0.1 1.2,-0.2 1.7,-0.3 2.2,-0.8 0.5,-0.6 0.9,-1.4 1,-2.5 0.1,-1.7 -0.8,-3.5 -3,-3.2 -0.3,0 -0.8,0.1 -1.1,0.3 -0.2,0.1 -0.3,0.1 -0.3,0.3 -0.1,2.2 -0.2,3.4 -0.3,5.8 z"
   id="path2808" />
					<path
   class="st3"
   d="m 1669.7,775.5 c 0.2,-3.5 0.2,-4.1 0.2,-4.8 0,-0.8 -0.1,-1.1 -0.9,-1.1 -0.2,0 -0.6,0 -0.8,0 -0.1,0 -0.2,-0.1 -0.2,-0.2 0,-0.1 0.1,-0.2 0.4,-0.2 1,-0.1 2.5,-0.2 2.6,-0.2 0.2,0 2.1,-0.3 2.8,-0.3 1.4,-0.2 3,-0.2 4.1,0.6 0.5,0.4 1.5,1.4 1.4,3 -0.1,1.7 -0.8,3.4 -2.9,5.4 1.7,2.2 3.2,4.2 4.4,5.5 1.1,1.2 1.9,1.3 2.4,1.4 0.4,0 0.7,0 0.8,0 0.1,0 0.2,0.1 0.2,0.2 0,0.1 -0.1,0.2 -0.5,0.2 -0.6,0 -0.8,0.1 -1.4,0.1 -1.3,0.1 -1.8,0 -2.4,-0.3 -0.9,-0.5 -1.7,-1.5 -2.9,-3.1 -0.9,-1.1 -1.8,-2.5 -2.3,-3.1 -0.1,-0.1 -0.2,-0.1 -0.3,-0.1 -1.1,0.1 -1.7,0.1 -2.8,0.2 -0.1,0 -0.2,0.1 -0.2,0.2 0,0.2 0,0.3 0,0.5 -0.1,2.2 -0.2,3.9 -0.1,4.8 0.1,0.7 0.2,1.1 0.8,1.1 0.3,0 0.8,0 1,0 0.2,0 0.2,0.1 0.2,0.2 0,0.1 -0.1,0.2 -0.4,0.2 -1.2,0.1 -2.6,0.2 -2.7,0.2 0,0 -1.5,0.2 -2.2,0.3 -0.2,0 -0.3,0 -0.3,-0.2 0,-0.1 0.1,-0.2 0.2,-0.2 0.2,0 0.5,-0.1 0.7,-0.2 0.4,-0.2 0.5,-0.6 0.6,-1.3 0.2,-0.9 0.2,-2.7 0.3,-4.9 0.1,-1.5 0.1,-2.3 0.2,-3.9 z m 1.8,1.7 c 0,0.1 0,0.2 0.1,0.3 0.3,0.2 1.4,0.2 2.4,0.1 0.5,0 1.1,-0.1 1.7,-0.6 0.8,-0.6 1.4,-1.9 1.5,-3.6 0.1,-2.8 -1.3,-4.3 -3.7,-4.1 -0.7,0.1 -1.4,0.2 -1.6,0.3 -0.1,0 -0.2,0.2 -0.2,0.3 0,2.9 0,4.4 -0.2,7.3 z"
   id="path2810" />
					<path
   class="st3"
   d="m 1690.4,767.5 c 0.3,-0.8 0.4,-0.9 0.6,-0.9 0.2,0 0.3,0.3 0.5,0.8 0.4,0.9 3.5,10.2 4.8,13.6 0.7,2 1.3,2.3 1.8,2.4 0.3,0.1 0.7,0.1 0.9,0.1 0.1,0 0.3,0 0.3,0.2 0,0.2 -0.3,0.2 -0.5,0.2 -0.3,0 -2,0.1 -3.5,0.1 -0.4,0 -0.8,0 -0.8,-0.1 0,-0.1 0.1,-0.1 0.2,-0.2 0.1,-0.1 0.4,-0.3 0.2,-0.6 -0.7,-2.1 -1.1,-3.1 -1.8,-5.1 -0.1,-0.1 -0.1,-0.1 -0.2,-0.1 -2.1,0.1 -3.1,0.2 -5.1,0.3 -0.1,0 -0.2,0.1 -0.2,0.2 -0.6,1.5 -0.8,2.2 -1.4,3.7 -0.2,0.6 -0.4,1.2 -0.4,1.5 0,0.5 0.3,0.6 0.7,0.6 0.1,0 0.1,0 0.2,0 0.2,0 0.2,0.1 0.2,0.2 0,0.1 -0.1,0.2 -0.3,0.2 -0.5,0 -1.7,0 -2,0.1 -0.2,0 -1.3,0.2 -2.3,0.3 -0.3,0 -0.4,0 -0.4,-0.2 0,-0.1 0.1,-0.2 0.2,-0.2 0.2,0 0.5,-0.1 0.7,-0.1 1,-0.2 1.5,-1 2,-2.2 2.2,-6 3.3,-8.9 5.6,-14.8 z m 2.1,9.4 c 0.1,0 0.1,-0.1 0.1,-0.2 -0.8,-2.5 -1.2,-3.7 -1.9,-6.1 -0.1,-0.3 -0.2,-0.3 -0.4,0 -0.9,2.6 -1.4,3.8 -2.3,6.4 0,0.1 0,0.2 0.1,0.2 1.7,-0.2 2.6,-0.2 4.4,-0.3 z"
   id="path2812" />
					<path
   class="st3"
   d="m 1702.6,773 c 0.2,-3.6 0.2,-4.2 0.2,-5 0,-0.8 -0.1,-1.2 -0.9,-1.2 -0.2,0 -0.6,0 -0.8,0 -0.1,0 -0.2,-0.1 -0.2,-0.2 0,-0.1 0.1,-0.2 0.4,-0.2 1,0 2.5,0 2.6,0 0.2,0 2.1,-0.1 2.8,-0.1 1.4,0 3,0.1 4.1,0.9 0.5,0.4 1.5,1.5 1.4,3.1 -0.1,1.7 -0.8,3.4 -2.9,5.3 1.7,2.4 3.2,4.5 4.4,6 1.1,1.3 1.9,1.5 2.4,1.6 0.4,0.1 0.7,0.1 0.8,0.1 0.1,0 0.2,0.1 0.2,0.2 0,0.1 -0.1,0.2 -0.5,0.2 -0.6,0 -0.8,0 -1.4,0 -1.3,0 -1.8,-0.2 -2.4,-0.5 -0.9,-0.5 -1.7,-1.7 -2.9,-3.4 -0.9,-1.2 -1.8,-2.7 -2.3,-3.3 -0.1,-0.1 -0.2,-0.1 -0.3,-0.1 -1.1,0 -1.7,0 -2.8,0 -0.1,0 -0.2,0.1 -0.2,0.2 0,0.2 0,0.3 0,0.5 -0.1,2.2 -0.2,4 -0.1,5 0.1,0.7 0.2,1.1 0.8,1.2 0.3,0 0.8,0.1 1,0.1 0.2,0 0.2,0.1 0.2,0.2 0,0.1 -0.1,0.2 -0.4,0.2 -1.2,0 -2.6,0 -2.7,0 0,0 -1.5,0.1 -2.2,0.2 -0.2,0 -0.3,0 -0.3,-0.2 0,-0.1 0.1,-0.2 0.2,-0.2 0.2,0 0.5,-0.1 0.7,-0.1 0.4,-0.1 0.5,-0.6 0.6,-1.2 0.2,-0.9 0.2,-2.8 0.3,-5 0.1,-1.8 0.1,-2.6 0.2,-4.3 z m 1.8,1.9 c 0,0.1 0,0.2 0.1,0.3 0.3,0.2 1.4,0.3 2.4,0.3 0.5,0 1.1,0 1.7,-0.4 0.8,-0.6 1.4,-1.8 1.5,-3.5 0.1,-2.9 -1.3,-4.5 -3.7,-4.5 -0.7,0 -1.4,0.1 -1.6,0.2 -0.1,0 -0.2,0.1 -0.2,0.3 0,2.9 -0.1,4.4 -0.2,7.3 z"
   id="path2814" />
					<path
   class="st3"
   d="m 1721.4,777.7 c 0.1,-1.3 -0.1,-1.7 -0.4,-2.4 -0.2,-0.4 -3,-5.6 -3.7,-6.8 -0.5,-0.9 -1,-1.4 -1.4,-1.7 -0.3,-0.2 -0.7,-0.3 -0.9,-0.3 -0.1,0 -0.2,-0.1 -0.2,-0.2 0,-0.1 0.1,-0.2 0.3,-0.2 0.4,0 2.1,0 2.2,0 0.2,0 1.1,0 1.9,0 0.3,0 0.3,0.1 0.3,0.2 0,0.1 -0.2,0.2 -0.4,0.2 -0.2,0.1 -0.3,0.2 -0.3,0.4 0,0.3 0.1,0.6 0.3,0.9 1.5,2.9 2.3,4.4 3.8,7.3 0.5,-1 3.5,-5.9 3.9,-6.6 0.3,-0.5 0.4,-0.9 0.4,-1.2 0,-0.3 -0.1,-0.5 -0.3,-0.6 -0.2,-0.1 -0.3,-0.2 -0.3,-0.3 0,-0.1 0.1,-0.1 0.4,-0.1 0.6,0 1.4,0.1 1.5,0.1 0.2,0 1.8,0 2.2,0 0.2,0 0.3,0.1 0.3,0.2 0,0.1 -0.1,0.2 -0.3,0.2 -0.3,0 -0.7,0 -1.1,0.3 -0.4,0.3 -0.7,0.5 -1.2,1.1 -0.8,0.9 -4.1,6.3 -4.6,7.2 -0.4,0.8 -0.3,1.5 -0.4,2.3 0,0.8 -0.1,1.2 -0.1,2 0,0.4 -0.1,1.4 0,2.3 0,0.7 0.2,1.1 0.8,1.3 0.3,0.1 0.8,0.1 1,0.2 0.1,0 0.2,0.1 0.2,0.2 0,0.1 -0.1,0.2 -0.4,0.2 -1.2,0 -2.7,-0.2 -2.8,-0.2 -0.1,0 -1.5,0 -2.2,0 -0.3,0 -0.3,-0.1 -0.3,-0.2 0,-0.1 0.1,-0.2 0.2,-0.2 0.2,0 0.5,0 0.7,-0.1 0.4,-0.1 0.6,-0.5 0.7,-1.2 0.1,-0.9 0.1,-1.9 0.1,-2.3 0.1,-0.8 0.1,-1.2 0.1,-2 z"
   id="path2816" />
				</g>
			</g>
			<path
   d="m 1477.7,772.1 -0.1,1.3 2.4,0.1 0.1,-1.3 c 1.3,-0.4 2.3,-1.6 2.3,-3.1 0.1,-1.9 -1.4,-3.5 -3.2,-3.5 -1.9,-0.1 -3.4,1.4 -3.5,3.2 -0.1,1.5 0.7,2.8 2,3.3 z"
   id="path2822" />
			<path
   d="m 1475.1,830.9 0.1,-1.3 2.4,0.1 -0.1,1.3 c 1.3,0.5 2.1,1.8 2.1,3.3 -0.1,1.9 -1.7,3.3 -3.5,3.2 -1.9,-0.1 -3.3,-1.7 -3.2,-3.5 -0.1,-1.5 0.9,-2.7 2.2,-3.1 z"
   id="path2824" />
		</g>
	</g>
</g>
<g
   id="g2850"
   transform="matrix(0.31662996,0,0,0.31662996,-52.11735,-113.38519)">
	<path
   class="st4"
   d="m 542.5,552.8 v -106 h 55.8 c 20.2,0 30.5,12.9 30.5,27 0,13.4 -8.3,22.3 -18.3,24.3 11.3,1.8 20.4,12.7 20.4,26.1 0,15.9 -10.7,28.6 -30.8,28.6 z m 63.3,-75 c 0,-6.7 -4.8,-11.6 -12.4,-11.6 H 565 v 23.1 h 28.3 c 7.7,-0.1 12.5,-4.9 12.5,-11.5 z m 2,43.2 c 0,-6.7 -4.8,-12.4 -13.7,-12.4 H 565 v 24.6 h 29.1 c 8.6,0.1 13.7,-4.5 13.7,-12.2 z"
   id="path2832" />
	<path
   class="st4"
   d="m 752.8,552.8 -6.5,-18 h -45.5 l -6.7,18 h -25.8 l 41,-106.1 h 28.3 l 40.9,106.1 z M 723.6,469.3 707.1,515 h 33.1 z"
   id="path2834" />
	<path
   class="st4"
   d="m 893,552.8 v -44.5 h -50.1 v 44.5 h -22.6 v -106 h 22.6 v 41.7 H 893 v -41.7 h 22.7 V 552.9 H 893 Z"
   id="path2836" />
	<path
   class="st4"
   d="m 1041.5,552.8 -6.5,-18 h -45.5 l -6.7,18 H 957 l 41,-106.1 h 28.3 l 40.9,106.1 z m -29.3,-83.5 -16.5,45.7 h 33.1 z m 4.2,-31.5 h -14.2 l 21.3,-22.9 h 18.6 z"
   id="path2838" />
	<path
   class="st4"
   d="m 1182.1,552.8 -50.6,-69.2 v 69.2 h -22.6 v -106 h 23.2 l 49.1,66.6 v -66.6 h 22.6 v 106.1 h -21.7 z"
   id="path2840" />
	<path
   class="st4"
   d="m 1256.6,552.8 v -106 h 41.8 c 33.2,0 56.3,21.1 56.3,53.1 0,32 -23.1,53 -56.3,53 z m 75.1,-52.9 c 0,-18.8 -11.4,-33.2 -33.2,-33.2 h -19.2 V 533 h 19.2 c 21,-0.1 33.2,-15.2 33.2,-33.1 z"
   id="path2842" />
	<path
   class="st4"
   d="m 1409.9,437.8 -25.8,-22.9 h 18.4 l 21.5,22.9 z m -7.3,115 v -106 h 22.6 v 106.1 h -22.6 z"
   id="path2844" />
	<path
   class="st4"
   d="m 1551.2,552.8 -6.5,-18 h -45.5 l -6.7,18 h -25.8 l 41,-106.1 h 28.3 l 40.9,106.1 z m -29.3,-83.5 -16.5,45.6 h 33.1 z"
   id="path2846" />
	<path
   class="st4"
   d="m 1691.7,552.8 -50.6,-69.2 v 69.2 h -22.6 v -106 h 23.2 l 49.1,66.6 v -66.6 h 22.6 v 106.1 h -21.7 z"
   id="path2848" />
</g>
<g
   id="g2864"
   transform="matrix(0.31662996,0,0,0.31662996,-52.11735,-113.38519)">
	<path
   class="st4"
   d="m 633,600.5 c 1.5,-0.2 6.8,-0.3 16,-0.3 h 12.5 l 3.2,1.6 c 3.5,1.8 6.3,4.2 8.4,7.3 2.1,3.2 3.2,6.5 3.2,10 0,0.2 0,0.5 0,0.7 0,0.2 0,0.5 0,0.7 -0.3,4.4 -2.1,8.7 -5.2,13 -3.1,4.2 -6.5,6.9 -10.1,8 -1.4,0.4 -2.7,0.6 -3.8,0.6 -1.2,0 -2.7,-0.3 -4.4,-0.8 -2.2,-0.7 -4.1,-1.8 -5.6,-3.2 -1.6,-1.5 -3.4,-3.7 -5.3,-6.7 -1,-1.6 -1.5,-2.4 -1.7,-2.6 -0.1,-0.1 -0.7,0.1 -1.8,0.7 -2.6,1.3 -5.5,2 -8.7,2 h -1 c -6.8,-0.4 -10.6,-4.5 -11.5,-12.3 -0.1,-0.8 -0.1,-1.6 -0.1,-2.6 0,-3.7 0.9,-6.9 2.7,-9.5 1.8,-2.6 4.4,-4.5 7.8,-5.7 1.3,-0.4 3.1,-0.7 5.4,-0.9 z m 21.3,5.3 c -4.5,-1.3 -8.8,-1.9 -13,-1.9 -1.7,0 -3.3,0.2 -4.8,0.5 -3.2,0.7 -5.5,2 -7.1,3.9 -1.9,2.2 -2.8,5.5 -2.8,9.9 v 4.2 l 1.4,1.2 c 1,0.9 2,1.4 2.8,1.6 2.6,0.8 5,1.1 7.1,1.1 l 0.6,-0.1 c 0.1,-0.1 -0.2,-1 -1,-2.6 -0.8,-1.7 -1.2,-2.8 -1.2,-3.3 0,-0.3 0.1,-0.5 0.3,-0.5 0.7,0 2.6,1.6 5.9,4.9 5.2,5.2 8.8,8.1 10.8,8.7 0.6,0.2 1,0.3 1.3,0.3 2.7,0 5.4,-2.7 8.2,-8.2 1.7,-3.4 2.5,-6 2.5,-8 0,-2.3 -1.4,-4.8 -4.2,-7.5 -1.4,-1.4 -2.4,-2.3 -3.2,-2.8 -0.5,-0.4 -1.8,-0.9 -3.6,-1.4 z"
   id="path2852" />
	<path
   class="st4"
   d="m 944,601.2 c 1.6,-0.5 3.5,-0.7 5.6,-0.7 5.9,0 10.6,1.7 14,5.2 3.1,3.1 4.7,6.7 4.7,10.8 0,2.2 -0.4,4.4 -1.2,6.6 -1.3,3.8 -3.2,6.7 -5.5,8.9 -2.3,2.1 -5.1,3.3 -8.3,3.6 -0.2,0 -0.5,0 -0.6,0 -0.2,0 -0.4,0 -0.7,0 -2.2,0 -4.4,-0.3 -6.4,-1 -2.1,-0.7 -3.2,-1.4 -3.2,-2.1 0,-0.5 0.3,-0.8 1,-0.8 1,0 2.4,-0.3 4.4,-0.8 2.2,-0.5 3.6,-1 4.2,-1.5 1,-0.6 1.9,-1.4 2.8,-2.4 1.7,-2.3 2.5,-5.3 2.5,-8.9 0,-1 -0.1,-1.8 -0.3,-2.4 -0.5,-1.2 -1.6,-2.3 -3.2,-3.3 -1.6,-1 -3.4,-1.5 -5.4,-1.7 -0.5,-0.1 -1,-0.1 -1.5,-0.1 -2,0 -4.8,0.8 -8.4,2.5 -2.4,1.1 -6.6,4.2 -12.6,9.2 -6.8,5.7 -10.5,8.6 -10.8,8.8 -3,2.1 -6.2,3.1 -9.4,3.1 -2.7,0 -5.2,-0.7 -7.4,-2.1 -2.3,-1.4 -4,-3.3 -5.2,-5.8 -0.8,-1.5 -1.2,-3.7 -1.2,-6.4 0,-1.9 0,-3.2 0.2,-3.8 0.1,-0.6 0.5,-1.4 1,-2.4 1.2,-2 2.7,-3.7 4.6,-5.1 1.9,-1.4 3.8,-2.3 5.7,-2.5 h 0.9 c 1.2,0 2.3,0.2 3.3,0.7 1,0.5 1.5,1 1.5,1.5 0,0.5 -0.5,0.8 -1.6,1 -1.7,0.3 -3.4,1.5 -5,3.6 -1.3,1.8 -2,3.7 -2,5.5 0,1.8 0.7,3.4 2.1,4.8 2.3,2 4.6,3.1 7.1,3.1 1.5,0 2.8,-0.2 4,-0.7 3,-1 5.6,-2.5 7.8,-4.4 2.2,-1.8 4.8,-4.7 7.7,-8.5 2.7,-3.4 5.1,-6 7.3,-7.8 2.2,-1.7 4.7,-2.9 7.5,-3.7 z"
   id="path2854" />
	<path
   class="st4"
   d="m 1140.2,607.8 c 3.9,-6.2 9.6,-9.2 17.1,-9.2 2.7,0 5.6,0.5 8.6,1.6 9.1,3.2 15.2,5.6 18.3,7.2 3.8,2 6.5,4.3 8.2,6.9 2.1,3.5 3.2,7.5 3.2,12 0,3.1 -0.4,5.5 -1.1,7.3 -0.8,1.7 -1.4,2.5 -1.7,2.5 -0.6,0 -1.4,-1.4 -2.5,-4.3 -1.4,-3.6 -3.7,-8.3 -6.8,-14 -1.9,-3.6 -3.5,-6.2 -4.8,-7.6 -1.2,-1.4 -2.6,-2.4 -4.2,-3 -1.5,-0.5 -2.3,-0.7 -2.4,-0.6 -0.1,0.1 -0.1,0.2 -0.1,0.5 0,1.3 0.6,2.5 1.9,3.8 1.1,1.1 1.9,2.3 2.5,3.6 0.9,1.7 1.3,3.7 1.3,6.1 0,2.4 -0.4,4.2 -1.1,5.5 -0.8,1.3 -1.1,2.8 -1.1,4.6 0,1.8 -0.3,3.1 -1,3.7 -0.6,0.6 -1.2,0.9 -1.8,0.9 -0.5,0 -1.2,-0.3 -1.9,-0.8 l -1,-0.8 c 0.9,-0.4 1.4,-0.7 1.4,-0.9 0,-0.2 -0.4,-0.8 -1.3,-1.9 -1.3,-1.6 -1.9,-3 -1.9,-4.2 0,-0.9 0.2,-1.8 0.6,-2.8 0.4,-1.2 0.7,-2 0.7,-2.3 0,-0.5 -0.1,-1.2 -0.4,-2.2 -0.3,-1.4 -0.9,-2.9 -1.8,-4.5 -0.9,-1.8 -1.3,-3.3 -1.3,-4.7 0,-0.7 0.1,-1.2 0.4,-1.4 0.3,-0.2 0.5,-0.7 0.5,-1.5 V 606 l -2,0.3 c -3.8,0.4 -7,1.3 -9.5,2.5 -0.8,0.5 -2,1.5 -3.6,3.1 -3.9,4.1 -6.7,10.6 -8.4,19.5 -0.2,0.9 -0.4,1.6 -0.6,1.9 -0.2,0.3 -0.4,0.4 -0.8,0.4 -0.6,-0.1 -1.3,-1.1 -2.2,-2.8 -0.9,-1.8 -1.6,-3.6 -2,-5.5 -0.3,-1.7 -0.5,-3.4 -0.5,-5.2 -0.2,-5 0.9,-9.1 3.1,-12.4 z m 29.7,39.4 c 0.4,-0.3 0.8,-0.5 1.2,-0.5 1.2,0 1.9,1.1 2.2,3.4 0.2,1.1 0.5,1.9 0.9,2.3 0.5,0.4 1.4,0.7 2.8,0.9 2.3,0.2 3.6,0.9 3.8,2.1 0.1,0.2 0.1,0.4 0.1,0.7 0,0.5 -0.3,0.8 -0.8,1 -0.6,0.2 -1.5,0.3 -2.8,0.3 -1.7,0 -2.8,0.2 -3.2,0.6 -0.4,0.4 -0.7,1.4 -0.8,3 -0.2,2.3 -0.8,3.5 -1.9,3.5 -0.5,0 -0.9,-0.3 -1.3,-0.9 -0.3,-0.5 -0.6,-1.5 -0.7,-2.8 -0.1,-1.5 -0.4,-2.5 -0.9,-2.8 -0.5,-0.3 -1.5,-0.6 -3.2,-0.6 -1.3,0 -2.2,-0.1 -2.8,-0.3 -0.6,-0.2 -0.8,-0.5 -0.8,-1 0,-0.2 0,-0.5 0.1,-0.7 0.2,-1.2 1.5,-1.9 3.9,-2.1 1.4,-0.2 2.4,-0.5 2.8,-0.8 0.4,-0.4 0.7,-1 0.7,-2 0,-1.7 0.2,-2.8 0.7,-3.3 z"
   id="path2856" />
	<path
   class="st4"
   d="m 1372,598.9 c 0.5,-0.1 1.5,-0.2 3,-0.2 3,0 5.3,0.4 6.8,1.1 2.1,0.9 3.8,2.3 4.9,4.1 1.2,1.8 1.8,3.7 1.8,5.8 0,2.6 -0.9,5 -2.8,7.1 l -1.1,1.3 c 0.2,0.1 0.5,0.3 1.1,0.5 2.3,0.9 4.2,2.5 5.5,4.7 0.6,1.1 0.8,2.4 0.8,3.8 0,1.1 -0.2,2.2 -0.5,3.5 -0.5,1.9 -1.1,2.8 -1.8,2.8 -0.5,0 -0.9,-0.7 -1.3,-2 -0.6,-2 -1.4,-3.3 -2.4,-3.8 -1.1,-0.6 -3.3,-0.9 -6.7,-0.9 h -1.7 c -5.9,0 -10.2,0.4 -12.8,1.3 -2.6,0.8 -6.1,3 -10.5,6.7 -8.2,6.8 -15.5,10.2 -21.8,10.2 h -1.3 c -1.8,0 -3.5,-0.5 -5.3,-1.3 -1.8,-0.8 -3.2,-1.8 -4.1,-2.9 -2.1,-2.5 -3.1,-5.8 -3.1,-9.8 0,-1.6 0.1,-3 0.4,-4.3 0.4,-2 0.7,-3.2 1,-3.7 0.2,-0.4 -0.2,-1.2 -1.2,-2.2 -1.3,-1.3 -2.2,-2.6 -2.7,-4 -0.4,-1.2 -0.7,-3 -0.7,-5.4 0,-2.6 0.4,-4.5 1.1,-5.9 0.5,-0.9 1.6,-2.2 3.2,-4 1.5,-1.7 2.4,-2.5 2.8,-2.5 0.8,0 1.1,0.9 0.7,2.6 -0.3,1.7 -0.4,3 -0.4,3.9 0,2.3 0.2,3.9 0.7,5 0.9,1.9 2.7,3.1 5.2,3.6 0.3,0.1 0.7,0.1 1.1,0.1 2.1,0 6.2,-0.9 12.1,-2.8 5.6,-1.8 9.9,-3.3 12.8,-4.5 3,-1.2 6.8,-3.1 11.4,-5.6 2.7,-1.3 4.6,-2.1 5.8,-2.3 z m 3.4,9.1 c -2.4,-0.4 -4.7,-0.6 -7,-0.6 -2.9,0 -5.2,0.3 -7,0.9 -2.6,0.9 -5.8,3 -9.7,6.4 -8.2,7 -15.4,10.5 -21.8,10.5 -2.4,0 -3.8,-0.1 -4,-0.2 -0.4,-0.2 -0.6,-0.2 -0.6,0 l 0.1,0.7 c 0.6,2.8 1.6,5 2.9,6.6 0.5,0.5 1,0.9 1.3,1 0.4,0.1 1.7,0.2 3.8,0.2 2,0 3.6,-0.1 4.8,-0.4 1.3,-0.2 4,-1 8.1,-2.2 8.5,-2.5 14.8,-5.2 18.9,-8.1 5.1,-3.8 9.5,-5.7 13.3,-5.7 h 1.1 l 2,0.1 0.2,-2 c 0,-0.2 0,-0.4 0.1,-0.6 0.1,-0.2 0.1,-0.4 0.1,-0.6 0,-2.3 -0.6,-3.8 -1.9,-4.8 -0.7,-0.4 -2.3,-0.8 -4.7,-1.2 z m -31.7,-31.8 c 0,-0.2 0.2,-0.3 0.7,-0.3 1.6,0 3.3,0.4 5.2,1.3 1.9,0.9 2.9,2.3 2.9,4 v 0.9 c -0.2,2 -1.1,3.7 -2.5,5 -1.4,1.3 -3,1.9 -4.9,1.9 -1.2,0 -2.4,-0.3 -3.6,-0.9 -2,-1.2 -3,-3 -3,-5.4 0,-1 0.3,-2.1 0.9,-3.3 0.8,-1.7 1.6,-2.5 2.3,-2.5 0.1,0 0.1,0 0.2,0.1 0.1,0.1 0,0.7 -0.3,1.9 -0.2,0.8 -0.3,1.2 -0.3,1.3 0,0.4 0.2,1.2 0.6,2.2 0.8,2.1 2.1,3.1 4,3.1 1.9,0 3.3,-1.1 4.1,-3.2 0.4,-0.9 0.4,-1.7 0,-2.3 -0.8,-1.2 -2.4,-2.2 -4.8,-3 -1,-0.3 -1.5,-0.5 -1.5,-0.8 z"
   id="path2858" />
	<path
   class="st4"
   d="m 1521.2,586.5 c 0.1,-0.1 0.4,-0.2 0.8,-0.2 2.1,0 4.1,0.5 6.1,1.6 2.2,1 3.9,2.5 5.1,4.4 1.2,1.9 1.8,3.9 1.8,6 0,1.9 -0.5,3.7 -1.5,5.3 -0.4,0.7 -0.7,1.2 -0.8,1.7 -0.1,0.5 -0.1,0.6 0,0.7 1.4,0.5 5.3,1 11.7,1.6 2.4,0.2 3.6,0.5 3.6,0.8 0,0.3 -0.4,0.8 -1.1,1.3 -1.7,1.3 -3.9,2.5 -6.5,3.5 -1.8,0.6 -4.5,0.9 -8.1,0.9 h -5.8 l -1.8,2.2 c -1.5,1.9 -3.4,3.6 -5.8,5 -2.3,1.4 -4.5,2.2 -6.6,2.5 l -2.2,0.2 -0.3,2.8 c -0.2,1.6 -0.6,3.4 -1.3,5.2 -0.6,1.1 -0.8,2.5 -0.8,4 0,2.9 1.2,5.1 3.6,6.7 1.3,0.9 2.8,1.3 4.3,1.3 1.6,0 3.5,-0.6 5.7,-1.7 3.5,-1.8 7.2,-4.4 11.4,-7.9 4,-3.4 7.7,-7.2 11,-11.3 3.2,-3.9 5.7,-6.5 7.5,-7.7 2,-1.3 4.1,-2 6.3,-2 h 1 c 3.2,0.2 6,1.6 8.3,4 3.7,3.9 5.6,8.1 5.6,12.5 0,2.9 -0.8,5.2 -2.4,6.8 -0.8,0.9 -2,1.7 -3.7,2.5 -1.7,0.8 -3,1.1 -3.8,1.1 -0.6,0 -0.8,-0.2 -0.8,-0.6 0,-0.2 0.4,-1 1.3,-2.1 1.8,-2.1 2.8,-4 2.8,-5.5 0,-0.9 -0.7,-2.4 -2.2,-4.5 -1.4,-2 -2.8,-3.4 -4,-4.3 -1,-0.5 -1.9,-0.8 -2.8,-0.8 -1.4,0 -3,0.5 -4.7,1.3 -6.2,2.9 -12.1,8.2 -17.5,15.9 -3.9,5.5 -7.3,9.2 -10.3,11.3 -3,2.1 -6.4,3.1 -10.1,3.1 -3.6,0 -7.1,-1.2 -10.5,-3.5 -3.5,-2.5 -5.7,-6.1 -6.4,-10.7 -0.1,-1.1 -0.2,-2 -0.2,-2.6 0,-3.2 1.1,-6.5 3.4,-10.1 1.2,-2 1.8,-3.5 1.8,-4.5 0,-1.1 -0.6,-2.6 -1.9,-4.3 -1.9,-2.6 -2.8,-4.7 -2.8,-6.3 0,-0.3 0.1,-0.6 0.3,-0.8 0.2,-0.2 0.4,-0.3 0.7,-0.3 0.5,0 1.7,0.3 3.6,0.8 2.1,0.5 4.1,0.8 6.1,0.8 3,0 6.1,-0.7 9.4,-2 l 1.3,-0.6 -1.8,-1 c -2.4,-1.6 -4.7,-4.2 -6.7,-7.8 -0.9,-1.6 -1.3,-2.7 -1.3,-3.2 0,-0.2 0.1,-0.3 0.2,-0.3 h 0.2 c 1.5,0.7 4.8,2 10,3.9 5.1,1.8 8,2.7 8.8,2.7 h 0.1 c 0.1,-0.1 0.2,-0.3 0.2,-0.6 0,-1.1 -0.5,-2.4 -1.4,-3.8 -0.8,-1.1 -2,-3.3 -3.6,-6.8 -1.6,-3.3 -2.4,-5.2 -2.4,-5.8 -0.4,-0.2 -0.3,-0.6 -0.1,-0.8 z"
   id="path2860" />
	<path
   class="st4"
   d="m 1645.3,607.8 c 3.9,-6.2 9.6,-9.2 17.1,-9.2 2.7,0 5.6,0.5 8.6,1.6 9.1,3.2 15.2,5.6 18.3,7.2 3.8,2 6.5,4.3 8.2,6.9 2.1,3.5 3.2,7.5 3.2,12 0,3.1 -0.4,5.5 -1.1,7.3 -0.8,1.7 -1.4,2.5 -1.7,2.5 -0.6,0 -1.4,-1.4 -2.5,-4.3 -1.4,-3.6 -3.7,-8.3 -6.8,-14 -1.9,-3.6 -3.5,-6.2 -4.8,-7.6 -1.2,-1.4 -2.6,-2.4 -4.2,-3 -1.5,-0.5 -2.3,-0.7 -2.4,-0.6 -0.1,0.1 -0.1,0.2 -0.1,0.5 0,1.3 0.6,2.5 1.9,3.8 1.1,1.1 1.9,2.3 2.5,3.6 0.9,1.7 1.3,3.7 1.3,6.1 0,2.4 -0.4,4.2 -1.1,5.5 -0.8,1.3 -1.1,2.8 -1.1,4.6 0,1.8 -0.3,3.1 -1,3.7 -0.6,0.6 -1.2,0.9 -1.8,0.9 -0.5,0 -1.2,-0.3 -1.9,-0.8 l -1,-0.8 c 0.9,-0.4 1.4,-0.7 1.4,-0.9 0,-0.2 -0.4,-0.8 -1.3,-1.9 -1.3,-1.6 -1.9,-3 -1.9,-4.2 0,-0.9 0.2,-1.8 0.6,-2.8 0.4,-1.2 0.7,-2 0.7,-2.3 0,-0.5 -0.1,-1.2 -0.4,-2.2 -0.3,-1.4 -0.9,-2.9 -1.8,-4.5 -0.9,-1.8 -1.3,-3.3 -1.3,-4.7 0,-0.7 0.1,-1.2 0.4,-1.4 0.3,-0.2 0.5,-0.7 0.5,-1.5 V 606 l -2,0.3 c -3.8,0.4 -7,1.3 -9.5,2.5 -0.8,0.5 -2,1.5 -3.6,3.1 -3.9,4.1 -6.7,10.6 -8.4,19.5 -0.2,0.9 -0.4,1.6 -0.6,1.9 -0.2,0.3 -0.4,0.4 -0.8,0.4 -0.6,-0.1 -1.3,-1.1 -2.2,-2.8 -0.9,-1.8 -1.6,-3.6 -2,-5.5 -0.3,-1.7 -0.5,-3.4 -0.5,-5.2 -0.1,-5 1,-9.1 3.1,-12.4 z m 29.8,39.4 c 0.4,-0.3 0.8,-0.5 1.2,-0.5 1.2,0 1.9,1.1 2.2,3.4 0.2,1.1 0.5,1.9 0.9,2.3 0.5,0.4 1.4,0.7 2.8,0.9 2.3,0.2 3.6,0.9 3.8,2.1 0.1,0.2 0.1,0.4 0.1,0.7 0,0.5 -0.3,0.8 -0.8,1 -0.6,0.2 -1.5,0.3 -2.8,0.3 -1.7,0 -2.8,0.2 -3.2,0.6 -0.4,0.4 -0.7,1.4 -0.8,3 -0.2,2.3 -0.8,3.5 -1.9,3.5 -0.5,0 -0.9,-0.3 -1.3,-0.9 -0.3,-0.5 -0.6,-1.5 -0.7,-2.8 -0.1,-1.5 -0.4,-2.5 -0.9,-2.8 -0.5,-0.3 -1.5,-0.6 -3.2,-0.6 -1.3,0 -2.2,-0.1 -2.8,-0.3 -0.6,-0.2 -0.8,-0.5 -0.8,-1 0,-0.2 0,-0.5 0.1,-0.7 0.2,-1.2 1.5,-1.9 3.9,-2.1 1.4,-0.2 2.4,-0.5 2.8,-0.8 0.4,-0.4 0.7,-1 0.7,-2 -0.1,-1.7 0.2,-2.8 0.7,-3.3 z"
   id="path2862" />
</g>
<path
   class="st4"
   d="m 53.79537,75.23128 c -0.44328,0 -0.91823,0 -1.36151,0 -0.095,0 -0.15831,-0.0633 -0.2533,-0.0633 C 47.87439,75.10468 43.69488,74.34474 39.64201,72.95157 33.11944,70.7035 27.51509,66.96727 22.60732,62.18615 19.18772,58.86154 16.52803,54.96699 14.43827,50.69249 13.96332,49.67927 11.17698,41.38357 16.718,37.01407 c 0.47495,-0.50661 5.38271,-2.53304 5.19274,-5.63601 0.18997,-1.64648 0.60159,-3.26129 1.42483,-4.68612 2.53304,-4.40116 6.3326,-6.58591 11.43034,-6.61757 0.50661,0 1.04488,0.12665 1.58315,0.095 1.74147,-0.12665 3.00799,-0.98155 3.7679,-2.53304 8.51734,-14.1217 22.16409,-6.39593 24.31718,-4.27451 1.29818,1.26652 2.24807,2.75468 3.07131,4.40116 0.79157,1.61481 2.43805,2.53304 4.24284,2.40639 1.42483,-0.095 2.84967,-0.0317 4.2745,0.2533 5.12941,1.04488 9.27726,6.01597 9.62556,10.9554 0.0633,0.98155 0.44328,1.86812 1.20319,2.53304 0.47494,0.44328 3.29295,2.37472 3.67291,2.78634 1.74146,1.83646 2.94466,3.95788 3.4196,6.49092 0.79157,7.63078 -6.14262,19.02946 -16.33811,25.10875 -4.11619,2.65969 -8.58067,4.46448 -13.33012,5.60435 -3.35627,0.79158 -6.74421,1.26652 -10.16382,1.29818 -0.15831,-0.0317 -0.22164,0 -0.31663,0.0317 z"
   id="path2866"
   style="stroke-width:0.31663" />
<path
   class="st5"
   d="m 53.79537,74.88298 c -0.44328,0 -0.88656,0 -1.32984,0 -0.095,0 -0.15832,-0.0633 -0.25331,-0.0633 -4.21118,-0.0633 -8.32737,-0.79158 -12.3169,-2.18475 -6.39593,-2.21641 -11.90529,-5.88932 -16.74973,-10.6071 -3.35628,-3.26129 -5.9843,-7.09251 -8.0424,-11.30369 -0.47494,-0.98155 -3.19796,-9.15061 2.24807,-13.45677 0.47495,-0.50661 5.28772,-2.50138 5.09775,-5.54103 0.18997,-1.61481 0.60159,-3.19796 1.39317,-4.6228 2.50137,-4.30616 6.23761,-6.49091 11.24036,-6.49091 0.50661,0 1.04488,0.12665 1.55149,0.095 1.7098,-0.12665 2.94466,-0.94989 3.70457,-2.50138 8.39069,-13.90005 21.8158,-6.26927 23.90556,-4.21118 1.26652,1.26652 2.21641,2.72302 3.00798,4.30617 0.79158,1.61481 2.40639,2.50138 4.17952,2.37473 1.42483,-0.095 2.81801,-0.0317 4.21118,0.2533 5.06608,1.01322 9.11894,5.92098 9.46723,10.76542 0.0633,0.98155 0.44329,1.83645 1.17154,2.50138 0.47494,0.44328 3.26128,2.34306 3.60958,2.72301 1.7098,1.80479 2.91299,3.89455 3.35627,6.39593 0.79158,7.50413 -6.04763,18.71283 -16.0848,24.69713 -4.05286,2.59637 -8.42235,4.40116 -13.10848,5.4777 -3.29295,0.75991 -6.61756,1.23486 -10.0055,1.29819 -0.095,0.0633 -0.15832,0.095 -0.25331,0.095 z"
   id="path2868"
   style="stroke-width:0.31663" />
<path
   class="st4"
   d="m 104.01288,68.29708 v 0 c -1.36151,0.0633 -2.37472,-1.20319 -2.05809,-2.50138 1.20319,-4.81277 1.67814,-9.87885 1.36151,-15.07158 C 101.63816,23.43062 78.27087,2.81801 51.32566,4.17952 23.96883,5.44604 2.59631,28.93998 4.17946,56.61344 c 0.28496,4.81277 1.23485,9.43557 2.78634,13.7734 0.44328,1.26652 -0.44328,2.62803 -1.80479,2.69135 v 0 C 4.27445,73.10989 3.45121,72.57159 3.16624,71.74835 2.65963,70.29185 2.18469,68.77203 1.77307,67.22054 1.07648,64.62417 0.6332,61.96448 0.34824,59.30479 c 0,-0.095 -0.0317,-0.15831 -0.0633,-0.2533 -0.0317,-0.12666 -0.0633,-0.28497 -0.0633,-0.41162 L 0,53.95374 C 0,53.89044 0,53.79543 0,53.7321 0.0317,53.19383 0.0633,52.65556 0.095,52.11729 0.53828,39.51542 4.84445,28.37004 13.0135,18.77616 20.48597,10.03717 29.88988,4.2745 41.06692,1.58315 c 2.34306,-0.56993 4.74945,-0.82324 7.12417,-1.23486 0.0317,0 0.0633,0 0.0633,-0.0317 0.15831,-0.0317 0.31663,-0.095 0.50661,-0.095 L 53.60539,0 c 0.0633,0 0.15832,0 0.22164,0 0.53828,0.0317 1.07655,0.0633 1.61482,0.095 12.47522,0.44328 23.49394,4.68612 33.0245,12.72852 8.73899,7.40914 14.50165,16.71806 17.38299,27.80011 0.75991,2.94466 1.23485,5.95265 1.45649,8.99229 0,0.0633 0,0.095 0.0317,0.15832 0.0317,0.15831 0.0633,0.28497 0.095,0.44328 l 0.095,2.0581 c 0,0.0633 0,0.15831 0,0.22164 -0.0317,0.2533 -0.0317,0.5066 -0.0317,0.79157 0.0317,4.59114 -0.47494,9.08728 -1.58315,13.48844 -0.2533,0.8549 -1.01321,1.4565 -1.89978,1.51982 z"
   id="path2870"
   style="stroke-width:0.31663" />
<g
   id="g2890"
   transform="matrix(0.31662996,0,0,0.31662996,-52.11735,-113.38519)">
	<path
   class="st4"
   d="m 416.4,665.2 c -3.3,0.1 -7.1,-1.6 -8,-3.5 1.3,-0.2 2.5,-0.4 3.8,-0.7 2.5,-0.6 5,-1.3 7.5,-2 1.1,-0.3 1.2,-0.7 0.3,-1.5 -0.3,-0.3 -0.8,-0.5 -1.1,-0.8 -1.9,-1.3 -3.9,-2.6 -5.8,-4 -1.1,-0.8 -1,-1.4 0.3,-2.1 1.9,-1 3.9,-1.3 6,-0.7 2.3,0.6 3.9,2.7 3.9,5.1 0,0.8 0,1.6 0,2.5 3.3,-1.2 5.9,-3.5 8.9,-5 0.1,0.1 0.1,0.1 0.2,0.2 -0.1,0.4 -0.2,0.8 -0.3,1.2 -1.2,2.9 -3,5.4 -5.5,7.2 -1.1,0.8 -2.2,1.7 -3.4,2.4 -0.8,0.5 -1.2,1.1 -1.4,1.9 -0.7,3.2 -2.2,6.1 -4.5,8.4 -0.4,0.3 -0.7,0.7 -1.1,0.9 -1,0.5 -1.1,1.1 -0.8,2.1 0.3,1.3 0.5,2.6 0.5,3.9 0.1,3.9 3.2,5.9 6.6,4 1.2,-0.7 2.3,-1.7 3.2,-2.9 4,-5.3 6.5,-11.3 8,-17.8 0.6,-2.6 1.2,-5.2 1.9,-7.8 0.7,-2.7 2.3,-4.9 4.7,-6.4 3.1,-1.9 6.3,-1.8 9.4,-0.2 2.6,1.3 3.8,4.1 3,7 -0.5,1.9 -1.5,3.5 -2.7,5 -0.2,0.2 -0.5,0.4 -0.7,0.6 -0.1,0 -0.2,-0.1 -0.3,-0.1 0.1,-0.8 0.1,-1.6 0.3,-2.4 0.5,-3.2 -0.1,-4 -3.3,-4.5 -3.3,-0.6 -4.8,0.1 -6.6,3 -3.2,5.1 -4.9,10.8 -6.1,16.7 -0.8,3.9 -1.7,7.8 -4,11.2 -2.9,4.2 -6.9,6.6 -12.1,6.6 -4.3,0 -7.8,-3.4 -7.8,-7.6 0,-1.8 0.3,-3.5 0.6,-5.3 0.3,-2 0,-2.7 -1.8,-3.7 -1,-0.6 -2,-1.3 -2.9,-2.1 -0.9,-0.8 -0.6,-1.4 0.5,-1.8 0.6,-0.2 1.2,-0.4 1.9,-0.5 3.6,-1 6.4,-3.1 8.6,-6 0.1,-0.1 0.1,-0.2 0.2,-0.3 -0.1,0 -0.1,-0.1 -0.1,-0.2 z"
   id="path2872" />
	<path
   class="st4"
   d="m 386.1,685 c 1.4,0.5 2.9,0.7 4.1,1.4 1.8,0.9 2.7,4.4 1.8,6.2 -0.3,0.5 -0.6,0.6 -1.1,0.2 -0.2,-0.2 -0.4,-0.3 -0.5,-0.5 -1,-1.5 -2.3,-2 -4,-1.4 -3.4,1.2 -6.9,2.3 -10.2,3.6 -3,1.2 -5.1,3.7 -7.2,6.1 -2.6,2.9 -5.4,5.5 -8.8,7.3 -2.6,1.4 -5.3,2.2 -8.3,1.8 -5.4,-0.7 -7.2,-4.3 -7,-9 0,-1 0.4,-2.1 0.5,-3.1 0,-0.4 -0.1,-0.9 -0.3,-1.2 -0.3,-0.4 -0.8,-0.8 -1.2,-1.2 -2,-2.2 -2.4,-6.8 -0.8,-9.2 0.7,-1.1 1.6,-2.1 2.4,-3.1 0.1,-0.2 0.5,-0.3 0.7,-0.3 0.2,0.1 0.3,0.4 0.4,0.7 0,0.3 0,0.6 0,0.9 0,1.1 0,2.2 0.1,3.3 0.4,2.9 2.6,4.5 5.4,3.6 2.9,-1 5.7,-2.2 8.4,-3.5 4.6,-2.2 8.7,-5.2 12.4,-8.7 2.1,-2 4.6,-3.2 7.5,-3.6 3.6,-0.4 6.6,1.8 7,5.4 0.1,1.1 -0.4,2.3 -0.6,3.5 -0.3,0.2 -0.5,0.5 -0.7,0.8 z m -37.2,13 c 0.4,0.9 0.6,1.6 1,2.3 1.2,2.3 1.9,2.6 4.4,2.3 0.2,0 0.4,-0.1 0.6,-0.1 2.9,-0.3 5.5,-1.6 8.1,-2.9 4.5,-2.2 8.8,-4.7 12.2,-8.5 2.3,-2.6 4.9,-4.8 8.4,-5.6 0.2,0 0.4,-0.4 0.4,-0.6 -0.1,-0.7 -0.2,-1.5 -0.5,-2.1 -0.5,-1.3 -1.3,-1.8 -2.6,-1.7 -1.3,0.1 -2.7,0.3 -4,0.6 -4.3,0.8 -7.9,2.7 -10.7,6.2 -1.3,1.6 -2.6,3.1 -4.1,4.5 -3.5,3.4 -7.7,5.8 -13.2,5.6 z"
   id="path2874" />
	<path
   class="st4"
   d="m 188.9,630.5 c 0,-0.8 -0.1,-1.5 0,-2.3 0.1,-0.9 -0.3,-1.4 -1,-1.8 -3.5,-2.2 -5.9,-5.3 -7.4,-9 -1.4,-3.6 -0.9,-7 1.8,-9.8 2.4,-2.4 5.2,-2.8 8.2,-1.2 2.3,1.2 4.1,3.2 5.7,5.2 4.4,5.2 8.7,10.4 13,15.6 0.6,0.8 0.9,1.8 1.3,2.7 1.2,2.7 1.9,5.6 1.9,8.6 -0.1,5.5 -3.5,9.1 -9,9.4 -5.9,0.3 -9.9,-2.5 -12.6,-7.5 -1.5,-3.4 -2,-5.5 -1.9,-9.9 z m 1.2,-9.3 c 0.1,0 0.3,0 0.4,0 0.1,0.5 0.3,0.9 0.4,1.4 0.3,2.1 0.5,4.2 1,6.2 0.5,2.6 1.1,5.2 1.9,7.8 0.6,1.9 2,3.1 3.9,3.3 2.6,0.3 5,-0.3 7.2,-1.7 0.9,-0.5 1.4,-1.3 1.4,-2.3 0.3,-2.9 -0.1,-5.8 -1.4,-8.4 -1.8,-3.7 -4.1,-7.1 -6.8,-10.3 -1.5,-1.9 -3.2,-3.5 -5.5,-4.5 -1.6,-0.7 -3.1,-0.6 -4.5,0.4 -1.1,0.8 -2.1,1.8 -3.1,2.8 -0.2,0.2 -0.2,0.6 -0.1,0.8 0.3,3.1 2,5.6 3.8,8.1 0.1,0.2 0.3,0.2 0.5,0.4 0.3,-1.6 0.6,-2.8 0.9,-4 z"
   id="path2876" />
	<path
   class="st4"
   d="m 240.8,670.3 c 3,0 5.3,-0.9 7.7,-1.8 1.5,-0.6 3,-1.1 4.5,-1.6 2.4,-0.8 4.9,-0.7 7.4,0 5.2,1.7 9.3,4.6 11.1,10 2,6.1 -2.9,12.8 -9.2,12.6 -3.8,-0.2 -6.8,-2.2 -9.2,-5 -0.2,-0.2 -0.2,-0.6 -0.2,-0.9 0.3,0 0.6,0 0.9,0.1 1.5,0.4 3,1 4.5,1.2 2,0.4 3.8,-0.2 5,-1.9 0.7,-1 1.2,-2.2 1.6,-3.4 0.3,-1 0,-2 -0.6,-2.8 -1.8,-2.7 -4.3,-4.2 -7.4,-4.8 -3.1,-0.6 -6.2,-0.2 -9.3,0.1 -3.9,0.3 -7.8,0.9 -11.8,0.8 -5.9,-0.1 -11.2,-5.9 -11.3,-11.7 0,-2.2 0.9,-4.1 2.3,-5.7 0.6,-0.7 1.7,-1 2.6,-1.2 2.7,-0.5 5.3,-0.2 7.5,1.9 0.4,0.3 0.7,0.7 0.9,1.1 0.2,0.4 0.3,0.8 0.4,1.3 -0.4,-0.1 -0.9,0 -1.3,-0.2 -1.9,-0.7 -3.6,-0.4 -5.1,0.8 -1.4,1 -1.7,2.5 -1.2,4 1.3,4 4.1,6.2 8.2,6.9 0.7,0.1 1.6,0.2 2,0.2 z"
   id="path2878" />
	<path
   class="st4"
   d="m 472.6,606.4 c 0.5,0.7 1.1,0.8 1.8,0.6 0.6,-0.1 1.2,-0.3 1.8,-0.4 2.9,-0.4 5.4,1.4 6.2,4.2 0.3,0.9 0.8,1.8 1.4,2.5 1.6,1.8 1,4.1 -1.4,4.8 0,-0.3 0.1,-0.7 0.1,-1.1 -0.5,0.1 -1,0.1 -1.5,0.2 -1.7,0.3 -2.6,0 -3,-1.4 -0.6,-2.3 -2.3,-2.7 -4.2,-3 -0.8,-0.1 -1.6,-0.4 -2.3,-0.8 -0.3,-0.2 -0.5,-0.7 -0.7,-1 -0.2,-0.4 -0.4,-0.9 -0.7,-1.6 -0.5,0.9 -0.9,1.6 -1.3,2.3 -3.9,6.1 -4.1,12.5 -1.6,19.1 0.5,1.4 1.2,2.7 1.7,4.1 0.5,1.2 0.1,1.7 -1.1,1.6 -2.5,-0.2 -4.5,-1.4 -6,-3.3 -2.5,-3 -3.2,-6.5 -2.9,-10.3 0.5,-5.7 3.3,-10.3 7.4,-14.1 3.5,-3.2 7.1,-6.3 10.8,-9.4 1.4,-1.2 2.9,-2.2 4.5,-3 4.6,-2.3 10.6,0.6 11.6,5.5 0.2,1 0,1.4 -1.1,1.4 -1.8,0 -3.5,-0.2 -5.3,-0.2 -3,0 -5.9,0.1 -8.9,0.2 -2.2,0.1 -3.9,1.3 -5.3,3.1 z"
   id="path2880" />
	<path
   class="st4"
   d="m 311.3,686.4 c -0.2,1.2 0.3,2 0.9,2.7 1.9,2.3 2.5,4.8 1.9,7.7 0,0.2 -0.1,0.4 -0.1,0.5 -0.9,1.7 -1.5,3.4 -1.8,5.3 -0.2,1.2 -1.5,1.6 -2.6,0.9 -0.4,-0.2 -0.6,-0.5 -1,-0.8 0.3,-0.2 0.6,-0.3 0.9,-0.5 -0.3,-0.5 -0.5,-0.9 -0.8,-1.3 -1.1,-1.5 -1.4,-3 -0.3,-4.5 0.6,-1 0.5,-2 0.2,-3 -0.4,-1.3 -0.9,-2.5 -1.2,-3.8 -0.3,-0.9 -0.3,-1.8 0.4,-2.6 0.2,-0.3 0.2,-0.8 0.3,-1.2 -5.4,-1 -10,0.3 -13.2,5 -1.5,2.2 -2.5,4.5 -3.8,6.8 -0.3,0.5 -0.7,0.9 -1,1.3 -0.4,-0.4 -0.8,-0.8 -1,-1.3 -2.3,-5.3 -0.8,-13.2 5.3,-16.4 3.3,-1.7 6.7,-1.7 10.1,-0.6 1.9,0.6 3.7,1.5 5.5,2.4 2.7,1.3 5.5,2.7 8.1,4.2 2.8,1.5 5.3,3.3 6.6,6.3 1.4,3 1.6,6.2 0.9,9.4 -0.2,0.8 -0.6,1.5 -1,2.1 -0.3,0.6 -0.8,0.5 -1.1,0 -0.4,-0.7 -0.7,-1.4 -1,-2.1 -2,-4.1 -4,-8.2 -6,-12.3 -0.9,-1.8 -2.2,-3.2 -4.1,-3.9 -0.6,-0.1 -0.8,-0.2 -1.1,-0.3 z"
   id="path2882" />
	<path
   class="st4"
   d="m 489.2,626.2 c -0.2,-0.3 -0.4,-0.7 -0.6,-1 -0.3,-0.4 -0.6,-0.8 -0.8,-1.2 -0.2,-0.7 0,-1.4 0.6,-1.9 0.5,-0.5 1.2,-0.4 1.7,-0.1 1.3,0.8 1.8,0.6 2.8,-0.6 0.5,-0.6 1,-1.3 1.6,-1.9 0.2,-0.3 0.5,-0.5 0.8,-0.6 0.3,-0.1 0.8,-0.2 1,0 0.2,0.1 0.3,0.7 0.1,1 -0.2,0.6 -0.6,1.2 -0.9,1.7 -0.3,0.5 -0.6,1 -0.9,1.5 -0.8,1.2 -0.8,2.3 0.2,3.4 0.3,0.3 0.5,0.7 0.6,1.1 0.2,0.7 0.1,1.4 -0.5,1.8 -0.6,0.5 -1.1,0.3 -1.7,0 -2,-1 -2,-1 -3.4,0.9 -0.5,0.7 -1,1.4 -1.6,2 -0.2,0.2 -0.6,0.3 -0.9,0.5 -0.1,-0.4 -0.5,-0.7 -0.4,-1.1 0.1,-0.7 0.4,-1.4 0.7,-2.1 0.4,-0.8 0.8,-1.6 1.2,-2.4 0.3,-0.2 0.3,-0.5 0.4,-1 z"
   id="path2884" />
	<path
   class="st4"
   d="m 311.7,717.5 c -1.5,-0.1 -1.8,0.2 -2.1,1.7 -0.1,0.5 -0.2,1 -0.4,1.4 -0.2,0.3 -0.7,0.7 -1,0.7 -0.3,0 -0.9,-0.4 -1,-0.8 -0.3,-0.6 -0.3,-1.3 -0.4,-2 -0.1,-1.4 -0.4,-1.7 -1.7,-2 -0.9,-0.2 -1.8,-0.3 -2.6,-0.6 -0.3,-0.1 -0.8,-0.5 -0.8,-0.7 0.1,-0.4 0.4,-0.9 0.8,-1 0.5,-0.2 1.2,-0.2 1.8,-0.2 0.4,0 0.8,0 1.2,0 1.3,0 1.6,-0.3 1.8,-1.6 0,-0.3 0,-0.7 0.2,-0.9 0.3,-0.3 0.6,-0.8 1,-0.8 0.4,0 1,0.3 1.3,0.7 0.3,0.3 0.3,0.8 0.4,1.3 0.2,1.5 0.5,1.9 2,2.3 0.6,0.2 1.3,0.3 1.9,0.6 0.4,0.2 0.8,0.4 1,0.7 0.5,0.7 0.2,1.4 -0.6,1.4 -1,0 -1.9,-0.1 -2.8,-0.2 z"
   id="path2886" />
	<path
   class="st4"
   d="m 355.6,667.6 c 0.3,1.2 0.3,2.3 0.7,3.2 0.6,1.4 1.7,1.8 2.9,1.4 1.1,-0.4 2.1,-2 1.7,-3.1 -0.2,-0.6 -0.9,-1.1 -1.5,-1.4 -0.8,-0.3 -1.6,-0.4 -2.5,-0.8 0.3,-0.1 0.6,-0.2 0.9,-0.2 0.5,0 1.1,0 1.6,0.1 2.4,0.3 3.3,1.6 2.9,4 -0.3,2.1 -1.9,3.6 -3.9,3.8 -2.2,0.3 -4,-1.2 -4,-3.4 0,-1 0.4,-1.9 0.6,-2.8 0.1,-0.3 0.4,-0.5 0.6,-0.8 z"
   id="path2888" />
</g>
<path
   class="st4"
   d="m 53.79537,74.12307 c -0.44328,0 -0.8549,0 -1.29818,0 -0.095,0 -0.15832,-0.0317 -0.25331,-0.0633 -4.08452,-0.0633 -8.07406,-0.75992 -11.93694,-2.12142 -6.20595,-2.15309 -11.557,-5.69934 -16.24312,-10.25881 -3.26129,-3.1663 -5.79433,-6.87087 -7.7891,-10.9554 -0.47494,-0.94989 -3.10297,-8.86564 2.18475,-13.04516 0.44328,-0.5066 5.1294,-2.43805 4.93943,-5.35104 0.18997,-1.58315 0.56993,-3.10298 1.3615,-4.46448 2.40639,-4.17952 6.04764,-6.30094 10.89208,-6.30094 0.5066,0 1.01321,0.12665 1.48816,0.095 1.64647,-0.095 2.84967,-0.91823 3.57791,-2.43805 8.13739,-13.48844 21.15089,-6.0793 23.17732,-4.08453 1.23485,1.2032 2.15308,2.62803 2.91299,4.17952 0.75991,1.55148 2.34306,2.40638 4.05287,2.3114 1.36151,-0.095 2.72301,-0.0317 4.08452,0.2533 4.90777,0.98155 8.83398,5.76267 9.18227,10.44879 0.0633,0.94989 0.44328,1.77313 1.13987,2.40639 0.44328,0.41162 3.1663,2.27973 3.51459,2.65969 1.67814,1.77313 2.81801,3.79956 3.26129,6.17428 0.75991,7.28249 -5.85765,18.1429 -15.57819,23.93723 -3.92621,2.53304 -8.16906,4.2745 -12.72853,5.31938 -3.19796,0.75991 -6.42759,1.20319 -9.68887,1.26652 -0.095,0 -0.15832,0.0317 -0.25331,0.0317 z"
   id="path2892"
   style="stroke-width:0.31663" />
<g
   id="g2918"
   transform="matrix(0.31662996,0,0,0.31662996,-52.11735,-113.38519)">
	<path
   class="st6"
   d="m 241.9,470.8 c -1.7,2.6 -4.1,4.8 -7,6.2 l 0.1,0.1 c -0.9,0.5 -1.7,1.1 -2.6,1.7 28.1,23.7 63.4,58.6 91.4,102.4 0,-0.1 -30.2,-55.3 -81.9,-110.4 z"
   id="path2894" />
	<path
   class="st6"
   d="m 252.3,445.1 c -2.6,2.9 -4.6,6.3 -6,10 21.7,27.4 49,67.6 77.9,124.2 0.1,0 -28.4,-65.4 -71.9,-134.2 z"
   id="path2896" />
	<path
   class="st6"
   d="m 278.2,433.9 c -0.4,0 -0.9,0 -1.3,0 -3,0 -5.9,0.4 -8.6,1.2 -1.2,0.3 -2.4,0.7 -3.5,1.2 18.2,33.6 40.4,80.8 61.2,141.7 0,0 -16.7,-69.8 -47.8,-144.1 z"
   id="path2898" />
	<path
   class="st6"
   d="m 330.4,579.8 c 0,0 2.1,-80.9 -2.9,-178.1 -4.3,0.7 -8.4,2.1 -12.1,4 5.7,40.4 11.7,98 15,174.1 z"
   id="path2900" />
	<path
   class="st6"
   d="m 348,577.6 c 28,-31.2 70.9,-62.6 100.6,-82.6 -1,-3.1 -2.5,-6.1 -4.4,-8.7 -53.3,38.6 -96.2,91.3 -96.2,91.3 z"
   id="path2902" />
	<path
   class="st6"
   d="m 321.2,580.2 c 0,0 -43.5,-53.5 -97.4,-92.2 -1.7,2.8 -3,5.9 -3.8,9.1 29.7,20.1 73,51.7 101.2,83.1 z"
   id="path2904" />
	<path
   class="st6"
   d="m 352.2,405 c -3.7,-1.8 -7.8,-3 -12.1,-3.5 -5.1,96.5 -3.6,176.6 -3.6,176.6 3.4,-75.3 9.7,-132.6 15.7,-173.1 z"
   id="path2906" />
	<path
   class="st6"
   d="m 435.1,477.5 c -0.3,-0.2 -0.5,-0.3 -0.8,-0.5 l 0.1,-0.1 c -3.5,-1.6 -6.3,-4.4 -8,-7.8 -51.2,54.8 -81,109.3 -81,109.3 27.4,-42.8 61.9,-77.1 89.7,-100.9 z"
   id="path2908" />
	<path
   class="st6"
   d="m 325.8,574.7 c 0,0 -1.7,-63.2 -25,-155.5 -0.3,0.5 -0.6,0.9 -0.9,1.4 0,0 -0.8,1.3 -1.1,1.9 -0.4,0.8 -0.8,1.7 -1.2,2.6 -1.2,2 -2.8,3.8 -4.6,5.3 13,40.6 26.4,91.8 32.8,144.3 z"
   id="path2910" />
	<path
   class="st6"
   d="m 415.9,444 c -42.9,68.2 -71,132.7 -71,132.7 28.7,-56 55.7,-95.9 77.3,-123.4 -1.6,-3.4 -3.7,-6.6 -6.3,-9.3 z"
   id="path2912" />
	<path
   class="st6"
   d="m 401,435.1 c -2.8,-0.8 -5.6,-1.2 -8.6,-1.2 -0.8,0 -1.6,0 -2.4,0.1 -30.5,73.9 -46.8,143.1 -46.8,143.1 20.5,-60.1 42.5,-107.2 60.6,-141.2 -1,-0.3 -1.9,-0.6 -2.8,-0.8 z"
   id="path2914" />
	<path
   class="st6"
   d="m 371.5,425.1 c -0.4,-0.9 -0.8,-1.7 -1.2,-2.6 -0.2,-0.7 -1.1,-1.9 -1.1,-1.9 -0.5,-0.8 -1,-1.6 -1.6,-2.5 -23.8,93 -27.2,158.1 -27.2,158.1 6.5,-53 20.6,-105.4 34.2,-147.1 -1.1,-1.1 -2.2,-2.5 -3.1,-4 z"
   id="path2916" />
</g>
<path
   class="st4"
   d="m 15.29317,45.21476 c 0.095,-0.47495 0.15831,-0.94989 0.2533,-1.42484 0.63326,-3.35627 2.43805,-5.88931 5.28772,-7.75743 0.56994,-0.34829 1.10821,-0.75991 1.61482,-1.20319 0.82323,-0.79158 1.07654,-1.83646 1.20319,-2.94466 0.63326,-4.97109 4.33783,-8.89731 9.21393,-9.8472 1.17153,-0.22164 2.34306,-0.2533 3.54626,-0.12665 1.83645,0.18998 3.86288,-0.98155 4.65446,-2.65969 1.32984,-2.81801 3.29295,-5.03441 6.11096,-6.45925 1.48816,-0.75991 3.07131,-1.29818 4.74944,-1.4565 0.66493,-0.0633 1.32985,-0.18998 1.99477,-0.15831 5.4777,0.18998 9.65722,2.5647 12.31691,7.47246 0.22164,0.44329 0.44328,0.91823 0.72825,1.29819 1.17153,1.51982 2.72302,2.12142 4.6228,1.93144 3.48292,-0.31663 6.49091,0.8549 8.99229,3.22963 1.80479,1.7098 2.88133,3.79955 3.29295,6.26927 0.095,0.53827 0.15831,1.1082 0.31663,1.64647 0.37995,1.36151 1.29818,2.24808 2.46971,2.94466 2.43805,1.48816 4.14785,3.60958 5.03442,6.3326 0.22164,0.69659 0.34829,1.4565 0.47494,2.18475 0.095,0.44328 0.095,0.91823 0.12665,1.39317 0.0317,1.20319 -0.34829,4.6228 -2.15308,7.47247 -1.74146,3.07131 -6.04763,8.20071 -6.11096,8.23238 -0.15831,-0.15832 1.77313,-4.27451 2.75468,-6.42759 0.8549,-1.89978 1.64648,-3.83122 2.43805,-5.731 0.41162,-0.98156 0.44329,-2.02644 0.3483,-3.03965 -0.22164,-2.50138 -1.23486,-4.6228 -3.07131,-6.30094 -0.47495,-0.41162 -1.01322,-0.79157 -1.51983,-1.1082 -0.69658,-0.44328 -1.39317,-0.94989 -1.9631,-1.55149 -0.82324,-0.91823 -1.23486,-2.02643 -1.42484,-3.19796 -0.22164,-1.29818 -0.50661,-2.59637 -1.1082,-3.79956 -1.7098,-3.35628 -5.50936,-5.41437 -9.27726,-5.03442 -2.75468,0.28497 -5.19273,-0.91822 -6.68089,-3.57792 -0.53827,-0.98155 -1.07654,-1.9631 -1.80479,-2.818 -1.80479,-2.21641 -4.11619,-3.48293 -6.9342,-3.89455 -2.24807,-0.34829 -4.46448,-0.25331 -6.61757,0.63326 -2.78634,1.13987 -4.8761,3.07131 -6.20594,5.82599 -0.88657,1.80479 -2.24808,3.07131 -4.17952,3.64124 -0.88656,0.25331 -1.77313,0.31663 -2.69135,0.25331 -2.72302,-0.18998 -5.2244,0.47494 -7.21917,2.43805 -1.67813,1.61481 -2.78634,3.54625 -3.00798,5.95264 -0.18998,2.08976 -1.23486,3.70457 -2.97632,4.8761 -0.79158,0.53827 -1.61481,1.07655 -2.3114,1.74147 -1.64648,1.48816 -2.53304,3.4196 -2.72302,5.60435 -0.0633,0.63326 0.12665,1.26652 0.22164,1.89978 0.98156,6.55424 5.03442,12.85517 4.46448,12.22191 -2.53303,-2.94465 -4.78111,-6.17428 -6.39592,-9.72054 -0.44328,-0.94988 -0.56993,-1.99476 -0.72825,-3.00798 -0.0317,-0.31663 -0.12665,-0.66492 -0.18998,-0.98155 0.0633,-0.50661 0.0633,-0.88657 0.0633,-1.26652 z"
   id="path2920"
   style="stroke-width:0.31663" />
<path
   class="st5"
   d="m 90.30281,46.57627 c -0.22165,-3.29296 -1.64648,-5.95265 -4.33783,-7.88409 -0.31663,-0.22164 -0.63326,-0.41162 -0.94989,-0.6016 -1.58315,-0.94989 -2.53304,-2.34306 -2.75469,-4.17951 -0.22164,-1.67814 -0.66492,-3.29295 -1.61481,-4.71779 -1.83645,-2.72302 -4.40115,-4.30617 -7.69411,-4.59113 -0.63326,-0.0633 -1.26652,-0.0317 -1.93144,0 -2.62803,0.15831 -4.52781,-0.94989 -5.85765,-3.19796 -0.50661,-0.85491 -0.94989,-1.70981 -1.55149,-2.50138 -1.96311,-2.69136 -4.65446,-4.21118 -7.94741,-4.65446 -2.46972,-0.34829 -4.90777,-0.15832 -7.1875,0.88656 -2.72302,1.23486 -4.81278,3.19796 -6.11096,5.92098 -1.17153,2.43805 -3.32461,3.70457 -6.01597,3.54626 -1.77313,-0.12665 -3.54625,0.0317 -5.19273,0.75991 -2.02643,0.88656 -3.48293,2.37472 -4.65446,4.21118 -0.75991,1.23485 -1.20319,2.5647 -1.32985,3.98954 -0.18997,1.9631 -1.13986,3.45126 -2.818,4.46448 -8.86564,4.36949 -4.0212,14.21668 -3.13464,16.3381 0,0.0317 -0.095,0 -0.12665,-0.0633 -0.75991,-1.42484 -3.00799,-5.06608 -3.03965,-8.32737 -0.095,-7.69411 6.20595,-9.37225 6.77588,-10.03717 0.79158,-0.88656 1.39317,-2.65969 1.51983,-3.79956 0.53827,-5.00275 4.43282,-8.96063 9.43557,-9.53056 0.82324,-0.095 1.67814,-0.095 2.50138,0 1.55148,0.12665 2.88133,-0.34829 4.05286,-1.32985 0.6016,-0.5066 1.07654,-1.1082 1.42483,-1.83645 0.88657,-1.89978 2.12142,-3.54626 3.79956,-4.81278 1.89978,-1.45649 4.05287,-2.27973 6.42759,-2.62802 3.51459,-0.47495 6.71256,0.34829 9.62555,2.31139 1.89978,1.29819 3.22963,3.10298 4.24284,5.16107 1.01322,1.99477 2.65969,3.03965 4.90777,3.13464 0.60159,0.0317 1.23485,-0.095 1.83645,-0.095 4.97109,0 9.43557,3.60958 10.48045,8.45402 0.12665,0.6016 0.15832,1.20319 0.28497,1.77313 0.37996,1.74146 1.48816,2.91299 2.97632,3.86288 2.69136,1.7098 4.43282,4.11619 5.00275,7.28249 0.6016,8.77065 -4.11619,12.53855 -4.65446,13.29846 -0.0317,0.0317 4.0212,-6.17428 3.60959,-10.6071 z"
   id="path2922"
   style="stroke-width:0.31663" />
<path
   class="st4"
   d="m 90.58777,74.81966 c -0.41162,-0.66492 -1.1082,-1.01322 -1.83645,-1.01322 0.0633,-0.15831 0.095,-0.34829 0.095,-0.53827 0,-4.17951 -15.60986,-7.53579 -34.89262,-7.53579 -19.28277,0 -34.89262,3.38794 -34.89262,7.53579 0,0.15832 0.0317,0.34829 0.095,0.53827 -0.98155,0 -1.77312,0.63326 -2.18474,1.83646 0,0.0317 -0.0317,0.0317 -0.0633,0.0633 0,0.22164 0,0.47495 0,0.69659 0.66492,1.74146 1.86812,3.19796 3.00799,4.6228 6.11095,7.6941 13.90005,12.76018 23.39895,15.2299 3.03965,0.79157 6.11096,1.20319 9.24559,1.29818 0.12666,0 0.25331,0.0633 0.37996,0.095 0.66492,0 1.32985,0 1.99477,0 0.75991,-0.0633 1.51982,-0.12665 2.27974,-0.18998 5.47769,-0.37996 10.67042,-1.77313 15.57819,-4.17951 7.34581,-3.57792 13.20347,-8.80232 17.63629,-15.67319 0.22164,-0.34829 0.37995,-0.72825 0.56993,-1.1082 0,-0.25331 0,-0.53827 0,-0.79158 -0.12665,-0.28496 -0.22164,-0.60159 -0.41162,-0.88656 z m -1.83645,-1.01322 c -0.0317,0 -0.095,0 -0.12665,0 0.0317,-0.0317 0.0633,-0.0317 0.12665,0 z m -69.53194,0 c 0.0317,0 0.095,0 0.12665,0 -0.0317,0 -0.095,0 -0.12665,0 z"
   id="path2924"
   style="stroke-width:0.31663" />
<path
   class="st4"
   d="m 86.47158,78.8092 c -16.81305,20.26431 -48.47604,20.04267 -65.00413,0 0.82324,-0.0633 1.61482,-0.095 2.37473,-0.18998 2.21641,-0.28497 4.21118,-1.10821 5.9843,-2.43805 0.28497,-0.22164 0.44329,-0.22164 0.75992,0 3.29295,2.37472 6.93419,3.10297 10.92373,2.24807 0.2533,-0.0633 0.56993,0.0317 0.79157,0.18998 3.35628,2.59636 7.12418,3.83122 11.36702,3.89455 4.52781,0.0633 8.54901,-1.17153 12.12693,-3.95788 0.15831,-0.12665 0.44328,-0.15831 0.63326,-0.12665 3.98953,0.88656 7.66244,0.15832 11.01872,-2.24807 0.12665,-0.095 0.44328,-0.12665 0.53827,-0.0633 2.46971,1.80479 5.19273,2.69136 8.23238,2.65969 0.0633,-0.0317 0.12665,0 0.2533,0.0317 z"
   id="path2926"
   style="stroke-width:0.31663" />
<path
   class="st5"
   d="m 89.35292,74.91465 c -0.41162,-0.63326 -1.07655,-0.98156 -1.77313,-0.98156 0.0633,-0.15831 0.095,-0.34829 0.095,-0.5066 0,-4.0212 -15.10325,-7.28249 -33.68943,-7.28249 -18.61784,0 -33.68943,3.26129 -33.68943,7.28249 0,0.15831 0.0317,0.34829 0.095,0.5066 -0.94989,0 -1.7098,0.63326 -2.08976,1.8048 0,0.0317 -0.0317,0.0317 -0.0633,0.0633 0,0.22164 0,0.44328 0,0.66492 0.66492,1.70981 1.80479,3.07131 2.91299,4.46449 5.88932,7.40914 13.42511,12.34857 22.60738,14.72329 2.913,0.75991 5.88932,1.17153 8.92897,1.23486 0.12665,0 0.2533,0.0633 0.34829,0.0633 0.63326,0 1.29818,0 1.93144,0 0.72825,-0.0633 1.4565,-0.12665 2.18475,-0.15831 5.28772,-0.37996 10.29047,-1.74147 15.03992,-4.05287 7.09251,-3.45126 12.76019,-8.51734 17.03469,-15.13491 0.22164,-0.31663 0.3483,-0.69658 0.53827,-1.04488 0,-0.2533 0,-0.5066 0,-0.75991 -0.12665,-0.31663 -0.22164,-0.6016 -0.41161,-0.88656 z m -1.8048,-0.98156 c -0.0317,0 -0.095,0 -0.12665,0 0.0633,0 0.095,0 0.12665,0 z m -67.15721,0 c 0.0317,0 0.095,0 0.12665,0 -0.0317,0 -0.095,0 -0.12665,0 z m 1.07654,4.87611 c 0.82324,-0.0633 1.61482,-0.095 2.37473,-0.18998 2.21641,-0.28497 4.21118,-1.10821 5.9843,-2.43805 0.28497,-0.22164 0.44329,-0.22164 0.75992,0 0.41161,0.31663 0.8549,0.56993 1.26652,0.82324 0.63326,0.66492 1.29818,1.29818 1.99476,1.89978 2.02644,1.74146 4.24285,3.10297 6.77589,4.33783 -0.28497,-0.53828 -0.53828,-0.91823 -0.72825,-1.29819 -0.56994,-1.04488 -1.07655,-2.12142 -1.55149,-3.19796 1.01322,0 2.05809,-0.095 3.13464,-0.34829 0.2533,-0.0633 0.56993,0.0317 0.79157,0.18998 0.22164,0.18997 0.47495,0.34829 0.69659,0.53827 0.0633,0 0.15831,0 0.2533,0 1.4565,3.51459 3.92621,7.37747 5.88932,8.73898 -1.26652,-2.05809 -2.08976,-4.17951 -2.59637,-6.42759 -0.0317,-0.12665 -0.0633,-0.2533 -0.095,-0.37995 2.24808,0.94989 4.65446,1.42483 7.21917,1.4565 2.94466,0.0317 5.66767,-0.47495 8.20071,-1.58315 0.18998,-0.095 0.3483,-0.18998 0.53827,-0.28497 -0.47494,2.50138 -1.36151,4.90776 -2.69135,7.1875 2.78634,-2.43805 4.84444,-6.01597 6.01597,-9.21393 0.0317,-0.0317 0.0633,-0.0633 0.095,-0.095 0.15831,-0.12665 0.44328,-0.15832 0.63326,-0.12665 1.42483,0.31663 2.78634,0.41162 4.11619,0.31663 -0.63326,1.51982 -1.39318,3.00798 -2.18475,4.46448 0.94989,-0.47495 1.89978,-0.94989 2.78634,-1.48816 2.53304,-1.58315 4.8761,-3.32462 6.64923,-5.63601 0.095,0 0.15832,0 0.22164,0.0317 2.46972,1.80479 5.19273,2.69135 8.26405,2.65969 0.0633,0 0.12665,0.0317 0.28496,0.0317 -16.90804,20.29598 -48.57103,20.07434 -65.09912,0.0317 z"
   id="path2928"
   style="stroke-width:0.31663" />
<path
   class="st4"
   d="m 43.09328,71.11509 c -10.63877,0.69658 -18.17456,2.40639 -18.17456,4.40115 0,0.37996 0.28497,0.72825 0.75991,1.07655 0,0 0,0 0.0317,0 2.27974,0.0317 4.21118,-0.79158 5.79433,-2.43805 0.91823,-0.94989 2.34306,-1.01322 3.22963,-0.095 2.40639,2.46971 5.25606,3.13463 8.51734,2.02643 0.8549,-0.28497 1.61482,-0.095 2.27974,0.50661 0.44328,0.37995 0.88656,0.79157 1.39317,1.13986 2.3114,1.64648 4.90777,2.24808 7.69411,2.18475 3.13464,-0.0633 5.85765,-1.1082 8.16905,-3.19796 0.79158,-0.72825 1.61482,-0.88657 2.62803,-0.53827 3.03965,1.01321 5.731,0.37995 8.07406,-1.83646 1.23486,-1.20319 2.43806,-1.20319 3.64125,0 0.75991,0.75992 1.61481,1.32985 2.59637,1.74147 0.69658,0.28497 1.39317,0.44328 2.08975,0.50661 0.47495,-0.3483 0.72825,-0.69659 0.72825,-1.04488 0,-0.37996 -0.2533,-0.72825 -0.72825,-1.07654 -2.05809,-1.4565 -8.13739,-2.62803 -16.24311,-3.22963"
   id="path2930"
   style="stroke-width:0.31663" />
<path
   class="st4"
   d="m 40.18028,62.9777 c 0.72825,6.83921 6.49092,12.19025 13.55177,12.19025 7.06084,0 12.82351,-5.31938 13.55176,-12.19025 z"
   id="path2932"
   style="stroke-width:0.31663" />
<circle
   class="st4"
   cx="53.732056"
   cy="63.674267"
   r="11.683646"
   id="circle2934"
   style="stroke-width:0.31663" />
<circle
   class="st5"
   cx="53.732056"
   cy="63.705944"
   r="10.258811"
   id="circle2936"
   style="stroke-width:0.31663" />
</svg>
