<?xml version="1.0" encoding="UTF-8" standalone="no"?>
<svg
   xmlns:dc="http://purl.org/dc/elements/1.1/"
   xmlns:cc="http://creativecommons.org/ns#"
   xmlns:rdf="http://www.w3.org/1999/02/22-rdf-syntax-ns#"
   xmlns:svg="http://www.w3.org/2000/svg"
   xmlns="http://www.w3.org/2000/svg"
   xmlns:sodipodi="http://sodipodi.sourceforge.net/DTD/sodipodi-0.dtd"
   xmlns:inkscape="http://www.inkscape.org/namespaces/inkscape"
   version="1.1"
   x="0px"
   y="0px"
   viewBox="0 0 95.513618 51"
   xml:space="preserve"
   id="svg2418"
   sodipodi:docname="HLLibrary.svg"
   inkscape:version="1.0.1 (3bc2e813f5, 2020-09-07)"
   width="95.513618"
   height="51"><title
   id="title2426">Henry Luce III Library</title><metadata
   id="metadata2424"><rdf:RDF><cc:Work
       rdf:about=""><dc:format>image/svg+xml</dc:format><dc:type
         rdf:resource="http://purl.org/dc/dcmitype/StillImage" /><dc:title>Henry Luce III Library</dc:title></cc:Work></rdf:RDF></metadata><defs
   id="defs2422" /><sodipodi:namedview
   pagecolor="#ffffff"
   bordercolor="#666666"
   borderopacity="1"
   objecttolerance="10"
   gridtolerance="10"
   guidetolerance="10"
   inkscape:pageopacity="0"
   inkscape:pageshadow="2"
   inkscape:window-width="1325"
   inkscape:window-height="770"
   id="namedview2420"
   showgrid="false"
   inkscape:zoom="3.0484159"
   inkscape:cx="48.833199"
   inkscape:cy="21.30159"
   inkscape:window-x="0"
   inkscape:window-y="0"
   inkscape:window-maximized="0"
   inkscape:current-layer="svg2418"
   inkscape:document-rotation="0"
   fit-margin-top="0.5"
   fit-margin-left="0.5"
   fit-margin-right="0.5"
   fit-margin-bottom="0.5"
   lock-margins="false" />
<style
   type="text/css"
   id="style2102">
	.st0{display:none;}
	.st1{display:inline;fill:#CCCCCC;}
	.st2{display:inline;}
	.st3{fill:#FFFFFF;}
	.st4{display:inline;fill:#FFFFFF;}
	.st5{fill:url(#SVGID_1_);}
	.st6{fill:url(#SVGID_2_);}
	.st7{fill:url(#SVGID_3_);}
	.st8{fill:url(#SVGID_4_);}
	.st9{fill:#08315C;}
	.st10{fill:#606060;}
	.st11{fill:url(#SVGID_5_);}
	.st12{fill:url(#SVGID_6_);}
	.st13{fill:url(#SVGID_7_);}
	.st14{fill:url(#SVGID_8_);}
	.st15{fill:url(#SVGID_9_);}
	.st16{fill:url(#SVGID_10_);}
	.st17{fill:url(#SVGID_11_);}
	.st18{fill:url(#SVGID_12_);}
</style>
<g
   id="Layer_1"
   class="st0"
   transform="translate(-492.66819,-490.97)">
</g>
<g
   id="Layer_2"
   transform="matrix(0.1039285,0,0,0.1039285,-8.408751,-28.175952)">
	<g
   id="g2299">
		<linearGradient
   id="SVGID_1_"
   gradientUnits="userSpaceOnUse"
   x1="220.2757"
   y1="480.20889"
   x2="858.90887"
   y2="480.20889">
			<stop
   offset="0"
   style="stop-color:#FFF8A5"
   id="stop2105" />
			<stop
   offset="0.032"
   style="stop-color:#FDE67E"
   id="stop2107" />
			<stop
   offset="0.0572"
   style="stop-color:#F0D36F"
   id="stop2109" />
			<stop
   offset="0.1383"
   style="stop-color:#CB9A42"
   id="stop2111" />
			<stop
   offset="0.1986"
   style="stop-color:#B47727"
   id="stop2113" />
			<stop
   offset="0.2309"
   style="stop-color:#AB6A1C"
   id="stop2115" />
			<stop
   offset="0.2782"
   style="stop-color:#B67A29"
   id="stop2117" />
			<stop
   offset="0.371"
   style="stop-color:#D2A44A"
   id="stop2119" />
			<stop
   offset="0.4952"
   style="stop-color:#FDE67E"
   id="stop2121" />
			<stop
   offset="0.5121"
   style="stop-color:#F5DA75"
   id="stop2123" />
			<stop
   offset="0.5871"
   style="stop-color:#D5AA4F"
   id="stop2125" />
			<stop
   offset="0.6533"
   style="stop-color:#BE8834"
   id="stop2127" />
			<stop
   offset="0.7076"
   style="stop-color:#B07323"
   id="stop2129" />
			<stop
   offset="0.7432"
   style="stop-color:#AB6B1D"
   id="stop2131" />
			<stop
   offset="0.7848"
   style="stop-color:#AD6F20"
   id="stop2133" />
			<stop
   offset="0.8235"
   style="stop-color:#B57A29"
   id="stop2135" />
			<stop
   offset="0.861"
   style="stop-color:#C28D38"
   id="stop2137" />
			<stop
   offset="0.8978"
   style="stop-color:#D3A74C"
   id="stop2139" />
			<stop
   offset="0.9337"
   style="stop-color:#EAC967"
   id="stop2141" />
			<stop
   offset="0.9594"
   style="stop-color:#FDE67E"
   id="stop2143" />
			<stop
   offset="0.9811"
   style="stop-color:#FEF093"
   id="stop2145" />
			<stop
   offset="1"
   style="stop-color:#FFF7A0"
   id="stop2147" />
		</linearGradient>
		<polygon
   class="st5"
   points="547.59,430.1 220.28,504.73 223.47,511.13 545.46,442.89 842.92,530.32 858.91,527.12 "
   id="polygon2150"
   style="fill:url(#SVGID_1_)" />
		<linearGradient
   id="SVGID_2_"
   gradientUnits="userSpaceOnUse"
   x1="251.1944"
   y1="392.25021"
   x2="802.40222"
   y2="392.25021">
			<stop
   offset="0"
   style="stop-color:#FFF8A5"
   id="stop2152" />
			<stop
   offset="0.032"
   style="stop-color:#FDE67E"
   id="stop2154" />
			<stop
   offset="0.0572"
   style="stop-color:#F0D36F"
   id="stop2156" />
			<stop
   offset="0.1383"
   style="stop-color:#CB9A42"
   id="stop2158" />
			<stop
   offset="0.1986"
   style="stop-color:#B47727"
   id="stop2160" />
			<stop
   offset="0.2309"
   style="stop-color:#AB6A1C"
   id="stop2162" />
			<stop
   offset="0.2782"
   style="stop-color:#B67A29"
   id="stop2164" />
			<stop
   offset="0.371"
   style="stop-color:#D2A44A"
   id="stop2166" />
			<stop
   offset="0.4952"
   style="stop-color:#FDE67E"
   id="stop2168" />
			<stop
   offset="0.5121"
   style="stop-color:#F5DA75"
   id="stop2170" />
			<stop
   offset="0.5871"
   style="stop-color:#D5AA4F"
   id="stop2172" />
			<stop
   offset="0.6533"
   style="stop-color:#BE8834"
   id="stop2174" />
			<stop
   offset="0.7076"
   style="stop-color:#B07323"
   id="stop2176" />
			<stop
   offset="0.7432"
   style="stop-color:#AB6B1D"
   id="stop2178" />
			<stop
   offset="0.7848"
   style="stop-color:#AD6F20"
   id="stop2180" />
			<stop
   offset="0.8235"
   style="stop-color:#B57A29"
   id="stop2182" />
			<stop
   offset="0.861"
   style="stop-color:#C28D38"
   id="stop2184" />
			<stop
   offset="0.8978"
   style="stop-color:#D3A74C"
   id="stop2186" />
			<stop
   offset="0.9337"
   style="stop-color:#EAC967"
   id="stop2188" />
			<stop
   offset="0.9594"
   style="stop-color:#FDE67E"
   id="stop2190" />
			<stop
   offset="0.9811"
   style="stop-color:#FEF093"
   id="stop2192" />
			<stop
   offset="1"
   style="stop-color:#FFF7A0"
   id="stop2194" />
		</linearGradient>
		<polygon
   class="st6"
   points="788.82,458.82 788.54,458.89 784.28,470.61 802.4,474.88 801.34,455.69 795.91,457.04 792.81,440.76 543.32,309.62 251.19,435.33 269.32,438.63 545.46,330.95 "
   id="polygon2197"
   style="fill:url(#SVGID_2_)" />
		<linearGradient
   id="SVGID_3_"
   gradientUnits="userSpaceOnUse"
   x1="372.00391"
   y1="341.27469"
   x2="672.03101"
   y2="641.30182">
			<stop
   offset="0"
   style="stop-color:#FFF8A5"
   id="stop2199" />
			<stop
   offset="0.032"
   style="stop-color:#FDE67E"
   id="stop2201" />
			<stop
   offset="0.0572"
   style="stop-color:#F0D36F"
   id="stop2203" />
			<stop
   offset="0.1383"
   style="stop-color:#CB9A42"
   id="stop2205" />
			<stop
   offset="0.1986"
   style="stop-color:#B47727"
   id="stop2207" />
			<stop
   offset="0.2309"
   style="stop-color:#AB6A1C"
   id="stop2209" />
			<stop
   offset="0.2782"
   style="stop-color:#B67A29"
   id="stop2211" />
			<stop
   offset="0.371"
   style="stop-color:#D2A44A"
   id="stop2213" />
			<stop
   offset="0.4952"
   style="stop-color:#FDE67E"
   id="stop2215" />
			<stop
   offset="0.5121"
   style="stop-color:#F5DA75"
   id="stop2217" />
			<stop
   offset="0.5871"
   style="stop-color:#D5AA4F"
   id="stop2219" />
			<stop
   offset="0.6533"
   style="stop-color:#BE8834"
   id="stop2221" />
			<stop
   offset="0.7076"
   style="stop-color:#B07323"
   id="stop2223" />
			<stop
   offset="0.7432"
   style="stop-color:#AB6B1D"
   id="stop2225" />
			<stop
   offset="0.7848"
   style="stop-color:#AD6F20"
   id="stop2227" />
			<stop
   offset="0.8235"
   style="stop-color:#B57A29"
   id="stop2229" />
			<stop
   offset="0.861"
   style="stop-color:#C28D38"
   id="stop2231" />
			<stop
   offset="0.8978"
   style="stop-color:#D3A74C"
   id="stop2233" />
			<stop
   offset="0.9337"
   style="stop-color:#EAC967"
   id="stop2235" />
			<stop
   offset="0.9594"
   style="stop-color:#FDE67E"
   id="stop2237" />
			<stop
   offset="0.9811"
   style="stop-color:#FEF093"
   id="stop2239" />
			<stop
   offset="1"
   style="stop-color:#FFF7A0"
   id="stop2241" />
		</linearGradient>
		<polygon
   class="st7"
   points="806.61,506.72 810.93,487.67 546.52,373.59 255.46,457.82 233.07,494.87 546.96,427.31 "
   id="polygon2244"
   style="fill:url(#SVGID_3_)" />
		<linearGradient
   id="SVGID_4_"
   gradientUnits="userSpaceOnUse"
   x1="263.9884"
   y1="525.52087"
   x2="802.40222"
   y2="525.52087">
			<stop
   offset="0"
   style="stop-color:#FFF8A5"
   id="stop2246" />
			<stop
   offset="0.032"
   style="stop-color:#FDE67E"
   id="stop2248" />
			<stop
   offset="0.0572"
   style="stop-color:#F0D36F"
   id="stop2250" />
			<stop
   offset="0.1383"
   style="stop-color:#CB9A42"
   id="stop2252" />
			<stop
   offset="0.1986"
   style="stop-color:#B47727"
   id="stop2254" />
			<stop
   offset="0.2309"
   style="stop-color:#AB6A1C"
   id="stop2256" />
			<stop
   offset="0.2782"
   style="stop-color:#B67A29"
   id="stop2258" />
			<stop
   offset="0.371"
   style="stop-color:#D2A44A"
   id="stop2260" />
			<stop
   offset="0.4952"
   style="stop-color:#FDE67E"
   id="stop2262" />
			<stop
   offset="0.5121"
   style="stop-color:#F5DA75"
   id="stop2264" />
			<stop
   offset="0.5871"
   style="stop-color:#D5AA4F"
   id="stop2266" />
			<stop
   offset="0.6533"
   style="stop-color:#BE8834"
   id="stop2268" />
			<stop
   offset="0.7076"
   style="stop-color:#B07323"
   id="stop2270" />
			<stop
   offset="0.7432"
   style="stop-color:#AB6B1D"
   id="stop2272" />
			<stop
   offset="0.7848"
   style="stop-color:#AD6F20"
   id="stop2274" />
			<stop
   offset="0.8235"
   style="stop-color:#B57A29"
   id="stop2276" />
			<stop
   offset="0.861"
   style="stop-color:#C28D38"
   id="stop2278" />
			<stop
   offset="0.8978"
   style="stop-color:#D3A74C"
   id="stop2280" />
			<stop
   offset="0.9337"
   style="stop-color:#EAC967"
   id="stop2282" />
			<stop
   offset="0.9594"
   style="stop-color:#FDE67E"
   id="stop2284" />
			<stop
   offset="0.9811"
   style="stop-color:#FEF093"
   id="stop2286" />
			<stop
   offset="1"
   style="stop-color:#FFF7A0"
   id="stop2288" />
		</linearGradient>
		<polygon
   class="st8"
   points="540.13,572.97 802.4,561.24 800.27,559.98 800.27,536.72 797.07,535.86 797.07,532.45 543.32,478.08 263.99,522.86 285.31,527.12 545.46,490.87 784.28,542.48 784.28,550.58 546.52,563.37 288.51,545.24 263.99,552.71 "
   id="polygon2291"
   style="fill:url(#SVGID_4_)" />
		<g
   id="g2297">
			<path
   class="st9"
   d="M 813.73,527.27 551.16,462.7 263.47,510.41 v 12.54 C 546.51,483.42 546.52,483.42 546.52,483.42 L 794.98,538 v 19.76 L 545.52,570.48 263.47,552.46 v 16.07 l 287.69,19.37 266.52,-12.91 z"
   id="path2293" />
			<polygon
   class="st9"
   points="249.1,415.17 249.2,415.17 251.19,435.33 546.66,318.28 793.1,456.75 792.92,465.18 545.77,352.54 253.18,453.69 220.21,504.91 547.45,434.59 859.17,526.66 846.04,510.95 548.77,418.38 246.19,490.15 263.86,459.23 545.19,376.6 810.53,488.2 814.55,450.35 814.3,450.23 552.11,275.92 250.66,414.45 249.18,414.98 249.2,415.13 "
   id="polygon2295" />
		</g>
	</g>
	<g
   id="g2415">
		<g
   id="g2339">
			<path
   class="st9"
   d="M 119.1,695.76 V 675.3 H 96.09 v 20.45 H 85.72 v -48.72 h 10.37 v 19.14 h 23.01 v -19.14 h 10.45 v 48.72 H 119.1 Z"
   id="path2301" />
			<path
   class="st9"
   d="m 142.76,695.76 v -48.72 h 34.48 v 9.13 h -24.1 v 10.3 h 23.59 v 9.13 h -23.59 v 11.03 h 24.1 v 9.13 z"
   id="path2303" />
			<path
   class="st9"
   d="m 222.6,695.76 -23.23,-31.77 v 31.77 H 189 v -48.72 h 10.66 l 22.57,30.61 v -30.61 h 10.37 v 48.72 z"
   id="path2305" />
			<path
   class="st9"
   d="m 273.44,695.76 -9.57,-17.31 h -7.6 v 17.31 H 245.9 v -48.72 h 22.79 c 10.15,0 16.36,6.65 16.36,15.7 0,8.62 -5.41,13.22 -10.67,14.46 l 10.96,18.55 h -11.9 z m 1.02,-33.02 c 0,-4.09 -3.14,-6.57 -7.3,-6.57 h -10.88 v 13.15 h 10.88 c 4.16,-0.01 7.3,-2.49 7.3,-6.58 z"
   id="path2307" />
			<path
   class="st9"
   d="m 308.79,695.76 v -19.94 l -18.77,-28.78 h 11.83 l 12.13,19.58 11.98,-19.58 h 11.83 l -18.63,28.78 v 19.94 z"
   id="path2309" />
			<path
   class="st9"
   d="m 368.33,695.76 v -48.72 h 10.37 v 39.59 h 20.6 v 9.13 z"
   id="path2311" />
			<path
   class="st9"
   d="m 408.43,676.33 v -29.29 h 10.52 v 28.93 c 0,6.79 3.94,11.47 11.47,11.47 7.52,0 11.4,-4.67 11.4,-11.47 v -28.93 h 10.59 v 29.22 c 0,12.13 -7.16,20.38 -21.99,20.38 -14.83,-0.01 -21.99,-8.34 -21.99,-20.31 z"
   id="path2313" />
			<path
   class="st9"
   d="m 463.29,671.43 c 0,-14.97 11.32,-25.2 25.93,-25.2 10.74,0 16.95,5.84 20.38,11.91 l -8.91,4.38 c -2.04,-3.94 -6.43,-7.09 -11.47,-7.09 -8.84,0 -15.27,6.79 -15.27,16 0,9.21 6.43,16 15.27,16 5.04,0 9.42,-3.07 11.47,-7.08 l 8.91,4.31 c -3.51,6.06 -9.64,11.98 -20.38,11.98 -14.61,-0.01 -25.93,-10.23 -25.93,-25.21 z"
   id="path2315" />
			<path
   class="st9"
   d="m 519.46,695.76 v -48.72 h 34.48 v 9.13 h -24.1 v 10.3 h 23.59 v 9.13 h -23.59 v 11.03 h 24.1 v 9.13 z"
   id="path2317" />
			<path
   class="st9"
   d="m 588.05,695.76 v -48.72 h 10.37 v 48.72 z"
   id="path2319" />
			<path
   class="st9"
   d="m 611.71,695.76 v -48.72 h 10.37 v 48.72 z"
   id="path2321" />
			<path
   class="st9"
   d="m 635.38,695.76 v -48.72 h 10.37 v 48.72 z"
   id="path2323" />
			<path
   class="st9"
   d="m 681.4,695.76 v -48.72 h 10.37 v 39.59 h 20.6 v 9.13 z"
   id="path2325" />
			<path
   class="st9"
   d="m 723.25,695.76 v -48.72 h 10.37 v 48.72 z"
   id="path2327" />
			<path
   class="st9"
   d="m 746.92,695.76 v -48.72 h 25.64 c 9.28,0 14.02,5.92 14.02,12.42 0,6.14 -3.8,10.23 -8.4,11.18 5.19,0.8 9.35,5.84 9.35,11.98 0,7.3 -4.89,13.15 -14.17,13.15 h -26.44 z m 29.07,-34.48 c 0,-3.07 -2.19,-5.33 -5.7,-5.33 h -13 v 10.59 h 13 c 3.51,0 5.7,-2.19 5.7,-5.26 z m 0.95,19.87 c 0,-3.07 -2.19,-5.7 -6.28,-5.7 h -13.37 v 11.32 h 13.37 c 3.94,0 6.28,-2.12 6.28,-5.62 z"
   id="path2329" />
			<path
   class="st9"
   d="m 826.54,695.76 -9.57,-17.31 h -7.6 v 17.31 H 799 v -48.72 h 22.79 c 10.15,0 16.36,6.65 16.36,15.7 0,8.62 -5.41,13.22 -10.67,14.46 l 10.96,18.55 h -11.9 z m 1.02,-33.02 c 0,-4.09 -3.14,-6.57 -7.3,-6.57 h -10.88 v 13.15 h 10.88 c 4.16,-0.01 7.3,-2.49 7.3,-6.58 z"
   id="path2331" />
			<path
   class="st9"
   d="m 883.22,695.76 -3,-8.25 h -20.89 l -3.07,8.25 h -11.83 l 18.85,-48.72 h 13 l 18.77,48.72 z m -13.44,-38.35 -7.6,20.96 h 15.19 z"
   id="path2333" />
			<path
   class="st9"
   d="m 930.77,695.76 -9.57,-17.31 h -7.6 v 17.31 h -10.37 v -48.72 h 22.79 c 10.15,0 16.36,6.65 16.36,15.7 0,8.62 -5.41,13.22 -10.67,14.46 l 10.96,18.55 h -11.9 z m 1.02,-33.02 c 0,-4.09 -3.14,-6.57 -7.3,-6.57 h -10.88 v 13.15 h 10.88 c 4.16,-0.01 7.3,-2.49 7.3,-6.58 z"
   id="path2335" />
			<path
   class="st9"
   d="m 966.13,695.76 v -19.94 l -18.77,-28.78 h 11.83 l 12.13,19.58 11.98,-19.58 h 11.83 l -18.63,28.78 v 19.94 z"
   id="path2337" />
		</g>
		<g
   id="g2413">
			<path
   class="st9"
   d="m 145.04,731.59 c 0,-9.86 7.26,-16.59 16.5,-16.59 5.67,0 9.62,2.74 12.17,6.35 l -3.37,1.88 c -1.83,-2.69 -5.15,-4.67 -8.8,-4.67 -7.02,0 -12.36,5.39 -12.36,13.03 0,7.6 5.34,13.03 12.36,13.03 3.65,0 6.97,-1.92 8.8,-4.67 l 3.42,1.88 c -2.69,3.66 -6.54,6.35 -12.22,6.35 -9.24,0 -16.5,-6.73 -16.5,-16.59 z"
   id="path2341" />
			<path
   class="st9"
   d="m 177.59,735.97 c 0,-6.73 4.81,-12.17 11.45,-12.17 7.02,0 11.16,5.48 11.16,12.46 v 0.91 h -18.81 c 0.29,4.38 3.37,8.03 8.37,8.03 2.65,0 5.34,-1.06 7.17,-2.93 l 1.73,2.36 c -2.31,2.31 -5.43,3.56 -9.23,3.56 -6.88,-0.01 -11.84,-4.96 -11.84,-12.22 z m 11.4,-9.19 c -4.95,0 -7.41,4.18 -7.6,7.74 h 15.25 c -0.05,-3.46 -2.36,-7.74 -7.65,-7.74 z"
   id="path2343" />
			<path
   class="st9"
   d="m 221.93,747.6 v -15.2 c 0,-4.09 -2.07,-5.39 -5.19,-5.39 -2.84,0 -5.53,1.73 -6.88,3.61 v 16.98 h -3.61 v -23.23 h 3.61 v 3.37 c 1.63,-1.92 4.81,-3.94 8.27,-3.94 4.86,0 7.41,2.45 7.41,7.5 v 16.3 z"
   id="path2345" />
			<path
   class="st9"
   d="m 233.72,742.75 v -15.2 h -3.85 v -3.17 h 3.85 v -6.35 h 3.61 v 6.35 h 4.71 v 3.17 h -4.71 v 14.43 c 0,1.73 0.77,2.98 2.36,2.98 1.01,0 1.97,-0.43 2.45,-0.96 l 1.06,2.69 c -0.91,0.87 -2.21,1.49 -4.33,1.49 -3.42,0 -5.15,-1.97 -5.15,-5.43 z"
   id="path2347" />
			<path
   class="st9"
   d="m 247.37,747.6 v -23.23 h 3.61 v 3.75 c 1.88,-2.45 4.57,-4.23 7.74,-4.23 v 3.7 c -0.43,-0.1 -0.87,-0.14 -1.44,-0.14 -2.21,0 -5.24,1.83 -6.3,3.7 v 16.45 z"
   id="path2349" />
			<path
   class="st9"
   d="m 278.01,747.6 v -2.65 c -1.92,2.12 -4.57,3.22 -7.7,3.22 -3.94,0 -8.13,-2.65 -8.13,-7.7 0,-5.19 4.18,-7.65 8.13,-7.65 3.17,0 5.82,1.01 7.7,3.17 v -4.18 c 0,-3.13 -2.5,-4.91 -5.87,-4.91 -2.79,0 -5.05,1.01 -7.12,3.22 l -1.68,-2.5 c 2.5,-2.6 5.48,-3.85 9.28,-3.85 4.91,0 8.99,2.21 8.99,7.84 v 15.97 h -3.6 z m 0,-4.9 v -4.38 c -1.39,-1.92 -3.85,-2.89 -6.4,-2.89 -3.37,0 -5.72,2.12 -5.72,5.1 0,2.93 2.36,5.05 5.72,5.05 2.55,0 5,-0.96 6.4,-2.88 z"
   id="path2351" />
			<path
   class="st9"
   d="m 289.07,747.6 v -32.08 h 3.61 v 32.08 z"
   id="path2353" />
			<path
   class="st9"
   d="m 312.92,747.6 v -32.08 h 12.89 c 6.44,0 10.05,4.42 10.05,9.67 0,5.25 -3.7,9.67 -10.05,9.67 h -8.9 v 12.75 h -3.99 z m 18.8,-22.41 c 0,-3.61 -2.6,-6.11 -6.4,-6.11 h -8.42 v 12.22 h 8.42 c 3.81,0 6.4,-2.5 6.4,-6.11 z"
   id="path2355" />
			<path
   class="st9"
   d="m 356.97,747.6 v -15.29 c 0,-4.09 -2.12,-5.29 -5.24,-5.29 -2.79,0 -5.48,1.73 -6.88,3.61 v 16.98 h -3.61 v -32.08 h 3.61 v 12.22 c 1.63,-1.92 4.81,-3.94 8.32,-3.94 4.86,0 7.41,2.36 7.41,7.41 v 16.4 h -3.61 z"
   id="path2357" />
			<path
   class="st9"
   d="m 367.41,718.65 c 0,-1.35 1.11,-2.45 2.41,-2.45 1.35,0 2.45,1.11 2.45,2.45 0,1.34 -1.11,2.4 -2.45,2.4 -1.31,0.01 -2.41,-1.05 -2.41,-2.4 z m 0.62,28.95 v -23.23 h 3.61 v 23.23 z"
   id="path2359" />
			<path
   class="st9"
   d="m 379.09,747.6 v -32.08 h 3.61 v 32.08 z"
   id="path2361" />
			<path
   class="st9"
   d="m 389.53,718.65 c 0,-1.35 1.11,-2.45 2.4,-2.45 1.35,0 2.45,1.11 2.45,2.45 0,1.34 -1.11,2.4 -2.45,2.4 -1.3,0.01 -2.4,-1.05 -2.4,-2.4 z m 0.62,28.95 v -23.23 h 3.61 v 23.23 z"
   id="path2363" />
			<path
   class="st9"
   d="m 404.82,744.09 v 12.36 h -3.61 v -32.08 h 3.61 v 3.46 c 1.68,-2.36 4.57,-4.04 7.84,-4.04 6.11,0 10.34,4.62 10.34,12.17 0,7.5 -4.23,12.22 -10.34,12.22 -3.17,0 -5.96,-1.49 -7.84,-4.09 z m 14.38,-8.12 c 0,-5.15 -2.79,-8.95 -7.45,-8.95 -2.84,0 -5.68,1.68 -6.93,3.7 v 10.49 c 1.25,2.02 4.09,3.75 6.93,3.75 4.66,0 7.45,-3.85 7.45,-8.99 z"
   id="path2365" />
			<path
   class="st9"
   d="m 432.57,744.09 v 12.36 h -3.61 v -32.08 h 3.61 v 3.46 c 1.68,-2.36 4.57,-4.04 7.84,-4.04 6.11,0 10.34,4.62 10.34,12.17 0,7.5 -4.23,12.22 -10.34,12.22 -3.18,0 -5.97,-1.49 -7.84,-4.09 z m 14.38,-8.12 c 0,-5.15 -2.79,-8.95 -7.45,-8.95 -2.84,0 -5.68,1.68 -6.93,3.7 v 10.49 c 1.25,2.02 4.09,3.75 6.93,3.75 4.66,0 7.45,-3.85 7.45,-8.99 z"
   id="path2367" />
			<path
   class="st9"
   d="m 456.08,718.65 c 0,-1.35 1.11,-2.45 2.4,-2.45 1.35,0 2.45,1.11 2.45,2.45 0,1.34 -1.11,2.4 -2.45,2.4 -1.29,0.01 -2.4,-1.05 -2.4,-2.4 z m 0.63,28.95 v -23.23 h 3.61 v 23.23 z"
   id="path2369" />
			<path
   class="st9"
   d="m 483.45,747.6 v -15.2 c 0,-4.09 -2.07,-5.39 -5.19,-5.39 -2.84,0 -5.53,1.73 -6.88,3.61 v 16.98 h -3.61 v -23.23 h 3.61 v 3.37 c 1.64,-1.92 4.81,-3.94 8.27,-3.94 4.86,0 7.41,2.45 7.41,7.5 v 16.3 z"
   id="path2371" />
			<path
   class="st9"
   d="m 493.16,735.97 c 0,-6.73 4.81,-12.17 11.45,-12.17 7.02,0 11.16,5.48 11.16,12.46 v 0.91 h -18.81 c 0.29,4.38 3.37,8.03 8.37,8.03 2.65,0 5.34,-1.06 7.17,-2.93 l 1.73,2.36 c -2.31,2.31 -5.43,3.56 -9.23,3.56 -6.88,-0.01 -11.84,-4.96 -11.84,-12.22 z m 11.4,-9.19 c -4.95,0 -7.41,4.18 -7.6,7.74 h 15.25 c -0.05,-3.46 -2.36,-7.74 -7.65,-7.74 z"
   id="path2373" />
			<path
   class="st9"
   d="m 534.62,735.15 v -19.62 h 3.99 v 19.53 c 0,5.87 3.17,9.57 9.09,9.57 5.92,0 9.09,-3.7 9.09,-9.57 v -19.53 h 3.99 v 19.58 c 0,7.98 -4.38,13.08 -13.08,13.08 -8.71,-0.01 -13.08,-5.15 -13.08,-13.04 z"
   id="path2375" />
			<path
   class="st9"
   d="m 584.06,747.6 v -15.2 c 0,-4.09 -2.07,-5.39 -5.19,-5.39 -2.84,0 -5.53,1.73 -6.88,3.61 v 16.98 h -3.61 v -23.23 h 3.61 v 3.37 c 1.63,-1.92 4.81,-3.94 8.27,-3.94 4.86,0 7.41,2.45 7.41,7.5 v 16.3 z"
   id="path2377" />
			<path
   class="st9"
   d="m 594.49,718.65 c 0,-1.35 1.11,-2.45 2.4,-2.45 1.35,0 2.45,1.11 2.45,2.45 0,1.34 -1.11,2.4 -2.45,2.4 -1.29,0.01 -2.4,-1.05 -2.4,-2.4 z m 0.63,28.95 v -23.23 h 3.61 v 23.23 z"
   id="path2379" />
			<path
   class="st9"
   d="m 612.38,747.6 -9.67,-23.23 h 3.9 l 7.74,19.05 7.7,-19.05 h 3.94 l -9.67,23.23 z"
   id="path2381" />
			<path
   class="st9"
   d="m 628.63,735.97 c 0,-6.73 4.81,-12.17 11.45,-12.17 7.02,0 11.16,5.48 11.16,12.46 v 0.91 h -18.8 c 0.29,4.38 3.37,8.03 8.37,8.03 2.65,0 5.34,-1.06 7.17,-2.93 l 1.73,2.36 c -2.31,2.31 -5.43,3.56 -9.23,3.56 -6.89,-0.01 -11.85,-4.96 -11.85,-12.22 z m 11.4,-9.19 c -4.95,0 -7.41,4.18 -7.6,7.74 h 15.25 c -0.05,-3.46 -2.36,-7.74 -7.65,-7.74 z"
   id="path2383" />
			<path
   class="st9"
   d="m 657.3,747.6 v -23.23 h 3.61 v 3.75 c 1.88,-2.45 4.57,-4.23 7.74,-4.23 v 3.7 c -0.43,-0.1 -0.87,-0.14 -1.44,-0.14 -2.21,0 -5.24,1.83 -6.3,3.7 v 16.45 z"
   id="path2385" />
			<path
   class="st9"
   d="m 671.39,744.53 1.88,-2.6 c 1.54,1.78 4.47,3.32 7.65,3.32 3.56,0 5.48,-1.68 5.48,-3.99 0,-5.63 -14.38,-2.16 -14.38,-10.77 0,-3.61 3.13,-6.69 8.66,-6.69 3.94,0 6.73,1.49 8.61,3.37 l -1.68,2.5 c -1.39,-1.68 -3.94,-2.93 -6.93,-2.93 -3.17,0 -5.15,1.59 -5.15,3.66 0,5.1 14.38,1.73 14.38,10.77 0,3.9 -3.13,7.02 -9.14,7.02 -3.8,-0.01 -7.03,-1.16 -9.38,-3.66 z"
   id="path2387" />
			<path
   class="st9"
   d="m 695.38,718.65 c 0,-1.35 1.11,-2.45 2.41,-2.45 1.35,0 2.45,1.11 2.45,2.45 0,1.34 -1.11,2.4 -2.45,2.4 -1.3,0.01 -2.41,-1.05 -2.41,-2.4 z m 0.63,28.95 v -23.23 h 3.61 v 23.23 z"
   id="path2389" />
			<path
   class="st9"
   d="m 707.79,742.75 v -15.2 h -3.85 v -3.17 h 3.85 v -6.35 h 3.61 v 6.35 h 4.71 v 3.17 h -4.71 v 14.43 c 0,1.73 0.77,2.98 2.36,2.98 1.01,0 1.97,-0.43 2.45,-0.96 l 1.06,2.69 c -0.91,0.87 -2.21,1.49 -4.33,1.49 -3.42,0 -5.15,-1.97 -5.15,-5.43 z"
   id="path2391" />
			<path
   class="st9"
   d="m 720.73,753.42 c 0.53,0.24 1.39,0.38 1.97,0.38 1.59,0 2.65,-0.53 3.46,-2.45 l 1.54,-3.51 -9.71,-23.47 h 3.9 l 7.74,19.05 7.7,-19.05 h 3.94 l -11.64,27.94 c -1.39,3.37 -3.75,4.67 -6.83,4.71 -0.77,0 -1.97,-0.14 -2.65,-0.34 z"
   id="path2393" />
			<path
   class="st9"
   d="m 758.05,747.6 v -32.08 h 3.99 v 28.52 h 14.91 v 3.56 z"
   id="path2395" />
			<path
   class="st9"
   d="m 782.04,718.65 c 0,-1.35 1.11,-2.45 2.4,-2.45 1.35,0 2.45,1.11 2.45,2.45 0,1.34 -1.11,2.4 -2.45,2.4 -1.29,0.01 -2.4,-1.05 -2.4,-2.4 z m 0.63,28.95 v -23.23 h 3.61 v 23.23 z"
   id="path2397" />
			<path
   class="st9"
   d="m 793.73,747.6 v -32.08 h 3.61 v 12.36 c 1.88,-2.55 4.67,-4.09 7.84,-4.09 6.06,0 10.34,4.81 10.34,12.22 0,7.55 -4.28,12.17 -10.34,12.17 -3.27,0 -6.11,-1.68 -7.84,-4.04 v 3.46 z m 10.53,-2.64 c 4.71,0 7.5,-3.8 7.5,-8.95 0,-5.15 -2.79,-8.99 -7.5,-8.99 -2.84,0 -5.68,1.73 -6.93,3.75 v 10.53 c 1.26,2.02 4.09,3.66 6.93,3.66 z"
   id="path2399" />
			<path
   class="st9"
   d="m 821.62,747.6 v -23.23 h 3.61 v 3.75 c 1.88,-2.45 4.57,-4.23 7.74,-4.23 v 3.7 c -0.43,-0.1 -0.87,-0.14 -1.44,-0.14 -2.21,0 -5.24,1.83 -6.3,3.7 v 16.45 z"
   id="path2401" />
			<path
   class="st9"
   d="m 852.26,747.6 v -2.65 c -1.92,2.12 -4.57,3.22 -7.7,3.22 -3.94,0 -8.13,-2.65 -8.13,-7.7 0,-5.19 4.18,-7.65 8.13,-7.65 3.17,0 5.82,1.01 7.7,3.17 v -4.18 c 0,-3.13 -2.5,-4.91 -5.87,-4.91 -2.79,0 -5.05,1.01 -7.12,3.22 l -1.68,-2.5 c 2.5,-2.6 5.48,-3.85 9.28,-3.85 4.91,0 8.99,2.21 8.99,7.84 v 15.97 h -3.6 z m 0,-4.9 v -4.38 c -1.39,-1.92 -3.85,-2.89 -6.4,-2.89 -3.37,0 -5.72,2.12 -5.72,5.1 0,2.93 2.36,5.05 5.72,5.05 2.55,0 5,-0.96 6.4,-2.88 z"
   id="path2403" />
			<path
   class="st9"
   d="m 863.32,747.6 v -23.23 h 3.61 v 3.75 c 1.88,-2.45 4.57,-4.23 7.74,-4.23 v 3.7 c -0.43,-0.1 -0.87,-0.14 -1.44,-0.14 -2.21,0 -5.24,1.83 -6.3,3.7 v 16.45 z"
   id="path2405" />
			<path
   class="st9"
   d="m 878.8,718.65 c 0,-1.35 1.11,-2.45 2.41,-2.45 1.35,0 2.45,1.11 2.45,2.45 0,1.34 -1.11,2.4 -2.45,2.4 -1.3,0.01 -2.41,-1.05 -2.41,-2.4 z m 0.63,28.95 v -23.23 h 3.61 v 23.23 z"
   id="path2407" />
			<path
   class="st9"
   d="m 889.14,735.97 c 0,-6.73 4.81,-12.17 11.45,-12.17 7.02,0 11.16,5.48 11.16,12.46 v 0.91 h -18.8 c 0.29,4.38 3.37,8.03 8.37,8.03 2.65,0 5.34,-1.06 7.17,-2.93 l 1.73,2.36 c -2.31,2.31 -5.43,3.56 -9.23,3.56 -6.9,-0.01 -11.85,-4.96 -11.85,-12.22 z m 11.4,-9.19 c -4.95,0 -7.41,4.18 -7.6,7.74 h 15.25 c -0.05,-3.46 -2.36,-7.74 -7.65,-7.74 z"
   id="path2409" />
			<path
   class="st9"
   d="m 915.78,744.53 1.88,-2.6 c 1.54,1.78 4.47,3.32 7.65,3.32 3.56,0 5.48,-1.68 5.48,-3.99 0,-5.63 -14.38,-2.16 -14.38,-10.77 0,-3.61 3.13,-6.69 8.66,-6.69 3.94,0 6.73,1.49 8.61,3.37 l -1.68,2.5 c -1.4,-1.68 -3.94,-2.93 -6.93,-2.93 -3.17,0 -5.15,1.59 -5.15,3.66 0,5.1 14.38,1.73 14.38,10.77 0,3.9 -3.13,7.02 -9.14,7.02 -3.8,-0.01 -7.02,-1.16 -9.38,-3.66 z"
   id="path2411" />
		</g>
	</g>
</g>
</svg>
