<?xml version="1.0" encoding="UTF-8" standalone="no"?>
<svg
   xmlns:dc="http://purl.org/dc/elements/1.1/"
   xmlns:cc="http://creativecommons.org/ns#"
   xmlns:rdf="http://www.w3.org/1999/02/22-rdf-syntax-ns#"
   xmlns:svg="http://www.w3.org/2000/svg"
   xmlns="http://www.w3.org/2000/svg"
   xmlns:sodipodi="http://sodipodi.sourceforge.net/DTD/sodipodi-0.dtd"
   xmlns:inkscape="http://www.inkscape.org/namespaces/inkscape"
   version="1.1"
   x="0px"
   y="0px"
   viewBox="0 0 175.49676 31"
   xml:space="preserve"
   id="svg4206"
   sodipodi:docname="HLLibrary-inline.svg"
   width="175.49677"
   height="31"
   inkscape:version="1.0.1 (3bc2e813f5, 2020-09-07)"><title
   id="title4214">Henry Luce III Library</title><metadata
   id="metadata4212"><rdf:RDF><cc:Work
       rdf:about=""><dc:format>image/svg+xml</dc:format><dc:type
         rdf:resource="http://purl.org/dc/dcmitype/StillImage" /><dc:title>Henry Luce III Library</dc:title></cc:Work></rdf:RDF></metadata><defs
   id="defs4210" /><sodipodi:namedview
   pagecolor="#ffffff"
   bordercolor="#666666"
   borderopacity="1"
   objecttolerance="10"
   gridtolerance="10"
   guidetolerance="10"
   inkscape:pageopacity="0"
   inkscape:pageshadow="2"
   inkscape:window-width="1598"
   inkscape:window-height="765"
   id="namedview4208"
   showgrid="false"
   fit-margin-top="0.5"
   fit-margin-left="0.5"
   fit-margin-right="0.5"
   fit-margin-bottom="0.5"
   inkscape:zoom="0.57157799"
   inkscape:cx="309.00861"
   inkscape:cy="32.944909"
   inkscape:window-x="189"
   inkscape:window-y="92"
   inkscape:window-maximized="0"
   inkscape:current-layer="svg4206"
   inkscape:document-rotation="0" />
<style
   type="text/css"
   id="style3716">
	.st0{display:none;}
	.st1{display:inline;fill:#CCCCCC;}
	.st2{display:inline;}
	.st3{fill:#FFFFFF;}
	.st4{display:inline;fill:#FFFFFF;}
	.st5{fill:url(#SVGID_1_);}
	.st6{fill:url(#SVGID_2_);}
	.st7{fill:url(#SVGID_3_);}
	.st8{fill:url(#SVGID_4_);}
	.st9{fill:#08315C;}
	.st10{fill:#606060;}
	.st11{fill:url(#SVGID_5_);}
	.st12{fill:url(#SVGID_6_);}
	.st13{fill:url(#SVGID_7_);}
	.st14{fill:url(#SVGID_8_);}
	.st15{fill:url(#SVGID_9_);}
	.st16{fill:url(#SVGID_10_);}
	.st17{fill:url(#SVGID_11_);}
	.st18{fill:url(#SVGID_12_);}
</style>
<g
   id="Layer_1"
   class="st0"
   transform="translate(-876.16661,-525.73)">
	<rect
   x="177.91"
   y="-48.490002"
   class="st1"
   width="642"
   height="1080"
   id="rect3718" />
	<g
   class="st2"
   id="g3724">
		<g
   id="g3722">
			<path
   d="m -54.11,640.82 -6.62,74.84 c -0.95,9.8 -9.39,17.16 -19.23,16.77 -13.68,-0.55 -33.23,-1.11 -50.74,-0.81 -14.94,0.26 -17.11,8.62 -15.35,17.19 2.32,11.34 11.82,19.81 23.3,21.26 27.62,3.49 87.68,4.63 132.35,-40.45 36.59,-36.92 63.43,-42 78.77,-40.36 5.22,0.56 8.58,-5.34 5.38,-9.5 -5.7,-7.39 -13.69,-15.94 -23.19,-21.27 -7.67,-4.3 -9.62,-14.46 -3.95,-21.19 L 89.7,609.87 c 3.72,-4.42 1.24,-11.2 -4.45,-12.18 -27.31,-4.7 -93.05,-10.61 -133.14,31.06 -3.16,3.28 -5.78,7.53 -6.22,12.07 z"
   id="path3720" />
		</g>
	</g>
	<g
   class="st2"
   id="g3800">
		<path
   d="m 605.87,257.8 -0.01,-0.2 c -0.11,-2.42 -0.18,-4.98 -0.23,-7.82 -0.21,-13.88 -11.24,-25.37 -25.13,-26.14 -28.95,-1.62 -51.34,-11.05 -70.48,-29.71 l -0.16,-0.16 c -6.24,-5.72 -15.66,-5.72 -21.9,0 l -0.16,0.16 c -19.13,18.65 -41.53,28.09 -70.48,29.71 -13.88,0.77 -24.92,12.26 -25.13,26.14 -0.04,2.83 -0.12,5.39 -0.23,7.82 l -0.01,0.46 c -0.56,29.52 -1.26,66.26 11.03,99.6 6.76,18.34 16.99,34.28 30.42,47.38 15.29,14.92 35.32,26.77 59.53,35.21 0.79,0.27 1.61,0.5 2.44,0.66 1.18,0.23 2.36,0.35 3.54,0.35 1.18,0 2.37,-0.12 3.54,-0.35 0.83,-0.17 1.66,-0.39 2.45,-0.67 24.18,-8.46 44.19,-20.31 59.46,-35.23 13.42,-13.11 23.65,-29.05 30.42,-47.39 12.34,-33.44 11.65,-70.24 11.09,-99.82 z"
   id="path3726" />
		<g
   id="g3736">
			<polygon
   points="375.63,548.3 357.2,539.09 514.99,466.11 652.48,557.52 644.02,566.17 649.75,557.8 514.52,470.53 364.06,539.56 "
   id="polygon3728" />
			<polygon
   points="525.15,551.5 675.99,602.66 643.64,577.08 510.67,515.58 370.36,562.6 321.84,597.02 "
   id="polygon3730" />
			<polygon
   points="640.25,564.48 640.16,568.9 510.57,509.84 375.53,556.67 375.63,546.05 511.04,491.88 "
   id="polygon3732" />
			<polygon
   points="654.55,627.67 516.28,644.46 363.97,624.29 363.97,593.82 514.81,568.81 652.48,602.66 "
   id="polygon3734" />
		</g>
		<g
   id="g3798">
			<path
   class="st3"
   d="m 362.89,728.6 c 0.13,-3.22 2.76,-5.77 5.98,-5.8 17.71,-0.14 73.74,-1.72 132.46,-15.18 57.88,-13.27 112.28,-15.33 130.47,-15.64 3.48,-0.06 6.28,2.82 6.13,6.3 l -1.87,43.01 c -0.15,3.4 -3.08,6.01 -6.48,5.76 -18.03,-1.36 -73.63,-3.3 -143.96,15.91 -57.6,15.73 -103.46,12.79 -118.88,11.1 -3.15,-0.35 -5.49,-3.07 -5.37,-6.24 z"
   id="path3738" />
			<path
   class="st3"
   d="m 364.91,732.86 c 0.13,-3.22 2.76,-5.77 5.98,-5.8 17.71,-0.14 73.74,-1.72 132.46,-15.18 57.88,-13.27 112.28,-15.33 130.47,-15.64 3.48,-0.06 6.28,2.82 6.13,6.3 l -1.87,43.01 c -0.15,3.4 -3.08,6.01 -6.48,5.76 -18.03,-1.36 -73.63,-3.3 -143.96,15.91 -57.6,15.73 -103.46,12.79 -118.88,11.1 -3.15,-0.35 -5.49,-3.07 -5.37,-6.24 z"
   id="path3740" />
			<path
   d="m 621.38,690.9 -0.03,1.28 2.37,0.06 0.03,-1.28 c 1.3,-0.45 2.25,-1.66 2.29,-3.11 0.05,-1.87 -1.43,-3.43 -3.3,-3.48 -1.87,-0.05 -3.43,1.43 -3.48,3.3 -0.03,1.45 0.85,2.71 2.12,3.23 z"
   id="path3742" />
			<path
   d="m 641.42,720.41 -2.25,25.43 c -0.32,3.33 -3.19,5.83 -6.53,5.7 -4.65,-0.19 -11.29,-0.38 -17.24,-0.27 -5.08,0.09 -5.81,2.93 -5.22,5.84 0.79,3.85 4.02,6.73 7.92,7.22 9.38,1.18 29.79,1.57 44.97,-13.74 12.43,-12.55 21.55,-14.27 26.76,-13.71 1.77,0.19 2.92,-1.82 1.83,-3.23 -1.94,-2.51 -4.65,-5.42 -7.88,-7.23 -2.61,-1.46 -3.27,-4.91 -1.34,-7.2 l 7.85,-9.32 c 1.26,-1.5 0.42,-3.8 -1.51,-4.14 -9.28,-1.6 -31.61,-3.6 -45.24,10.55 -1.08,1.11 -1.97,2.56 -2.12,4.1 z"
   id="path3744" />
			<path
   class="st3"
   d="m 619.09,749.78 0.06,-2.08 3.86,0.1 -0.06,2.08 c 2.07,0.84 3.51,2.9 3.45,5.26 -0.08,3.05 -2.62,5.45 -5.66,5.37 -3.04,-0.08 -5.45,-2.62 -5.37,-5.66 0.06,-2.36 1.61,-4.34 3.72,-5.07 z"
   id="path3746" />
			<path
   d="m 619.77,752.14 0.03,-1.28 2.37,0.06 -0.03,1.28 c 1.27,0.51 2.16,1.78 2.12,3.23 -0.05,1.87 -1.61,3.35 -3.48,3.3 -1.87,-0.05 -3.35,-1.61 -3.3,-3.48 0.05,-1.45 1,-2.67 2.29,-3.11 z"
   id="path3748" />
			<path
   d="m 357.83,747.87 0.28,25.53 c 0.07,3.35 2.73,6.06 6.08,6.18 4.65,0.17 11.29,0.49 17.21,1.05 5.51,0.52 5.63,3.91 4.5,6.99 -1.22,3.35 -4.35,5.62 -7.9,5.81 -9.31,0.5 -29.97,-0.54 -44.07,-17.15 -11.99,-14.12 -21.26,-16.1 -26.37,-15.69 -1.49,0.12 -2.39,-1.62 -1.41,-2.75 2.22,-2.57 5.51,-5.73 9.32,-7.4 2.56,-1.12 3.4,-4.35 1.77,-6.62 l -7.67,-10.68 c -0.98,-1.37 -0.12,-3.29 1.56,-3.46 8.97,-0.92 32.13,-1.56 44.91,13.94 0.99,1.2 1.76,2.71 1.79,4.25 z"
   id="path3750" />
			<path
   class="st3"
   d="m 374.45,777.51 0.09,-2.08 3.86,0.17 -0.09,2.08 c 2.06,0.88 3.46,2.96 3.35,5.33 -0.14,3.04 -2.72,5.4 -5.76,5.26 -3.04,-0.14 -5.4,-2.72 -5.26,-5.76 0.1,-2.36 1.68,-4.31 3.81,-5 z"
   id="path3752" />
			<path
   d="m 363.56,730.61 c 0.13,-3.22 2.76,-5.77 5.98,-5.8 17.71,-0.14 73.74,-1.72 132.46,-15.18 57.88,-13.27 112.28,-15.33 130.47,-15.64 3.48,-0.06 6.28,2.82 6.13,6.3 l -1.87,43.01 c -0.15,3.4 -3.08,6.01 -6.48,5.76 -18.03,-1.36 -73.63,-3.3 -143.96,15.91 -57.6,15.73 -103.46,12.79 -118.88,11.1 -3.15,-0.35 -5.49,-3.07 -5.37,-6.24 z"
   id="path3754" />
			<g
   id="g3792">
				<g
   id="g3790">
					<path
   class="st3"
   d="m 370.81,747.4 c 0.17,-3.58 0.2,-4.23 0.19,-4.96 -0.01,-0.78 -0.2,-1.15 -1.02,-1.34 -0.2,-0.05 -0.63,-0.09 -0.86,-0.09 -0.1,0 -0.2,-0.05 -0.2,-0.14 0.01,-0.14 0.13,-0.18 0.41,-0.17 1.14,0.03 2.68,0.13 2.9,0.14 0.23,0 1.75,-0.04 2.5,-0.03 0.28,0 0.4,0.05 0.4,0.19 0,0.09 -0.11,0.14 -0.21,0.14 -0.18,0 -0.33,0.02 -0.64,0.06 -0.68,0.09 -0.91,0.5 -1,1.3 -0.08,0.73 -0.12,1.38 -0.29,4.97 -0.06,1.29 -0.09,1.93 -0.15,3.22 -0.16,3.31 0.58,4.77 1.62,5.73 1.18,1.09 2.32,1.32 3.76,1.34 1.54,0.02 3.11,-0.65 4.05,-1.64 1.23,-1.3 1.62,-3.3 1.73,-5.69 0.06,-1.16 0.08,-1.74 0.14,-2.9 0.17,-3.62 0.2,-4.28 0.19,-5.02 -0.01,-0.79 -0.2,-1.16 -1.02,-1.31 -0.2,-0.04 -0.63,-0.06 -0.86,-0.06 -0.1,0 -0.2,-0.04 -0.2,-0.14 0.01,-0.14 0.13,-0.19 0.41,-0.19 1.14,-0.02 2.52,0.03 2.68,0.02 0.18,0 1.37,-0.1 2.13,-0.12 0.28,-0.01 0.4,0.04 0.4,0.18 0,0.09 -0.11,0.14 -0.21,0.15 -0.18,0 -0.33,0.03 -0.63,0.09 -0.69,0.16 -0.91,0.54 -1,1.35 -0.08,0.74 -0.12,1.4 -0.29,5.03 -0.05,1 -0.07,1.49 -0.12,2.49 -0.12,2.51 -0.55,5.31 -2.65,6.97 -1.89,1.49 -3.8,1.7 -5.29,1.68 -0.86,-0.01 -3.41,-0.16 -5.13,-1.75 -1.19,-1.12 -2.07,-2.76 -1.91,-6.11 0.08,-1.38 0.11,-2.05 0.17,-3.39 z"
   id="path3756" />
					<path
   class="st3"
   d="m 392.46,755.47 c -0.03,1.64 0.15,2.12 0.75,2.24 0.4,0.08 0.9,0.09 1.11,0.08 0.1,0 0.17,0.06 0.17,0.16 -0.01,0.12 -0.16,0.17 -0.41,0.18 -1.26,0.04 -2.14,-0.01 -2.35,0 -0.2,0 -1.14,0.1 -2.15,0.12 -0.23,0 -0.35,-0.02 -0.35,-0.16 0,-0.09 0.08,-0.16 0.18,-0.17 0.18,0 0.59,-0.04 0.92,-0.14 0.55,-0.16 0.66,-0.69 0.75,-2.49 0.21,-4.55 0.32,-6.83 0.54,-11.38 0.04,-0.8 0.17,-1.01 0.35,-1.02 0.25,-0.01 0.61,0.37 0.83,0.58 0.34,0.31 3.42,3.37 6.7,6.49 2.1,2.01 4.36,4.25 5.01,4.87 0.1,-4.02 0.14,-6.03 0.24,-10.06 0.04,-1.3 -0.07,-1.74 -0.75,-1.81 -0.4,-0.04 -0.9,-0.03 -1.08,-0.02 -0.15,0.01 -0.17,-0.11 -0.17,-0.18 0.01,-0.12 0.18,-0.15 0.44,-0.17 1.01,-0.07 2.07,-0.09 2.32,-0.11 0.25,-0.02 0.99,-0.12 1.9,-0.19 0.23,-0.02 0.4,-0.01 0.4,0.11 0,0.07 -0.11,0.2 -0.26,0.21 -0.1,0.01 -0.28,0.02 -0.53,0.09 -0.74,0.2 -0.81,0.6 -0.87,1.81 -0.24,4.72 -0.36,7.08 -0.6,11.79 -0.06,1.32 -0.09,1.44 -0.24,1.45 -0.23,0.01 -0.45,-0.14 -1.64,-1.13 -0.22,-0.18 -3.3,-2.95 -5.53,-5.12 -2.46,-2.39 -4.85,-4.73 -5.5,-5.41 -0.06,3.76 -0.1,5.63 -0.18,9.38 z"
   id="path3758" />
					<path
   class="st3"
   d="m 414.24,751.13 c -0.09,1.95 -0.17,3.55 -0.1,4.38 0.05,0.59 0.11,0.97 0.76,1.01 0.33,0.02 0.8,0.03 1.01,0.01 0.13,-0.01 0.17,0.08 0.17,0.15 0,0.09 -0.11,0.18 -0.36,0.2 -1.24,0.1 -2.67,0.14 -2.78,0.15 -0.13,0.01 -1.52,0.19 -2.2,0.24 -0.23,0.02 -0.35,-0.02 -0.35,-0.14 0,-0.07 0.06,-0.17 0.18,-0.18 0.2,-0.01 0.48,-0.08 0.69,-0.14 0.43,-0.13 0.53,-0.51 0.63,-1.11 0.14,-0.84 0.24,-2.44 0.33,-4.39 0.07,-1.43 0.1,-2.14 0.16,-3.57 0.15,-3.14 0.17,-3.71 0.15,-4.35 -0.02,-0.68 -0.18,-0.98 -0.66,-1.03 -0.25,-0.03 -0.53,-0.03 -0.68,-0.01 -0.1,0.01 -0.17,-0.08 -0.17,-0.15 0,-0.12 0.11,-0.17 0.36,-0.2 0.73,-0.06 2.12,-0.14 2.25,-0.15 0.1,-0.01 1.54,-0.19 2.23,-0.25 0.25,-0.02 0.35,0.01 0.35,0.13 0,0.07 -0.11,0.18 -0.18,0.18 -0.15,0.01 -0.3,0.03 -0.56,0.1 -0.61,0.17 -0.77,0.48 -0.84,1.19 -0.06,0.64 -0.08,1.22 -0.23,4.37 -0.06,1.41 -0.09,2.13 -0.16,3.56 z"
   id="path3760" />
					<path
   class="st3"
   d="m 426.78,753.18 c 1.41,-2.88 4.64,-10.22 5.19,-11.75 0.12,-0.33 0.23,-0.63 0.24,-0.8 0.01,-0.17 -0.06,-0.36 -0.28,-0.4 -0.25,-0.04 -0.5,-0.01 -0.75,0.02 -0.13,0.02 -0.25,-0.04 -0.25,-0.14 0.01,-0.12 0.16,-0.19 0.51,-0.23 0.88,-0.11 1.89,-0.19 2.17,-0.22 0.13,-0.02 1.09,-0.19 1.75,-0.27 0.23,-0.03 0.35,0 0.35,0.1 0,0.1 -0.08,0.2 -0.26,0.23 -0.15,0.02 -0.67,0.08 -1.07,0.38 -0.31,0.23 -0.68,0.57 -1.32,2.04 -0.28,0.61 -1.48,3.22 -2.73,5.86 -1.5,3.15 -2.59,5.47 -3.14,6.54 -0.66,1.29 -0.8,1.62 -1.03,1.64 -0.25,0.03 -0.39,-0.22 -0.78,-1.17 -1.95,-4.79 -2.93,-7.18 -4.88,-11.95 -0.45,-1.1 -0.75,-1.28 -1.47,-1.38 -0.35,-0.04 -0.73,0 -0.86,0.01 -0.13,0.01 -0.17,-0.1 -0.17,-0.17 0.01,-0.12 0.23,-0.17 0.59,-0.2 1.06,-0.11 2.32,-0.19 2.6,-0.22 0.23,-0.02 1.21,-0.18 2.07,-0.27 0.4,-0.04 0.6,-0.02 0.6,0.08 0,0.1 -0.08,0.2 -0.24,0.22 -0.25,0.03 -0.61,0.09 -0.81,0.18 -0.23,0.11 -0.26,0.24 -0.27,0.39 -0.01,0.26 0.24,0.86 0.53,1.64 1.47,3.93 2.22,5.89 3.71,9.84 z"
   id="path3762" />
					<path
   class="st3"
   d="m 438.72,744.88 c 0.15,-3.21 0.17,-3.79 0.15,-4.44 -0.02,-0.7 -0.13,-1.02 -0.86,-1.02 -0.17,0 -0.55,0.03 -0.75,0.05 -0.07,0.01 -0.17,-0.07 -0.17,-0.15 0.01,-0.12 0.11,-0.18 0.36,-0.22 1.01,-0.14 2.45,-0.28 2.58,-0.3 0.15,-0.02 4.8,-0.65 5.31,-0.75 0.43,-0.08 0.85,-0.21 1.02,-0.27 0.1,-0.03 0.21,-0.13 0.31,-0.14 0.08,-0.01 0.1,0.08 0.09,0.18 -0.01,0.15 -0.13,0.42 -0.22,1 -0.03,0.2 -0.13,1.14 -0.19,1.39 -0.03,0.1 -0.11,0.23 -0.21,0.25 -0.13,0.02 -0.17,-0.07 -0.16,-0.24 0.01,-0.15 0,-0.49 -0.09,-0.72 -0.13,-0.32 -0.36,-0.43 -1.56,-0.41 -0.38,0.01 -2.95,0.34 -3.21,0.38 -0.1,0.01 -0.13,0.09 -0.14,0.24 -0.1,2.25 -0.15,3.37 -0.25,5.62 -0.01,0.15 -0.01,0.22 0.12,0.2 0.28,-0.04 3.21,-0.43 3.72,-0.55 0.53,-0.12 0.86,-0.19 1.1,-0.44 0.16,-0.17 0.26,-0.3 0.34,-0.31 0.08,-0.01 0.12,0.03 0.12,0.15 -0.01,0.12 -0.13,0.5 -0.23,1.17 -0.06,0.41 -0.16,1.21 -0.16,1.36 -0.01,0.17 -0.07,0.4 -0.22,0.42 -0.1,0.01 -0.15,-0.05 -0.14,-0.17 0.01,-0.19 0,-0.43 -0.07,-0.67 -0.07,-0.26 -0.26,-0.5 -1.11,-0.48 -0.6,0.01 -2.98,0.3 -3.36,0.35 -0.13,0.02 -0.15,0.09 -0.16,0.17 -0.03,0.69 -0.05,1.04 -0.08,1.73 -0.03,0.71 -0.16,3.12 -0.16,3.53 0,1.36 0.38,1.6 2.58,1.31 0.58,-0.08 1.66,-0.21 2.23,-0.51 0.59,-0.31 0.91,-0.73 1.08,-1.58 0.06,-0.25 0.12,-0.33 0.24,-0.35 0.13,-0.02 0.14,0.15 0.14,0.3 -0.01,0.15 -0.25,1.59 -0.39,2.05 -0.18,0.56 -0.4,0.59 -1.26,0.7 -1.67,0.22 -2.96,0.35 -3.86,0.43 -0.92,0.08 -1.51,0.14 -1.84,0.18 -0.05,0.01 -0.48,0.06 -0.96,0.14 -0.43,0.08 -0.94,0.16 -1.29,0.21 -0.23,0.03 -0.35,-0.01 -0.35,-0.13 0,-0.07 0.06,-0.18 0.18,-0.19 0.2,-0.02 0.49,-0.13 0.69,-0.18 0.42,-0.11 0.51,-0.55 0.63,-1.17 0.17,-0.86 0.24,-2.49 0.33,-4.49 0.03,-1.44 0.06,-2.17 0.13,-3.63 z"
   id="path3764" />
					<path
   class="st3"
   d="m 452.64,742.93 c 0.15,-3.24 0.17,-3.83 0.15,-4.49 -0.02,-0.7 -0.13,-1.03 -0.86,-1.02 -0.18,0 -0.55,0.04 -0.76,0.07 -0.08,0.01 -0.17,-0.07 -0.17,-0.15 0,-0.12 0.11,-0.19 0.36,-0.22 1.01,-0.15 2.5,-0.33 2.63,-0.35 0.23,-0.04 2.1,-0.38 2.78,-0.48 1.41,-0.22 2.98,-0.35 4.1,0.25 0.54,0.31 1.48,1.16 1.41,2.62 -0.07,1.56 -0.79,3.18 -2.94,5.22 1.72,1.94 3.18,3.62 4.41,4.72 1.12,1.01 1.87,1.08 2.41,1.08 0.42,0 0.65,-0.03 0.78,-0.05 0.13,-0.02 0.2,0.07 0.19,0.14 -0.01,0.12 -0.13,0.19 -0.54,0.26 -0.56,0.09 -0.83,0.13 -1.39,0.21 -1.26,0.2 -1.81,0.16 -2.36,-0.06 -0.94,-0.35 -1.7,-1.26 -2.9,-2.63 -0.87,-0.99 -1.81,-2.2 -2.26,-2.7 -0.1,-0.08 -0.15,-0.1 -0.3,-0.08 -1.13,0.15 -1.7,0.23 -2.83,0.38 -0.1,0.02 -0.15,0.07 -0.16,0.19 -0.01,0.2 -0.01,0.3 -0.02,0.49 -0.09,2.02 -0.16,3.64 -0.1,4.49 0.05,0.6 0.16,0.97 0.83,0.98 0.3,0 0.78,-0.02 0.98,-0.04 0.15,-0.02 0.17,0.07 0.17,0.15 0,0.1 -0.11,0.19 -0.36,0.22 -1.21,0.18 -2.62,0.31 -2.72,0.32 -0.03,0 -1.52,0.29 -2.2,0.38 -0.23,0.03 -0.35,0 -0.35,-0.12 0,-0.07 0.06,-0.18 0.18,-0.2 0.2,-0.03 0.48,-0.12 0.69,-0.19 0.43,-0.16 0.51,-0.56 0.63,-1.19 0.17,-0.87 0.24,-2.52 0.33,-4.54 0.09,-1.45 0.13,-2.19 0.19,-3.66 z m 1.84,1.48 c -0.01,0.12 0.04,0.19 0.14,0.25 0.32,0.12 1.45,0.1 2.44,-0.05 0.53,-0.08 1.14,-0.2 1.68,-0.62 0.78,-0.61 1.41,-1.81 1.48,-3.42 0.12,-2.62 -1.28,-3.89 -3.66,-3.52 -0.66,0.1 -1.4,0.27 -1.6,0.37 -0.1,0.05 -0.18,0.15 -0.19,0.27 -0.11,2.69 -0.17,4.04 -0.29,6.72 z"
   id="path3766" />
					<path
   class="st3"
   d="m 467.1,750.16 c -0.3,-0.1 -0.32,-0.17 -0.29,-0.74 0.05,-1.04 0.2,-1.91 0.23,-2.25 0.02,-0.22 0.07,-0.36 0.19,-0.38 0.13,-0.02 0.2,0.04 0.19,0.22 -0.01,0.17 -0.02,0.47 0.04,0.76 0.29,1.48 1.93,1.77 3.42,1.53 2.2,-0.35 3.39,-1.76 3.46,-3.35 0.07,-1.52 -0.74,-2.11 -2.64,-3.23 -0.39,-0.23 -0.59,-0.35 -0.98,-0.58 -2.32,-1.37 -3.05,-2.54 -2.98,-4 0.11,-2.48 2.17,-4.31 5.1,-4.81 0.88,-0.15 1.76,-0.18 2.29,-0.15 0.43,0.03 0.6,0 0.78,-0.03 0.18,-0.03 0.23,-0.01 0.22,0.11 0,0.1 -0.14,0.82 -0.2,2.27 -0.01,0.33 -0.05,0.48 -0.2,0.5 -0.15,0.03 -0.18,-0.07 -0.19,-0.24 -0.02,-0.24 -0.16,-0.8 -0.28,-0.99 -0.13,-0.22 -0.84,-0.9 -2.83,-0.56 -1.62,0.28 -2.99,1.3 -3.06,2.79 -0.06,1.34 0.59,2 2.72,3.11 0.25,0.13 0.37,0.19 0.61,0.32 2.62,1.37 3.49,2.69 3.41,4.52 -0.06,1.25 -0.59,2.68 -2.23,3.96 -0.96,0.75 -2.36,1.12 -3.57,1.31 -1.03,0.14 -2.32,0.19 -3.21,-0.09 z"
   id="path3768" />
					<path
   class="st3"
   d="m 483.99,741.57 c -0.09,2.06 -0.17,3.75 -0.1,4.61 0.05,0.61 0.11,1.01 0.76,1 0.33,0 0.8,-0.03 1.01,-0.07 0.13,-0.02 0.17,0.07 0.17,0.15 0,0.1 -0.11,0.19 -0.36,0.23 -1.24,0.21 -2.67,0.37 -2.78,0.38 -0.13,0.02 -1.52,0.33 -2.2,0.44 -0.23,0.04 -0.35,0.01 -0.35,-0.12 0,-0.08 0.06,-0.18 0.18,-0.2 0.2,-0.03 0.48,-0.13 0.69,-0.21 0.43,-0.17 0.53,-0.59 0.63,-1.22 0.14,-0.89 0.24,-2.58 0.33,-4.64 0.07,-1.51 0.1,-2.26 0.16,-3.76 0.15,-3.31 0.17,-3.92 0.15,-4.59 -0.02,-0.72 -0.18,-1.01 -0.66,-1.03 -0.25,-0.01 -0.53,0.02 -0.68,0.04 -0.1,0.02 -0.17,-0.07 -0.17,-0.14 0.01,-0.13 0.11,-0.19 0.36,-0.24 0.73,-0.13 2.12,-0.32 2.25,-0.35 0.1,-0.02 1.54,-0.32 2.22,-0.44 0.25,-0.04 0.35,-0.01 0.35,0.11 0,0.08 -0.11,0.19 -0.18,0.21 -0.15,0.03 -0.3,0.05 -0.56,0.15 -0.61,0.23 -0.76,0.57 -0.84,1.32 -0.06,0.67 -0.08,1.29 -0.23,4.6 -0.05,1.51 -0.08,2.27 -0.15,3.77 z"
   id="path3770" />
					<path
   class="st3"
   d="m 496.65,739.41 c -0.09,2.08 -0.17,3.78 -0.1,4.65 0.05,0.62 0.14,1 0.81,1 0.3,0 0.8,-0.03 1.01,-0.07 0.15,-0.03 0.17,0.07 0.17,0.15 0,0.1 -0.11,0.19 -0.36,0.24 -1.21,0.2 -2.63,0.36 -2.75,0.39 -0.1,0.02 -1.65,0.35 -2.3,0.46 -0.25,0.04 -0.35,0.01 -0.35,-0.12 0,-0.08 0.06,-0.16 0.18,-0.18 0.2,-0.03 0.46,-0.13 0.66,-0.21 0.45,-0.18 0.61,-0.63 0.71,-1.27 0.14,-0.9 0.21,-2.6 0.3,-4.67 0.16,-3.62 0.24,-5.42 0.39,-9.04 -1.28,0.25 -1.93,0.37 -3.21,0.62 -1.39,0.27 -1.93,0.52 -2.28,1.08 -0.27,0.42 -0.32,0.59 -0.38,0.74 -0.07,0.16 -0.13,0.22 -0.24,0.24 -0.05,0.01 -0.15,-0.02 -0.14,-0.15 0.01,-0.23 0.53,-2.22 0.58,-2.41 0.03,-0.12 0.17,-0.43 0.25,-0.44 0.15,-0.03 0.37,0.11 0.98,0.08 0.63,-0.03 1.49,-0.16 1.74,-0.21 3.36,-0.6 5.03,-0.9 8.39,-1.5 0.73,-0.13 1.24,-0.27 1.6,-0.39 0.33,-0.11 0.53,-0.2 0.64,-0.21 0.1,-0.02 0.1,0.11 0.09,0.24 -0.03,0.66 -0.17,2.23 -0.18,2.48 -0.01,0.18 -0.11,0.3 -0.21,0.32 -0.1,0.02 -0.15,-0.05 -0.16,-0.35 -0.01,-0.09 -0.01,-0.13 -0.02,-0.22 -0.05,-0.65 -0.51,-1.05 -2.63,-0.72 -1.11,0.18 -1.67,0.27 -2.78,0.44 -0.17,3.6 -0.25,5.41 -0.41,9.03 z"
   id="path3772" />
					<path
   class="st3"
   d="m 510.22,737.75 c 0.05,-1.18 -0.08,-1.59 -0.38,-2.14 -0.16,-0.3 -2.97,-4.61 -3.67,-5.63 -0.5,-0.72 -1.01,-1.13 -1.4,-1.32 -0.31,-0.15 -0.74,-0.17 -0.92,-0.14 -0.13,0.02 -0.22,-0.06 -0.22,-0.16 0,-0.1 0.08,-0.17 0.28,-0.2 0.43,-0.08 2.09,-0.32 2.2,-0.34 0.15,-0.03 1.06,-0.24 1.92,-0.39 0.25,-0.04 0.3,0 0.3,0.1 0,0.08 -0.17,0.18 -0.36,0.29 -0.18,0.1 -0.29,0.23 -0.29,0.41 -0.01,0.31 0.13,0.54 0.27,0.79 1.5,2.42 2.25,3.64 3.75,6.08 0.49,-1 3.47,-6.15 3.91,-6.94 0.3,-0.54 0.42,-0.91 0.43,-1.2 0.01,-0.31 -0.09,-0.48 -0.33,-0.5 -0.19,-0.02 -0.32,-0.1 -0.32,-0.2 0,-0.08 0.13,-0.15 0.36,-0.19 0.58,-0.1 1.36,-0.19 1.54,-0.22 0.15,-0.03 1.75,-0.35 2.17,-0.43 0.15,-0.03 0.28,0 0.27,0.08 0,0.1 -0.11,0.25 -0.29,0.28 -0.25,0.04 -0.69,0.2 -1.05,0.46 -0.44,0.33 -0.65,0.6 -1.16,1.27 -0.77,1 -4.12,6.67 -4.62,7.67 -0.41,0.83 -0.34,1.51 -0.37,2.22 -0.03,0.75 -0.05,1.12 -0.08,1.87 -0.02,0.36 -0.05,1.28 -0.02,2.16 0.03,0.63 0.16,1.01 0.81,1.01 0.3,0 0.8,-0.03 1.01,-0.06 0.13,-0.02 0.17,0.07 0.17,0.15 0,0.1 -0.13,0.2 -0.36,0.24 -1.24,0.2 -2.67,0.36 -2.8,0.38 -0.1,0.02 -1.52,0.33 -2.18,0.44 -0.25,0.04 -0.35,0.01 -0.34,-0.12 0,-0.08 0.06,-0.19 0.18,-0.21 0.2,-0.03 0.46,-0.13 0.66,-0.21 0.45,-0.18 0.64,-0.62 0.71,-1.26 0.1,-0.89 0.13,-1.82 0.14,-2.18 0.03,-0.74 0.05,-1.12 0.08,-1.86 z"
   id="path3774" />
					<path
   class="st3"
   d="m 533.24,732.25 c -0.16,3.82 -0.13,5.46 0.3,5.86 0.39,0.35 1.04,0.43 3.01,0.14 1.34,-0.2 2.45,-0.39 3.09,-1.23 0.35,-0.47 0.63,-1.15 0.72,-1.66 0.03,-0.21 0.09,-0.35 0.24,-0.37 0.13,-0.02 0.15,0.08 0.13,0.37 -0.01,0.29 -0.25,1.89 -0.49,2.66 -0.19,0.62 -0.28,0.74 -1.62,0.94 -1.82,0.27 -3.14,0.42 -4.19,0.54 -1.04,0.12 -1.84,0.2 -2.57,0.31 -0.1,0.02 -0.55,0.1 -1.04,0.18 -0.5,0.09 -1.06,0.22 -1.44,0.27 -0.28,0.04 -0.4,0.01 -0.4,-0.14 0,-0.08 0.06,-0.16 0.21,-0.19 0.23,-0.04 0.53,-0.14 0.76,-0.22 0.5,-0.18 0.67,-0.78 0.79,-1.54 0.18,-1.1 0.26,-3.16 0.37,-5.65 0.08,-1.83 0.12,-2.74 0.19,-4.57 0.17,-4.05 0.2,-4.78 0.19,-5.6 -0.01,-0.87 -0.2,-1.26 -1.02,-1.3 -0.2,-0.02 -0.63,0.03 -0.86,0.07 -0.1,0.02 -0.2,-0.02 -0.2,-0.12 0.01,-0.16 0.13,-0.23 0.41,-0.28 1.14,-0.19 2.73,-0.38 2.85,-0.4 0.13,-0.02 1.97,-0.4 2.73,-0.53 0.28,-0.04 0.4,-0.01 0.4,0.14 0,0.1 -0.11,0.17 -0.21,0.19 -0.18,0.03 -0.53,0.11 -0.84,0.21 -0.74,0.25 -0.96,0.73 -1.05,1.64 -0.08,0.84 -0.12,1.57 -0.29,5.62 -0.05,1.89 -0.09,2.81 -0.17,4.66 z"
   id="path3776" />
					<path
   class="st3"
   d="m 547.47,731.2 c -0.09,2.15 -0.17,3.91 -0.1,4.81 0.05,0.64 0.11,1.05 0.76,1.07 0.33,0.01 0.8,0 1.01,-0.03 0.13,-0.02 0.17,0.08 0.17,0.16 0,0.1 -0.11,0.2 -0.36,0.23 -1.24,0.17 -2.67,0.29 -2.78,0.3 -0.13,0.02 -1.52,0.29 -2.2,0.38 -0.23,0.03 -0.35,0 -0.35,-0.13 0,-0.08 0.06,-0.19 0.18,-0.21 0.2,-0.03 0.48,-0.12 0.69,-0.2 0.43,-0.17 0.53,-0.59 0.63,-1.26 0.14,-0.93 0.24,-2.69 0.33,-4.83 0.07,-1.57 0.1,-2.36 0.16,-3.93 0.15,-3.45 0.17,-4.08 0.15,-4.78 -0.02,-0.75 -0.18,-1.07 -0.66,-1.1 -0.25,-0.01 -0.53,0 -0.68,0.02 -0.1,0.01 -0.17,-0.08 -0.17,-0.16 0,-0.13 0.11,-0.2 0.36,-0.24 0.73,-0.11 2.12,-0.27 2.25,-0.28 0.1,-0.02 1.54,-0.28 2.23,-0.38 0.25,-0.04 0.35,0 0.35,0.13 0,0.08 -0.11,0.2 -0.18,0.21 -0.15,0.02 -0.31,0.04 -0.56,0.13 -0.61,0.22 -0.76,0.56 -0.84,1.35 -0.06,0.7 -0.08,1.34 -0.23,4.8 -0.06,1.58 -0.09,2.37 -0.16,3.94 z"
   id="path3778" />
					<path
   class="st3"
   d="m 554.94,726.26 c 0.15,-3.47 0.17,-4.11 0.15,-4.81 -0.02,-0.76 -0.13,-1.16 -0.86,-1.16 -0.18,0 -0.55,0.02 -0.76,0.05 -0.08,0.01 -0.17,-0.03 -0.17,-0.11 0.01,-0.13 0.11,-0.2 0.36,-0.23 1.01,-0.14 2.45,-0.28 2.57,-0.3 0.53,-0.07 1.57,-0.26 2.61,-0.4 3.71,-0.49 4.58,1.65 4.53,2.84 -0.07,1.77 -1.23,3.02 -2.41,4.21 1.67,0.32 3.83,1.67 3.72,4.22 -0.1,2.51 -2,5.19 -5.79,5.65 -0.4,0.05 -1.22,0.11 -1.92,0.15 -0.69,0.05 -1.34,0.11 -1.44,0.13 -0.05,0.01 -0.47,0.07 -0.91,0.14 -0.45,0.07 -0.99,0.18 -1.34,0.22 -0.23,0.03 -0.35,-0.01 -0.35,-0.14 0,-0.08 0.06,-0.14 0.18,-0.15 0.2,-0.03 0.49,-0.14 0.69,-0.19 0.43,-0.12 0.51,-0.64 0.63,-1.31 0.17,-0.93 0.24,-2.7 0.33,-4.86 0.08,-1.58 0.11,-2.37 0.18,-3.95 z m 1.8,2.7 c -0.07,1.74 -0.18,4.43 -0.17,4.77 0.03,1.07 0.03,1.34 0.69,1.59 0.58,0.22 1.53,0.13 1.93,0.08 1.46,-0.18 3.28,-0.96 3.4,-3.85 0.04,-1 -0.26,-2.89 -1.95,-3.84 -0.74,-0.41 -1.45,-0.29 -1.97,-0.33 -0.27,-0.02 -1.39,0.12 -1.74,0.17 -0.08,0.01 -0.13,0.07 -0.13,0.17 -0.03,0.5 -0.04,0.74 -0.06,1.24 z m 0.1,-2.48 c -0.01,0.16 0.04,0.21 0.14,0.22 0.12,0.01 0.53,0.04 1.36,-0.07 1.24,-0.16 1.72,-0.27 2.2,-0.85 0.5,-0.61 0.91,-1.43 0.96,-2.51 0.07,-1.72 -0.76,-3.51 -2.98,-3.22 -0.25,0.03 -0.79,0.13 -1.14,0.26 -0.2,0.08 -0.28,0.14 -0.29,0.27 -0.1,2.36 -0.15,3.54 -0.25,5.9 z"
   id="path3780" />
					<path
   class="st3"
   d="m 569.7,724.47 c 0.15,-3.5 0.17,-4.14 0.15,-4.85 -0.02,-0.76 -0.13,-1.12 -0.86,-1.14 -0.18,-0.01 -0.55,0.01 -0.76,0.03 -0.08,0.01 -0.17,-0.09 -0.17,-0.17 0.01,-0.13 0.11,-0.2 0.36,-0.23 1.01,-0.12 2.5,-0.23 2.63,-0.24 0.23,-0.03 2.1,-0.28 2.78,-0.35 1.41,-0.15 2.98,-0.17 4.1,0.57 0.54,0.37 1.48,1.38 1.41,2.95 -0.07,1.68 -0.79,3.37 -2.94,5.43 1.72,2.23 3.18,4.16 4.41,5.46 1.12,1.19 1.87,1.33 2.41,1.38 0.42,0.04 0.65,0.03 0.78,0.02 0.13,-0.01 0.2,0.09 0.19,0.17 -0.01,0.13 -0.13,0.2 -0.54,0.23 -0.56,0.04 -0.83,0.06 -1.39,0.1 -1.26,0.1 -1.81,0.01 -2.36,-0.27 -0.94,-0.46 -1.7,-1.5 -2.9,-3.07 -0.87,-1.14 -1.81,-2.51 -2.26,-3.08 -0.1,-0.1 -0.15,-0.12 -0.3,-0.1 -1.13,0.09 -1.7,0.14 -2.83,0.23 -0.1,0.01 -0.15,0.07 -0.16,0.2 -0.01,0.21 -0.01,0.32 -0.02,0.53 -0.09,2.18 -0.16,3.93 -0.1,4.85 0.05,0.66 0.16,1.06 0.83,1.11 0.3,0.02 0.78,0.03 0.98,0.01 0.15,-0.01 0.17,0.09 0.17,0.17 0,0.11 -0.11,0.2 -0.36,0.22 -1.21,0.11 -2.62,0.18 -2.72,0.19 -0.03,0 -1.52,0.23 -2.2,0.31 -0.23,0.02 -0.35,-0.02 -0.35,-0.15 0,-0.08 0.06,-0.19 0.18,-0.2 0.2,-0.02 0.48,-0.11 0.69,-0.18 0.43,-0.15 0.51,-0.58 0.63,-1.25 0.17,-0.93 0.24,-2.72 0.33,-4.9 0.09,-1.59 0.12,-2.39 0.19,-3.98 z m 1.84,1.71 c -0.01,0.13 0.04,0.21 0.14,0.28 0.32,0.15 1.45,0.2 2.44,0.1 0.53,-0.05 1.14,-0.14 1.68,-0.56 0.78,-0.61 1.41,-1.86 1.48,-3.59 0.12,-2.83 -1.28,-4.31 -3.66,-4.06 -0.66,0.07 -1.4,0.21 -1.6,0.3 -0.1,0.05 -0.18,0.15 -0.19,0.29 -0.11,2.89 -0.17,4.34 -0.29,7.24 z"
   id="path3782" />
					<path
   class="st3"
   d="m 590.45,716.52 c 0.31,-0.77 0.42,-0.91 0.57,-0.92 0.23,-0.02 0.29,0.3 0.5,0.8 0.36,0.94 3.54,10.17 4.76,13.59 0.72,2.01 1.32,2.28 1.79,2.42 0.32,0.1 0.65,0.11 0.88,0.1 0.13,0 0.28,0.04 0.27,0.18 -0.01,0.14 -0.26,0.2 -0.51,0.21 -0.33,0.01 -1.99,0.1 -3.51,0.1 -0.42,0 -0.78,0.01 -0.78,-0.12 0,-0.11 0.06,-0.12 0.16,-0.17 0.12,-0.06 0.36,-0.26 0.23,-0.63 -0.71,-2.06 -1.07,-3.09 -1.78,-5.14 -0.05,-0.1 -0.07,-0.13 -0.2,-0.12 -2.05,0.12 -3.08,0.18 -5.13,0.32 -0.1,0.01 -0.18,0.07 -0.23,0.2 -0.57,1.49 -0.85,2.24 -1.41,3.73 -0.22,0.58 -0.37,1.15 -0.39,1.55 -0.02,0.45 0.35,0.59 0.73,0.56 0.08,-0.01 0.12,-0.01 0.2,-0.01 0.18,-0.01 0.22,0.07 0.22,0.17 -0.01,0.13 -0.13,0.2 -0.34,0.21 -0.53,0.04 -1.74,0.04 -1.99,0.06 -0.23,0.02 -1.34,0.18 -2.25,0.25 -0.28,0.02 -0.43,-0.02 -0.42,-0.15 0,-0.11 0.11,-0.2 0.21,-0.2 0.15,-0.01 0.48,-0.06 0.66,-0.1 1.02,-0.21 1.48,-1.04 1.96,-2.23 2.31,-5.87 3.47,-8.8 5.8,-14.66 z m 2.08,9.35 c 0.1,-0.01 0.1,-0.06 0.08,-0.17 -0.78,-2.46 -1.17,-3.68 -1.94,-6.13 -0.11,-0.34 -0.24,-0.33 -0.38,0.03 -0.93,2.56 -1.4,3.84 -2.33,6.4 -0.03,0.11 -0.01,0.16 0.07,0.16 1.8,-0.12 2.7,-0.18 4.5,-0.29 z"
   id="path3784" />
					<path
   class="st3"
   d="m 602.58,722.04 c 0.15,-3.57 0.17,-4.22 0.15,-4.95 -0.02,-0.78 -0.13,-1.16 -0.86,-1.23 -0.18,-0.02 -0.55,-0.03 -0.75,-0.02 -0.08,0 -0.17,-0.1 -0.17,-0.18 0.01,-0.14 0.11,-0.19 0.36,-0.2 1.01,-0.04 2.5,-0.04 2.63,-0.05 0.23,-0.01 2.1,-0.12 2.78,-0.14 1.42,-0.04 2.98,0.06 4.1,0.91 0.54,0.43 1.48,1.53 1.41,3.13 -0.07,1.71 -0.79,3.37 -2.94,5.3 1.72,2.42 3.18,4.51 4.41,5.95 1.12,1.31 1.87,1.52 2.41,1.62 0.42,0.08 0.65,0.09 0.78,0.09 0.13,0 0.2,0.11 0.19,0.19 -0.01,0.14 -0.13,0.19 -0.54,0.18 -0.56,-0.01 -0.83,-0.01 -1.39,-0.01 -1.26,-0.01 -1.81,-0.15 -2.36,-0.47 -0.94,-0.54 -1.7,-1.68 -2.9,-3.38 -0.87,-1.24 -1.81,-2.71 -2.26,-3.33 -0.1,-0.11 -0.15,-0.13 -0.3,-0.13 -1.13,0 -1.7,0 -2.83,0.01 -0.1,0 -0.15,0.06 -0.16,0.19 -0.01,0.22 -0.01,0.32 -0.02,0.54 -0.09,2.22 -0.16,4.01 -0.1,4.95 0.05,0.67 0.17,1.1 0.83,1.2 0.3,0.04 0.78,0.09 0.98,0.09 0.15,0 0.17,0.11 0.17,0.19 0,0.11 -0.11,0.19 -0.36,0.2 -1.21,0.02 -2.62,-0.02 -2.73,-0.02 -0.03,0 -1.52,0.12 -2.2,0.15 -0.23,0.01 -0.35,-0.04 -0.35,-0.18 0,-0.08 0.06,-0.19 0.18,-0.2 0.2,-0.01 0.48,-0.07 0.69,-0.13 0.43,-0.12 0.51,-0.56 0.63,-1.23 0.17,-0.94 0.24,-2.76 0.33,-4.98 0.09,-1.63 0.12,-2.44 0.19,-4.06 z m 1.84,1.89 c 0,0.14 0.04,0.22 0.14,0.29 0.32,0.18 1.45,0.31 2.44,0.29 0.53,-0.01 1.14,-0.05 1.68,-0.44 0.78,-0.56 1.41,-1.78 1.48,-3.55 0.12,-2.88 -1.28,-4.51 -3.66,-4.45 -0.66,0.02 -1.4,0.11 -1.6,0.18 -0.1,0.04 -0.18,0.14 -0.19,0.28 -0.11,2.96 -0.17,4.44 -0.29,7.4 z"
   id="path3786" />
					<path
   class="st3"
   d="m 621.44,726.7 c 0.05,-1.26 -0.08,-1.72 -0.38,-2.39 -0.16,-0.36 -2.97,-5.56 -3.67,-6.79 -0.5,-0.87 -1.01,-1.41 -1.4,-1.69 -0.31,-0.22 -0.74,-0.33 -0.92,-0.33 -0.13,0 -0.22,-0.11 -0.22,-0.22 0,-0.11 0.08,-0.16 0.28,-0.16 0.43,0 2.09,0.05 2.2,0.05 0.15,0 1.06,-0.05 1.92,-0.04 0.25,0 0.3,0.06 0.3,0.17 0,0.08 -0.17,0.16 -0.36,0.24 -0.18,0.07 -0.29,0.19 -0.29,0.38 -0.01,0.33 0.13,0.6 0.27,0.9 1.5,2.91 2.25,4.37 3.75,7.31 0.49,-0.97 3.47,-5.87 3.91,-6.62 0.3,-0.51 0.42,-0.89 0.43,-1.19 0.01,-0.33 -0.09,-0.53 -0.33,-0.61 -0.19,-0.06 -0.32,-0.18 -0.32,-0.28 0,-0.08 0.13,-0.13 0.36,-0.13 0.58,0.02 1.36,0.1 1.54,0.11 0.15,0.01 1.75,0.02 2.17,0.04 0.15,0.01 0.28,0.07 0.27,0.15 0,0.11 -0.11,0.24 -0.29,0.23 -0.25,-0.01 -0.69,0.05 -1.05,0.26 -0.44,0.25 -0.65,0.49 -1.16,1.11 -0.77,0.9 -4.12,6.27 -4.62,7.24 -0.41,0.81 -0.34,1.55 -0.37,2.31 -0.03,0.8 -0.05,1.2 -0.08,2 -0.02,0.38 -0.05,1.37 -0.02,2.32 0.03,0.68 0.16,1.12 0.81,1.26 0.3,0.06 0.8,0.14 1.01,0.15 0.13,0.01 0.17,0.12 0.17,0.2 0,0.11 -0.13,0.19 -0.36,0.18 -1.24,-0.05 -2.67,-0.17 -2.8,-0.18 -0.1,0 -1.52,0.04 -2.18,0.03 -0.25,-0.01 -0.35,-0.06 -0.35,-0.2 0,-0.08 0.06,-0.19 0.18,-0.19 0.2,0 0.46,-0.05 0.66,-0.09 0.45,-0.1 0.64,-0.54 0.71,-1.21 0.1,-0.94 0.13,-1.94 0.14,-2.32 0.04,-0.81 0.06,-1.21 0.09,-2 z"
   id="path3788" />
				</g>
			</g>
			<path
   d="m 377.69,721.14 -0.06,1.28 2.37,0.11 0.06,-1.28 c 1.31,-0.42 2.28,-1.62 2.34,-3.07 0.08,-1.87 -1.36,-3.45 -3.23,-3.54 -1.87,-0.09 -3.45,1.36 -3.54,3.23 -0.06,1.45 0.8,2.73 2.06,3.27 z"
   id="path3794" />
			<path
   d="m 375.09,779.88 0.06,-1.28 2.37,0.11 -0.06,1.28 c 1.26,0.54 2.12,1.82 2.06,3.27 -0.08,1.87 -1.67,3.32 -3.54,3.23 -1.87,-0.08 -3.32,-1.67 -3.23,-3.54 0.06,-1.46 1.03,-2.65 2.34,-3.07 z"
   id="path3796" />
		</g>
	</g>
	<g
   class="st2"
   id="g3812">
		<path
   d="m 1492.2,264.08 -374.53,62.11 c -1.77,95.18 -2.69,211.54 36.35,317.46 22.17,60.15 55.74,112.44 99.78,155.42 50.16,48.95 115.85,87.81 195.26,115.49 2.58,0.9 5.27,1.63 8,2.18 3.86,0.77 7.74,1.15 11.62,1.15 3.88,0 7.77,-0.39 11.62,-1.15 2.73,-0.55 5.44,-1.28 8.03,-2.19 79.31,-27.74 144.94,-66.61 195.05,-115.55 44.02,-42.99 77.59,-95.29 99.78,-155.45 36.58,-99.16 38.22,-207.33 36.84,-298.85 z"
   id="path3802" />
		<g
   id="g3810">
			<polygon
   points="1180.85,217.88 1141.44,198.18 1478.87,42.13 1772.86,237.59 1754.76,256.09 1767.02,238.19 1477.86,51.58 1156.12,199.18 "
   id="polygon3804" />
			<polygon
   points="1500.58,224.72 1823.13,334.11 1753.95,279.42 1469.62,147.9 1169.59,248.45 1065.83,322.05 "
   id="polygon3806" />
			<polygon
   points="1746.71,252.47 1746.51,261.92 1469.41,135.64 1180.65,235.78 1180.85,213.06 1470.42,97.23 "
   id="polygon3808" />
		</g>
	</g>
	<g
   class="st2"
   id="g3822">
		<g
   id="g3820">
			<path
   class="st3"
   d="m 1327.15,380.93 c 3.43,11.72 -0.05,33.35 -1,49.93 -0.19,3.35 0.41,11.84 -1.04,13.57 -0.49,0.58 -3.03,0.64 -3.88,0.55 -0.73,-0.08 -1.74,-0.39 -3.04,-0.96 -3.33,-19.68 -8.38,-41 -20.7,-56.82 -9.41,-12.09 -24.89,-18.62 -40.11,-18.73 -8.66,-0.06 -16.15,1.46 -22.37,4.23 -10.9,5.69 -20.52,11.37 -29.25,19.15 -8.04,7.18 -15.74,15.96 -21.69,25.62 -6.41,10.41 -11.18,21.95 -14.52,33.75 -3.79,13.4 -5.92,27.29 -6.67,41.2 -1.46,27.02 0.17,54.25 4.76,80.94 4.45,25.84 10.93,51.95 21.75,75.62 8.85,19.34 19.05,38.97 34.61,54.18 3.16,2.93 4.76,4.36 8,7.18 9.31,6.46 16.01,9.76 19.64,10.73 9.1,2.76 16.98,2.96 23.38,1.03 6.39,-1.93 12.91,-6.7 19.51,-14.34 7.84,-9.09 12.69,-19.98 17.52,-30.84 0.97,-0.12 1.45,-0.18 2.42,-0.3 0.65,0.27 1.59,1.3 2.82,3.1 -0.44,5.05 -0.77,8.29 -0.99,9.72 -5.19,22.48 -10.31,45.02 -16.63,67.21 -2.16,-0.32 -4.87,-0.55 -8.11,-0.73 -22.9,-1.3 -43.13,-16.83 -58.72,-31.19 -14.34,-13.21 -27.82,-29.16 -37.74,-46.67 -8.79,-15.52 -16.18,-32.06 -23.02,-48.5 -7.63,-18.33 -13.93,-37.56 -19.09,-56.75 -4.88,-18.12 -9.19,-36.63 -12.37,-55.06 -2.71,-15.72 -5.31,-32.05 -5.02,-47.81 0.2,-10.94 0.81,-22.61 4.98,-33.12 4.02,-10.13 10.67,-19.11 17.29,-27.47 8.35,-10.56 18.91,-19.91 30.02,-27.88 11.95,-8.57 25.26,-15.81 39.11,-20.14 13.39,-4.18 28.37,-5.59 41.83,-5.68 13.36,-0.09 24.6,1.93 36.26,7.68 7.72,3.78 20.09,10.86 22.06,17.6 z"
   id="path3814" />
			<path
   class="st3"
   d="m 1356.6,363.92 c 0.9,-0.89 3.54,-1.08 4.14,-1.09 4.03,-0.11 10.86,0.39 19.85,0.78 4.73,0.2 8.18,0.1 9.96,0.05 2.61,-0.08 8.15,-0.69 16.6,-1.9 10.12,-1.48 20.23,-3.01 30.33,-4.58 7.96,-1.71 17.24,-2.84 27.76,-3.24 15.64,-0.59 33,3.25 44.93,13.81 13.48,11.93 22.44,30.64 27.73,47.59 6.59,21.12 11.12,42.93 12.21,65.21 1.62,33.08 -2.83,68.23 -17.4,97.27 -11.5,22.92 -30,43.73 -58.51,43.84 -7.04,0.03 -12.96,-1.3 -17.69,-3.9 -4.74,-2.6 -10.13,-7.56 -16.11,-14.9 -2.53,-3.17 -4.03,-6.42 -4.53,-9.73 0.55,-1.6 1.49,-3.18 2.23,-3.39 1.22,-0.35 3.79,0.89 5.79,2.38 4.52,3.01 10.39,4.51 17.25,4.72 12.05,0.36 22.12,-6.84 29.81,-14.17 10.27,-9.79 16.81,-25.83 20.18,-40.41 4.06,-17.56 5.98,-36.17 5.45,-54.15 -0.52,-17.75 -3.32,-36.3 -8.6,-53.03 -4.49,-14.22 -10.02,-28.37 -19.22,-40.67 -4.33,-5.71 -10.88,-10.41 -19.61,-14.08 -8.73,-3.68 -15.5,-5.39 -20.23,-5.29 -8.99,0.2 -19.46,0.69 -26.47,7.05 -0.11,1.95 -0.16,2.92 -0.27,4.87 -0.06,13.09 -0.11,26.19 -0.16,39.28 -0.12,2.78 -0.19,4.17 -0.31,6.95 -0.53,9.61 -0.71,19.25 -0.89,28.85 -0.57,29.33 -1.63,58.96 -0.43,88.36 -0.14,7.79 -0.21,11.69 -0.34,19.48 -0.07,53.11 -0.08,106.23 -0.03,159.34 -0.04,2.32 -0.29,6.6 -0.74,12.81 -0.46,6.21 -0.73,11.64 -0.81,16.28 -0.19,11.14 -0.68,22.8 1.31,25.69 3.77,5.46 20.17,10.73 30.54,15.24 7.92,3.7 12.27,5.64 13.01,6.13 1.16,0.77 2.22,2.34 3.11,4.73 -0.58,3.51 -1.34,5.78 -2.3,6.79 -0.96,1.02 -2.85,1.46 -5.66,1.28 -1.78,-0.11 -5.96,-1.01 -12.42,-2.74 -9.77,-2.62 -19.74,-5.35 -29.76,-7.21 -12.9,-1.47 -25.73,-3.63 -38.4,-6.49 -9.04,-3.03 -13.53,-4.68 -22.41,-8.27 -1.41,-0.51 -5.53,-1.73 -12.25,-3.96 0.08,-3.47 0.12,-5.21 0.2,-8.68 11.02,0.96 16.59,1.18 27.79,1.12 4.62,-0.66 7.47,-1.96 8.53,-3.73 1.53,-2.79 2.44,-8.86 2.74,-18.18 0.07,-2.04 0.25,-6.48 0.64,-13.24 0.27,-4.72 0.58,-11.32 0.85,-19.73 1.82,-57.22 2.45,-114.6 3.57,-171.77 0.82,-41.5 2.02,-83.1 3.39,-124.64 0.08,-2.32 0.12,-3.47 0.19,-5.79 0.44,-9.74 1.26,-21.78 -2.94,-30.95 -7.01,-10.63 -20.74,-14.85 -32.43,-17.83 -0.47,-2.39 -0.67,-4.35 -0.59,-5.88 0.12,-1.78 0.43,-5.31 1.42,-6.28 z"
   id="path3816" />
			<path
   class="st3"
   d="m 1658.18,348.62 c 0.88,3.45 1.4,6.09 1.55,7.93 0.1,1.23 0.08,3.08 -0.07,5.56 -2.97,1.66 -5.4,2.57 -7.3,2.71 -0.83,0.06 -2.24,0.01 -4.23,-0.16 -1.99,-0.17 -3.58,-0.21 -4.76,-0.13 -5.47,0.39 -9.66,2.61 -12.58,6.72 -1.96,2.53 -3.04,5.77 -3.22,9.69 0.34,12.39 0.68,24.78 1.01,37.17 4.23,53.5 8.47,107 12.71,160.49 2.84,35.73 2.86,74.54 11.72,108.14 2.64,10 5.98,21.19 13.39,29.36 5.64,6.22 13.8,8.92 23.66,7.8 9.49,-1.08 20.73,-7.32 27.39,-13.88 16.09,-15.87 29.72,-35.82 38.36,-57.13 7.32,-18.05 12.47,-37.38 15.22,-56.68 3.18,-22.32 2.93,-45.06 1.85,-67.43 -0.04,-0.76 -0.5,-6.75 -1.41,-18.03 -0.14,-2.67 -0.22,-4.01 -0.36,-6.68 -0.13,-2.46 -0.3,-7.34 -0.48,-14.62 -0.19,-7.28 -0.31,-11.52 -0.37,-12.75 -1.95,-21.72 -3.93,-43.43 -5.96,-65.14 -1.24,-12.95 -1.47,-27.23 -5.04,-39.27 -1.13,-3.79 -3.1,-6.77 -5.31,-8.6 -7.6,-5.78 -17.9,-7.79 -26.84,-10.13 -0.78,-2.39 -1.33,-4.91 -1.65,-7.52 4.56,-0.91 9.09,-1.44 13.59,-1.63 4.73,-0.2 9.75,-0.18 14.95,0.09 7.81,0.41 12.11,0.61 12.82,0.58 9.3,-0.83 18.6,-1.6 27.91,-2.31 2.19,-0.01 3.29,-0.02 5.48,-0.03 -0.07,2.79 -0.11,4.18 -0.17,6.97 -14.28,3.21 -22.69,6.81 -25.33,10.28 -2.64,3.47 -3.77,9.66 -3.33,18.27 0.51,9.96 1.3,19.99 2.05,29.98 1.07,15.18 2.12,30.36 3.16,45.54 0.26,7.31 0.39,10.97 0.66,18.3 0.59,9.11 0.88,13.66 1.45,22.73 0.83,20.28 2.06,40.87 1.18,60.99 -0.63,14.5 -1.71,29.24 -3.96,43.7 -2.17,13.9 -5.57,27.6 -9.38,41.08 -4.64,16.4 -11.22,32.82 -19.03,47.74 -7.51,14.35 -15.98,28.99 -27.59,40.32 -9.84,9.6 -21.69,20.92 -35.88,24.28 -12.71,2.66 -26.22,0.28 -36.49,-7.88 -9.37,-7.44 -16.67,-17.35 -20.94,-28.51 -8.4,-21.96 -9.92,-46.55 -11.71,-69.77 -0.62,-9.27 -0.92,-13.9 -1.54,-23.17 -2.27,-31.29 -4.54,-62.59 -6.8,-93.89 -1.49,-25.33 -2.98,-50.67 -4.47,-76 -1.13,-17.01 -2.26,-34.02 -3.39,-51.04 -0.86,-12.98 -2.43,-21.96 -4.68,-26.99 -1.55,-3.5 -3.58,-5.18 -6.09,-5.01 -4.23,0.41 -6.34,0.61 -10.57,1.02 -7.9,0.5 -13.02,-0.81 -15.35,-3.91 -0.47,-2.05 -0.74,-3.89 -0.83,-5.5 -0.11,-2.07 0.17,-3.7 0.82,-4.89 1.21,-1.9 2.77,-2.9 4.67,-2.99 1.86,-0.09 2.78,-0.13 4.64,-0.22 4.77,-0.37 7.16,-0.55 11.93,-0.92 9.39,-0.45 18.79,-0.91 28.18,-1.37 15.56,-1.13 31.16,-2.22 46.76,-3.26 z"
   id="path3818" />
		</g>
	</g>
	<g
   class="st2"
   id="g3892">
		<path
   class="st3"
   d="m 1086.48,581.79 c 0.36,-9.24 7.91,-16.57 17.16,-16.64 50.8,-0.4 211.59,-4.92 380.04,-43.56 166.08,-38.09 322.17,-43.99 374.35,-44.87 9.97,-0.17 18.02,8.1 17.58,18.07 l -5.37,123.42 c -0.43,9.77 -8.84,17.25 -18.59,16.52 -51.73,-3.89 -211.27,-9.46 -413.05,45.66 -165.26,45.14 -296.86,36.71 -341.1,31.84 -9.04,-0.99 -15.76,-8.81 -15.41,-17.89 z"
   id="path3824" />
		<path
   class="st3"
   d="m 1092.27,594 c 0.36,-9.24 7.91,-16.57 17.16,-16.64 50.8,-0.4 211.59,-4.92 380.04,-43.56 166.08,-38.09 322.17,-43.99 374.35,-44.87 9.97,-0.17 18.02,8.1 17.58,18.07 l -5.37,123.42 c -0.43,9.77 -8.84,17.25 -18.59,16.52 -51.73,-3.89 -211.27,-9.46 -413.05,45.66 -165.26,45.14 -296.86,36.71 -341.1,31.84 -9.04,-0.99 -15.76,-8.81 -15.41,-17.89 z"
   id="path3826" />
		<path
   d="m 1885.64,558.3 -6.45,72.96 c -0.93,9.56 -9.15,16.73 -18.75,16.35 -13.33,-0.54 -32.4,-1.09 -49.47,-0.79 -14.56,0.26 -16.68,8.4 -14.97,16.76 2.26,11.06 11.52,19.31 22.72,20.73 26.93,3.4 85.48,4.51 129.02,-39.44 35.67,-36 61.83,-40.94 76.79,-39.34 5.09,0.54 8.37,-5.21 5.24,-9.26 -5.56,-7.2 -13.34,-15.54 -22.61,-20.74 -7.48,-4.2 -9.37,-14.1 -3.85,-20.66 l 22.51,-26.74 c 3.62,-4.3 1.21,-10.92 -4.34,-11.87 -26.63,-4.58 -90.71,-10.34 -129.79,30.28 -3.07,3.19 -5.62,7.33 -6.05,11.76 z"
   id="path3828" />
		<path
   class="st3"
   d="m 1821.57,642.58 0.16,-5.98 11.08,0.29 -0.16,5.98 c 5.95,2.4 10.07,8.31 9.89,15.1 -0.23,8.74 -7.5,15.63 -16.24,15.4 -8.74,-0.23 -15.63,-7.5 -15.4,-16.24 0.17,-6.79 4.61,-12.47 10.67,-14.55 z"
   id="path3830" />
		<path
   d="m 1823.53,649.32 0.1,-3.67 6.8,0.18 -0.1,3.67 c 3.65,1.48 6.18,5.1 6.07,9.27 -0.14,5.37 -4.61,9.6 -9.97,9.46 -5.36,-0.14 -9.6,-4.61 -9.46,-9.97 0.12,-4.17 2.84,-7.66 6.56,-8.94 z"
   id="path3832" />
		<path
   d="m 1071.98,637.1 0.82,73.24 c 0.19,9.6 7.84,17.39 17.43,17.74 13.33,0.49 32.38,1.41 49.38,3.03 15.8,1.5 16.14,11.2 12.91,20.06 -3.5,9.6 -12.47,16.13 -22.67,16.67 -26.72,1.43 -86,-1.54 -126.46,-49.21 C 969,678.11 942.4,672.45 927.74,673.6 c -4.28,0.34 -6.85,-4.64 -4.04,-7.89 6.37,-7.36 15.81,-16.45 26.75,-21.23 7.35,-3.21 9.76,-12.48 5.08,-19 l -22,-30.65 c -2.82,-3.93 -0.35,-9.45 4.47,-9.94 25.74,-2.63 92.19,-4.48 128.85,40.01 2.82,3.43 5.04,7.75 5.13,12.2 z"
   id="path3834" />
		<path
   class="st3"
   d="m 1119.66,722.14 0.27,-5.98 11.07,0.5 -0.27,5.98 c 5.9,2.52 9.91,8.49 9.61,15.28 -0.4,8.73 -7.8,15.49 -16.53,15.09 -8.73,-0.4 -15.49,-7.8 -15.09,-16.53 0.3,-6.78 4.83,-12.37 10.94,-14.34 z"
   id="path3836" />
		<path
   d="m 1088.41,587.58 c 0.36,-9.24 7.91,-16.57 17.16,-16.64 50.8,-0.4 211.59,-4.92 380.04,-43.56 166.08,-38.09 322.17,-43.99 374.35,-44.87 9.97,-0.17 18.02,8.1 17.58,18.07 L 1872.17,624 c -0.43,9.77 -8.84,17.25 -18.59,16.52 -51.73,-3.89 -211.27,-9.46 -413.05,45.66 -165.26,45.14 -296.86,36.71 -341.1,31.84 -9.04,-0.99 -15.76,-8.81 -15.41,-17.89 z"
   id="path3838" />
		<g
   id="g3876">
			<g
   id="g3874">
				<path
   class="st3"
   d="m 1109.25,635.78 c 0.49,-10.27 0.58,-12.12 0.54,-14.23 -0.04,-2.24 -0.57,-3.31 -2.94,-3.83 -0.57,-0.15 -1.8,-0.25 -2.46,-0.27 -0.29,-0.01 -0.57,-0.15 -0.56,-0.41 0.02,-0.39 0.39,-0.52 1.19,-0.49 3.26,0.09 7.68,0.38 8.33,0.39 0.65,0.01 5.01,-0.12 7.19,-0.09 0.8,0.01 1.15,0.14 1.13,0.54 -0.01,0.26 -0.31,0.39 -0.6,0.39 -0.51,-0.01 -0.95,0.07 -1.82,0.18 -1.95,0.25 -2.6,1.43 -2.86,3.73 -0.24,2.1 -0.33,3.96 -0.83,14.25 -0.18,3.7 -0.27,5.54 -0.44,9.24 -0.46,9.5 1.67,13.68 4.66,16.43 3.38,3.12 6.64,3.78 10.77,3.83 4.42,0.06 8.91,-1.85 11.61,-4.71 3.52,-3.73 4.65,-9.47 4.98,-16.34 0.16,-3.33 0.24,-5 0.39,-8.33 0.49,-10.4 0.58,-12.27 0.54,-14.4 -0.04,-2.26 -0.57,-3.32 -2.94,-3.75 -0.57,-0.12 -1.8,-0.17 -2.46,-0.17 -0.29,0 -0.57,-0.13 -0.56,-0.39 0.02,-0.4 0.39,-0.54 1.19,-0.55 3.26,-0.04 7.24,0.08 7.68,0.07 0.51,-0.01 3.93,-0.29 6.1,-0.35 0.8,-0.02 1.15,0.1 1.14,0.5 -0.01,0.27 -0.31,0.41 -0.6,0.42 -0.51,0.01 -0.95,0.09 -1.82,0.25 -1.98,0.45 -2.6,1.54 -2.86,3.87 -0.24,2.13 -0.33,4.01 -0.83,14.42 -0.14,2.86 -0.2,4.29 -0.34,7.14 -0.34,7.21 -1.59,15.25 -7.61,19.99 -5.42,4.27 -10.89,4.88 -15.17,4.82 -2.47,-0.04 -9.78,-0.45 -14.71,-5.02 -3.4,-3.2 -5.94,-7.91 -5.48,-17.52 0.18,-3.84 0.27,-5.76 0.45,-9.61 z"
   id="path3840" />
				<path
   class="st3"
   d="m 1171.38,658.94 c -0.08,4.69 0.44,6.09 2.16,6.44 1.15,0.23 2.6,0.26 3.18,0.24 0.29,-0.01 0.5,0.19 0.48,0.45 -0.02,0.34 -0.46,0.49 -1.18,0.51 -3.62,0.11 -6.15,-0.02 -6.73,-0.01 -0.58,0.02 -3.27,0.28 -6.17,0.34 -0.65,0.01 -1.01,-0.05 -0.99,-0.45 0.01,-0.27 0.24,-0.47 0.53,-0.48 0.51,-0.01 1.68,-0.12 2.63,-0.39 1.58,-0.45 1.9,-1.99 2.15,-7.15 0.51,-10.89 1.02,-21.78 1.54,-32.66 0.11,-2.28 0.5,-2.9 1.01,-2.92 0.73,-0.03 1.76,1.07 2.38,1.65 0.97,0.9 9.82,9.67 19.24,18.62 6.02,5.75 12.52,12.2 14.39,13.98 0.23,-9.62 0.46,-19.24 0.69,-28.86 0.1,-3.73 -0.2,-4.99 -2.14,-5.2 -1.15,-0.12 -2.6,-0.1 -3.11,-0.06 -0.43,0.03 -0.49,-0.31 -0.48,-0.51 0.02,-0.34 0.53,-0.44 1.25,-0.49 2.9,-0.19 5.94,-0.27 6.67,-0.32 0.72,-0.05 2.83,-0.34 5.44,-0.54 0.65,-0.05 1.16,-0.02 1.14,0.32 -0.01,0.2 -0.32,0.57 -0.75,0.6 -0.29,0.02 -0.8,0.06 -1.53,0.25 -2.12,0.56 -2.32,1.73 -2.48,5.19 -0.57,11.28 -1.14,22.55 -1.72,33.83 -0.18,3.8 -0.27,4.14 -0.7,4.17 -0.65,0.04 -1.28,-0.4 -4.69,-3.24 -0.63,-0.51 -9.46,-8.46 -15.88,-14.69 -7.06,-6.85 -13.91,-13.58 -15.77,-15.52 -0.24,10.77 -0.35,16.15 -0.56,26.9 z"
   id="path3842" />
				<path
   class="st3"
   d="m 1233.86,646.49 c -0.26,5.61 -0.48,10.19 -0.29,12.56 0.13,1.69 0.3,2.77 2.18,2.89 0.94,0.06 2.31,0.08 2.89,0.03 0.36,-0.03 0.49,0.23 0.48,0.44 -0.01,0.27 -0.31,0.5 -1.04,0.56 -3.55,0.29 -7.68,0.41 -7.97,0.43 -0.36,0.03 -4.36,0.53 -6.32,0.67 -0.65,0.05 -1.01,-0.06 -0.99,-0.4 0.01,-0.2 0.17,-0.49 0.53,-0.51 0.58,-0.04 1.39,-0.24 1.97,-0.41 1.24,-0.37 1.52,-1.48 1.81,-3.19 0.41,-2.4 0.68,-6.99 0.94,-12.59 0.19,-4.1 0.28,-6.14 0.47,-10.24 0.42,-9.01 0.49,-10.66 0.43,-12.48 -0.06,-1.96 -0.52,-2.81 -1.88,-2.97 -0.72,-0.07 -1.51,-0.08 -1.95,-0.04 -0.29,0.02 -0.49,-0.23 -0.48,-0.43 0.02,-0.34 0.31,-0.5 1.04,-0.56 2.1,-0.18 6.08,-0.39 6.45,-0.42 0.29,-0.03 4.43,-0.54 6.39,-0.72 0.73,-0.07 1.01,0.04 0.99,0.38 -0.01,0.21 -0.31,0.51 -0.53,0.53 -0.44,0.04 -0.87,0.08 -1.6,0.29 -1.75,0.5 -2.19,1.39 -2.4,3.42 -0.18,1.82 -0.23,3.5 -0.65,12.52 -0.19,4.08 -0.28,6.13 -0.47,10.24 z"
   id="path3844" />
				<path
   class="st3"
   d="m 1269.83,652.37 c 5.31,-11.07 10.38,-22.3 14.88,-33.73 0.33,-0.94 0.66,-1.81 0.68,-2.29 0.02,-0.49 -0.18,-1.03 -0.81,-1.14 -0.7,-0.13 -1.44,-0.03 -2.17,0.06 -0.36,0.04 -0.72,-0.12 -0.7,-0.4 0.02,-0.35 0.46,-0.54 1.47,-0.66 2.54,-0.31 5.43,-0.54 6.23,-0.64 0.36,-0.05 3.12,-0.54 5.01,-0.78 0.65,-0.08 1.01,0.01 1,0.29 -0.01,0.28 -0.24,0.58 -0.75,0.65 -0.44,0.06 -1.91,0.24 -3.08,1.09 -0.89,0.65 -1.95,1.63 -3.8,5.87 -0.8,1.76 -4.24,9.23 -7.83,16.8 -4.29,9.04 -7.44,15.7 -9.01,18.76 -1.91,3.7 -2.3,4.64 -2.96,4.71 -0.73,0.07 -1.13,-0.64 -2.23,-3.34 -4.67,-11.43 -9.34,-22.86 -14.02,-34.28 -1.3,-3.15 -2.14,-3.68 -4.22,-3.95 -1.01,-0.1 -2.09,0 -2.46,0.04 -0.36,0.04 -0.49,-0.29 -0.48,-0.5 0.02,-0.34 0.67,-0.48 1.69,-0.58 3.04,-0.3 6.66,-0.54 7.46,-0.63 0.65,-0.07 3.49,-0.5 5.95,-0.77 1.16,-0.13 1.73,-0.05 1.72,0.22 -0.01,0.27 -0.24,0.58 -0.68,0.62 -0.73,0.08 -1.76,0.25 -2.33,0.53 -0.66,0.32 -0.75,0.7 -0.77,1.11 -0.03,0.76 0.68,2.46 1.52,4.7 3.57,9.41 7.13,18.82 10.69,28.24 z"
   id="path3846" />
				<path
   class="st3"
   d="m 1304.08,628.56 c 0.42,-9.21 0.49,-10.89 0.43,-12.74 -0.06,-2 -0.37,-2.93 -2.46,-2.93 -0.5,0 -1.59,0.07 -2.17,0.15 -0.22,0.03 -0.5,-0.21 -0.49,-0.42 0.02,-0.35 0.31,-0.53 1.04,-0.62 2.9,-0.39 7.03,-0.81 7.39,-0.86 0.44,-0.06 13.78,-1.86 15.23,-2.14 1.23,-0.24 2.44,-0.61 2.92,-0.77 0.28,-0.09 0.59,-0.37 0.88,-0.41 0.22,-0.03 0.28,0.24 0.26,0.52 -0.02,0.42 -0.38,1.22 -0.63,2.88 -0.08,0.56 -0.36,3.26 -0.54,3.98 -0.08,0.29 -0.32,0.67 -0.61,0.71 -0.36,0.05 -0.49,-0.21 -0.47,-0.7 0.02,-0.42 0,-1.41 -0.27,-2.05 -0.37,-0.91 -1.02,-1.24 -4.49,-1.17 -1.08,0.01 -8.47,0.98 -9.2,1.08 -0.29,0.04 -0.37,0.26 -0.39,0.68 -0.29,6.46 -0.44,9.68 -0.73,16.14 -0.02,0.42 -0.03,0.63 0.33,0.58 0.8,-0.11 9.21,-1.25 10.66,-1.59 1.53,-0.35 2.48,-0.55 3.16,-1.27 0.45,-0.48 0.76,-0.87 0.98,-0.9 0.22,-0.03 0.36,0.09 0.34,0.44 -0.02,0.35 -0.38,1.43 -0.66,3.37 -0.17,1.19 -0.44,3.48 -0.46,3.9 -0.02,0.49 -0.2,1.14 -0.63,1.2 -0.29,0.04 -0.43,-0.15 -0.41,-0.5 0.02,-0.56 0,-1.22 -0.2,-1.92 -0.21,-0.75 -0.74,-1.42 -3.18,-1.37 -1.72,0.03 -8.54,0.88 -9.63,1.02 -0.36,0.05 -0.45,0.27 -0.45,0.48 -0.09,1.98 -0.13,2.98 -0.22,4.96 -0.09,2.03 -0.46,8.96 -0.46,10.12 0.01,3.91 1.09,4.59 7.4,3.77 1.67,-0.22 4.75,-0.61 6.41,-1.47 1.69,-0.88 2.62,-2.09 3.09,-4.53 0.18,-0.72 0.33,-0.95 0.69,-1 0.36,-0.05 0.41,0.43 0.39,0.85 -0.02,0.42 -0.71,4.56 -1.13,5.87 -0.51,1.6 -1.16,1.69 -3.62,2.02 -4.78,0.63 -8.51,1.01 -11.08,1.23 -2.64,0.23 -4.34,0.41 -5.29,0.53 -0.15,0.02 -1.38,0.17 -2.76,0.41 -1.23,0.22 -2.69,0.47 -3.7,0.59 -0.65,0.08 -1.01,-0.02 -0.99,-0.36 0.01,-0.21 0.17,-0.5 0.53,-0.55 0.58,-0.07 1.4,-0.37 1.97,-0.52 1.22,-0.32 1.46,-1.57 1.81,-3.34 0.49,-2.46 0.68,-7.15 0.94,-12.87 0.19,-4.2 0.28,-6.29 0.47,-10.48 z"
   id="path3848" />
				<path
   class="st3"
   d="m 1344.03,622.96 c 0.42,-9.3 0.49,-11 0.43,-12.88 -0.06,-2.02 -0.37,-2.95 -2.46,-2.92 -0.5,0.01 -1.59,0.1 -2.17,0.19 -0.22,0.03 -0.49,-0.21 -0.48,-0.42 0.02,-0.35 0.31,-0.54 1.04,-0.65 2.9,-0.44 7.17,-0.96 7.53,-1.01 0.65,-0.1 6.02,-1.08 7.98,-1.39 4.06,-0.64 8.54,-1.01 11.77,0.73 1.54,0.88 4.24,3.33 4.06,7.52 -0.2,4.47 -2.28,9.12 -8.44,14.99 4.94,5.57 9.12,10.39 12.65,13.55 3.22,2.89 5.36,3.1 6.92,3.1 1.2,0 1.88,-0.08 2.24,-0.14 0.36,-0.06 0.57,0.19 0.56,0.41 -0.02,0.36 -0.39,0.56 -1.54,0.74 -1.6,0.25 -2.39,0.37 -3.99,0.62 -3.63,0.56 -5.21,0.45 -6.76,-0.16 -2.69,-1 -4.88,-3.62 -8.31,-7.54 -2.49,-2.85 -5.19,-6.31 -6.5,-7.73 -0.28,-0.24 -0.42,-0.29 -0.85,-0.22 -3.25,0.44 -4.87,0.65 -8.11,1.08 -0.29,0.04 -0.44,0.21 -0.46,0.56 -0.03,0.56 -0.04,0.85 -0.06,1.41 -0.26,5.79 -0.47,10.45 -0.29,12.87 0.13,1.73 0.47,2.79 2.4,2.81 0.86,0.01 2.23,-0.04 2.81,-0.13 0.44,-0.06 0.5,0.21 0.49,0.42 -0.01,0.28 -0.31,0.54 -1.04,0.64 -3.48,0.51 -7.53,0.88 -7.82,0.92 -0.07,0.01 -4.36,0.83 -6.32,1.1 -0.65,0.09 -1.01,0 -0.99,-0.35 0.01,-0.21 0.17,-0.51 0.53,-0.56 0.58,-0.08 1.39,-0.34 1.97,-0.56 1.23,-0.46 1.46,-1.62 1.81,-3.41 0.49,-2.49 0.68,-7.24 0.94,-13.02 0.18,-4.22 0.28,-6.34 0.46,-10.57 z m 5.29,4.26 c -0.02,0.35 0.12,0.54 0.4,0.71 0.92,0.35 4.17,0.29 6.99,-0.14 1.52,-0.23 3.27,-0.57 4.83,-1.79 2.24,-1.75 4.05,-5.2 4.25,-9.81 0.33,-7.52 -3.68,-11.16 -10.49,-10.09 -1.89,0.3 -4.02,0.79 -4.58,1.07 -0.28,0.14 -0.52,0.43 -0.54,0.78 -0.34,7.7 -0.52,11.56 -0.86,19.27 z"
   id="path3850" />
				<path
   class="st3"
   d="m 1385.53,643.71 c -0.85,-0.29 -0.91,-0.49 -0.84,-2.13 0.13,-2.99 0.57,-5.49 0.65,-6.47 0.05,-0.62 0.19,-1.02 0.55,-1.08 0.36,-0.06 0.57,0.12 0.55,0.62 -0.02,0.5 -0.06,1.35 0.12,2.17 0.82,4.26 5.54,5.08 9.81,4.39 6.31,-1 9.73,-5.04 9.93,-9.62 0.19,-4.37 -2.11,-6.05 -7.58,-9.27 -1.12,-0.67 -1.68,-1 -2.81,-1.67 -6.66,-3.94 -8.75,-7.28 -8.56,-11.49 0.32,-7.13 6.23,-12.37 14.65,-13.81 2.54,-0.43 5.06,-0.51 6.57,-0.42 1.22,0.08 1.73,-0.01 2.23,-0.1 0.51,-0.09 0.65,-0.04 0.63,0.32 -0.01,0.29 -0.39,2.35 -0.57,6.51 -0.04,0.93 -0.13,1.38 -0.57,1.45 -0.44,0.07 -0.51,-0.21 -0.55,-0.69 -0.06,-0.69 -0.47,-2.29 -0.81,-2.85 -0.38,-0.64 -2.41,-2.57 -8.13,-1.6 -4.64,0.79 -8.58,3.72 -8.77,8 -0.17,3.85 1.69,5.74 7.81,8.91 0.7,0.37 1.06,0.55 1.76,0.91 7.53,3.93 10.02,7.72 9.79,12.96 -0.16,3.59 -1.71,7.69 -6.4,11.36 -2.76,2.15 -6.77,3.21 -10.25,3.76 -2.98,0.5 -6.66,0.65 -9.21,-0.16 z"
   id="path3852" />
				<path
   class="st3"
   d="m 1433.98,619.07 c -0.26,5.91 -0.48,10.75 -0.29,13.22 0.13,1.76 0.31,2.88 2.18,2.86 0.94,-0.01 2.31,-0.1 2.89,-0.19 0.36,-0.06 0.5,0.2 0.49,0.42 -0.01,0.29 -0.31,0.55 -1.04,0.67 -3.55,0.59 -7.68,1.05 -7.97,1.1 -0.36,0.06 -4.36,0.93 -6.32,1.25 -0.65,0.11 -1.01,0.02 -0.99,-0.34 0.01,-0.22 0.17,-0.53 0.53,-0.59 0.58,-0.09 1.39,-0.38 1.97,-0.61 1.23,-0.5 1.52,-1.68 1.81,-3.51 0.41,-2.56 0.68,-7.4 0.94,-13.31 0.19,-4.32 0.28,-6.48 0.47,-10.8 0.42,-9.51 0.49,-11.24 0.43,-13.16 -0.06,-2.06 -0.52,-2.91 -1.89,-2.96 -0.72,-0.02 -1.51,0.05 -1.95,0.13 -0.29,0.05 -0.49,-0.2 -0.48,-0.41 0.02,-0.36 0.31,-0.55 1.04,-0.68 2.1,-0.37 6.08,-0.93 6.45,-0.99 0.29,-0.05 4.43,-0.92 6.39,-1.27 0.73,-0.13 1.01,-0.04 0.99,0.33 -0.01,0.22 -0.31,0.56 -0.53,0.59 -0.43,0.08 -0.87,0.15 -1.6,0.43 -1.75,0.66 -2.19,1.63 -2.4,3.79 -0.18,1.93 -0.23,3.69 -0.65,13.21 -0.19,4.33 -0.28,6.5 -0.47,10.82 z"
   id="path3854" />
				<path
   class="st3"
   d="m 1470.31,612.86 c -0.26,5.97 -0.48,10.85 -0.29,13.34 0.13,1.78 0.4,2.88 2.32,2.86 0.85,-0.01 2.31,-0.1 2.89,-0.2 0.44,-0.07 0.5,0.21 0.49,0.42 -0.01,0.29 -0.31,0.56 -1.04,0.68 -3.48,0.58 -7.53,1.05 -7.89,1.11 -0.29,0.05 -4.72,1.01 -6.61,1.32 -0.73,0.12 -1.01,0.02 -0.99,-0.34 0.01,-0.22 0.16,-0.46 0.53,-0.52 0.58,-0.1 1.31,-0.37 1.9,-0.61 1.3,-0.52 1.74,-1.81 2.03,-3.66 0.41,-2.58 0.61,-7.46 0.87,-13.41 0.45,-10.37 0.68,-15.56 1.13,-25.94 -3.69,0.71 -5.53,1.07 -9.22,1.78 -3.99,0.78 -5.53,1.5 -6.54,3.1 -0.76,1.21 -0.92,1.68 -1.1,2.13 -0.19,0.48 -0.39,0.64 -0.68,0.69 -0.14,0.03 -0.43,-0.07 -0.41,-0.43 0.03,-0.65 1.53,-6.38 1.67,-6.9 0.1,-0.36 0.49,-1.24 0.7,-1.28 0.43,-0.08 1.07,0.32 2.8,0.22 1.8,-0.1 4.27,-0.47 4.99,-0.6 9.63,-1.72 14.44,-2.58 24.07,-4.3 2.1,-0.38 3.57,-0.78 4.58,-1.11 0.95,-0.31 1.54,-0.56 1.82,-0.62 0.29,-0.05 0.27,0.31 0.26,0.68 -0.08,1.9 -0.49,6.4 -0.52,7.13 -0.02,0.51 -0.32,0.86 -0.61,0.91 -0.29,0.05 -0.43,-0.14 -0.46,-1.01 -0.02,-0.26 -0.03,-0.39 -0.04,-0.64 -0.14,-1.86 -1.45,-3 -7.54,-2.07 -3.19,0.51 -4.78,0.76 -7.97,1.27 -0.47,10.41 -0.69,15.61 -1.14,26 z"
   id="path3856" />
				<path
   class="st3"
   d="m 1509.23,608.09 c 0.15,-3.38 -0.24,-4.55 -1.1,-6.15 -0.47,-0.87 -8.52,-13.24 -10.53,-16.15 -1.42,-2.06 -2.9,-3.25 -4.01,-3.79 -0.88,-0.43 -2.14,-0.49 -2.64,-0.4 -0.36,0.06 -0.64,-0.18 -0.63,-0.47 0.01,-0.29 0.24,-0.48 0.82,-0.58 1.23,-0.22 6.01,-0.92 6.3,-0.98 0.43,-0.08 3.05,-0.69 5.52,-1.13 0.73,-0.13 0.86,-0.01 0.85,0.29 -0.01,0.22 -0.47,0.51 -1.04,0.84 -0.51,0.29 -0.82,0.66 -0.84,1.17 -0.04,0.88 0.37,1.54 0.77,2.27 4.31,6.95 6.46,10.44 10.76,17.44 1.42,-2.87 9.97,-17.64 11.22,-19.9 0.86,-1.54 1.19,-2.62 1.23,-3.43 0.04,-0.88 -0.25,-1.37 -0.95,-1.44 -0.56,-0.06 -0.92,-0.28 -0.91,-0.57 0.01,-0.22 0.38,-0.43 1.03,-0.55 1.67,-0.29 3.91,-0.53 4.42,-0.62 0.43,-0.08 5.01,-1.02 6.24,-1.23 0.43,-0.07 0.79,0.01 0.78,0.23 -0.01,0.3 -0.32,0.71 -0.83,0.8 -0.73,0.12 -1.98,0.56 -3.01,1.33 -1.26,0.94 -1.87,1.72 -3.32,3.65 -2.21,2.87 -11.83,19.14 -13.25,22.01 -1.18,2.39 -0.98,4.33 -1.07,6.39 -0.09,2.15 -0.14,3.22 -0.23,5.37 -0.04,1.03 -0.15,3.68 -0.05,6.21 0.07,1.81 0.46,2.9 2.32,2.9 0.86,0 2.31,-0.09 2.89,-0.18 0.36,-0.06 0.49,0.21 0.48,0.43 -0.01,0.29 -0.38,0.57 -1.04,0.68 -3.55,0.58 -7.68,1.05 -8.04,1.11 -0.29,0.05 -4.36,0.94 -6.25,1.25 -0.73,0.12 -1.01,0.02 -0.99,-0.34 0.01,-0.22 0.17,-0.54 0.53,-0.6 0.58,-0.1 1.32,-0.37 1.9,-0.61 1.29,-0.52 1.83,-1.77 2.03,-3.62 0.28,-2.56 0.37,-5.24 0.41,-6.26 0.09,-2.16 0.14,-3.23 0.23,-5.37 z"
   id="path3858" />
				<path
   class="st3"
   d="m 1575.28,592.33 c -0.46,10.95 -0.38,15.68 0.87,16.82 1.11,1.02 2.97,1.25 8.63,0.41 3.84,-0.57 7.04,-1.11 8.87,-3.54 0.99,-1.33 1.8,-3.31 2.08,-4.77 0.1,-0.61 0.26,-1 0.69,-1.07 0.36,-0.05 0.42,0.24 0.39,1.06 -0.03,0.82 -0.71,5.42 -1.4,7.64 -0.55,1.78 -0.81,2.12 -4.65,2.68 -5.22,0.76 -9.02,1.22 -12.03,1.56 -3,0.34 -5.28,0.58 -7.39,0.9 -0.29,0.04 -1.57,0.28 -2.98,0.53 -1.42,0.26 -3.05,0.62 -4.14,0.79 -0.8,0.12 -1.15,0.03 -1.13,-0.41 0.01,-0.22 0.16,-0.47 0.6,-0.54 0.65,-0.1 1.53,-0.39 2.19,-0.63 1.44,-0.53 1.92,-2.23 2.28,-4.42 0.52,-3.15 0.74,-9.06 1.05,-16.2 0.22,-5.24 0.33,-7.86 0.56,-13.1 0.49,-11.61 0.58,-13.7 0.54,-16.06 -0.04,-2.5 -0.57,-3.6 -2.94,-3.73 -0.57,-0.05 -1.8,0.08 -2.46,0.19 -0.29,0.05 -0.57,-0.05 -0.56,-0.35 0.02,-0.45 0.39,-0.66 1.19,-0.79 3.26,-0.55 7.82,-1.08 8.18,-1.14 0.36,-0.06 5.67,-1.15 7.84,-1.51 0.8,-0.13 1.15,-0.04 1.13,0.41 -0.01,0.3 -0.31,0.49 -0.6,0.54 -0.51,0.08 -1.53,0.32 -2.4,0.61 -2.11,0.71 -2.75,2.09 -3.01,4.71 -0.24,2.4 -0.33,4.5 -0.83,16.13 -0.23,5.32 -0.35,7.97 -0.57,13.28 z"
   id="path3860" />
				<path
   class="st3"
   d="m 1616.12,589.3 c -0.26,6.17 -0.48,11.21 -0.29,13.79 0.13,1.84 0.31,3.02 2.18,3.07 0.94,0.02 2.31,-0.01 2.89,-0.09 0.36,-0.05 0.5,0.23 0.49,0.46 -0.01,0.3 -0.31,0.57 -1.04,0.66 -3.55,0.48 -7.68,0.82 -7.97,0.86 -0.36,0.05 -4.36,0.83 -6.32,1.1 -0.65,0.09 -1.01,-0.01 -0.99,-0.38 0.01,-0.23 0.17,-0.54 0.53,-0.6 0.58,-0.08 1.39,-0.35 1.97,-0.57 1.23,-0.48 1.52,-1.71 1.81,-3.61 0.41,-2.66 0.69,-7.71 0.94,-13.86 0.19,-4.51 0.28,-6.76 0.47,-11.26 0.42,-9.91 0.49,-11.72 0.43,-13.72 -0.06,-2.15 -0.52,-3.06 -1.89,-3.15 -0.72,-0.04 -1.51,0 -1.95,0.07 -0.29,0.04 -0.49,-0.22 -0.48,-0.45 0.02,-0.37 0.31,-0.57 1.04,-0.68 2.1,-0.32 6.08,-0.76 6.45,-0.81 0.29,-0.04 4.43,-0.8 6.39,-1.09 0.73,-0.11 1.01,0 0.99,0.38 -0.01,0.23 -0.31,0.57 -0.53,0.6 -0.43,0.06 -0.87,0.12 -1.6,0.38 -1.75,0.62 -2.19,1.61 -2.4,3.86 -0.18,2.01 -0.23,3.85 -0.65,13.77 -0.19,4.5 -0.28,6.76 -0.47,11.27 z"
   id="path3862" />
				<path
   class="st3"
   d="m 1637.55,575.13 c 0.42,-9.97 0.49,-11.79 0.43,-13.8 -0.06,-2.16 -0.37,-3.33 -2.46,-3.34 -0.5,-0.01 -1.59,0.07 -2.17,0.15 -0.22,0.03 -0.5,-0.08 -0.49,-0.31 0.02,-0.38 0.31,-0.57 1.04,-0.67 2.9,-0.4 7.03,-0.81 7.39,-0.86 1.52,-0.2 4.5,-0.76 7.47,-1.15 10.66,-1.4 13.15,4.74 13,8.16 -0.21,5.09 -3.53,8.66 -6.92,12.09 4.8,0.92 10.98,4.81 10.68,12.1 -0.3,7.21 -5.75,14.9 -16.62,16.2 -1.16,0.14 -3.52,0.31 -5.5,0.44 -1.99,0.13 -3.84,0.33 -4.13,0.36 -0.15,0.02 -1.35,0.21 -2.61,0.4 -1.28,0.2 -2.83,0.51 -3.85,0.64 -0.65,0.08 -1.01,-0.02 -0.99,-0.4 0.01,-0.23 0.16,-0.4 0.52,-0.44 0.58,-0.07 1.4,-0.39 1.97,-0.55 1.22,-0.35 1.46,-1.85 1.82,-3.76 0.49,-2.66 0.68,-7.75 0.94,-13.94 0.19,-4.52 0.29,-6.79 0.48,-11.32 z m 5.15,7.75 c -0.21,4.99 -0.53,12.7 -0.5,13.67 0.09,3.07 0.07,3.86 1.97,4.57 1.68,0.63 4.39,0.37 5.55,0.23 4.2,-0.51 9.42,-2.77 9.77,-11.03 0.12,-2.88 -0.74,-8.3 -5.6,-11.02 -2.12,-1.17 -4.16,-0.85 -5.66,-0.95 -0.79,-0.05 -3.98,0.36 -5,0.49 -0.22,0.03 -0.37,0.2 -0.38,0.5 -0.06,1.4 -0.09,2.11 -0.15,3.54 z m 0.3,-7.11 c -0.02,0.45 0.13,0.59 0.41,0.62 0.35,0.04 1.51,0.11 3.9,-0.2 3.55,-0.45 4.94,-0.78 6.31,-2.45 1.44,-1.76 2.62,-4.09 2.75,-7.2 0.21,-4.93 -2.18,-10.07 -8.56,-9.23 -0.73,0.09 -2.27,0.36 -3.28,0.73 -0.58,0.22 -0.81,0.41 -0.83,0.79 -0.28,6.78 -0.42,10.16 -0.7,16.94 z"
   id="path3864" />
				<path
   class="st3"
   d="m 1679.89,570 c 0.42,-10.06 0.49,-11.89 0.43,-13.93 -0.06,-2.19 -0.37,-3.22 -2.46,-3.29 -0.5,-0.02 -1.59,0.03 -2.17,0.1 -0.22,0.03 -0.49,-0.25 -0.48,-0.47 0.02,-0.38 0.31,-0.57 1.04,-0.65 2.9,-0.33 7.17,-0.66 7.53,-0.7 0.65,-0.07 6.02,-0.81 7.98,-1.01 4.06,-0.43 8.54,-0.5 11.78,1.63 1.54,1.07 4.24,3.95 4.06,8.47 -0.2,4.83 -2.28,9.66 -8.44,15.57 4.94,6.39 9.12,11.95 12.65,15.67 3.22,3.4 5.37,3.83 6.92,3.97 1.2,0.11 1.88,0.09 2.24,0.06 0.36,-0.03 0.57,0.26 0.56,0.5 -0.02,0.38 -0.39,0.56 -1.55,0.65 -1.59,0.12 -2.39,0.18 -3.99,0.3 -3.63,0.28 -5.21,0.03 -6.76,-0.76 -2.69,-1.31 -4.87,-4.31 -8.31,-8.82 -2.49,-3.27 -5.19,-7.21 -6.5,-8.84 -0.28,-0.28 -0.42,-0.34 -0.85,-0.3 -3.25,0.26 -4.87,0.39 -8.11,0.66 -0.29,0.03 -0.44,0.2 -0.46,0.58 -0.03,0.61 -0.04,0.92 -0.06,1.53 -0.26,6.25 -0.47,11.29 -0.29,13.92 0.13,1.88 0.47,3.05 2.39,3.18 0.86,0.06 2.24,0.09 2.82,0.03 0.44,-0.04 0.49,0.26 0.48,0.49 -0.01,0.31 -0.31,0.56 -1.04,0.63 -3.48,0.33 -7.53,0.51 -7.82,0.54 -0.07,0.01 -4.36,0.67 -6.32,0.88 -0.65,0.07 -1.01,-0.05 -0.99,-0.43 0.01,-0.23 0.17,-0.55 0.53,-0.59 0.58,-0.06 1.39,-0.3 1.97,-0.51 1.23,-0.44 1.46,-1.68 1.81,-3.6 0.49,-2.68 0.68,-7.8 0.94,-14.05 0.19,-4.55 0.28,-6.84 0.47,-11.41 z m 5.28,4.9 c -0.02,0.38 0.12,0.6 0.4,0.79 0.92,0.44 4.16,0.56 6.99,0.28 1.52,-0.15 3.27,-0.39 4.83,-1.61 2.24,-1.74 4.05,-5.33 4.25,-10.31 0.33,-8.11 -3.68,-12.38 -10.49,-11.66 -1.89,0.2 -4.03,0.61 -4.58,0.87 -0.28,0.13 -0.52,0.44 -0.54,0.82 -0.34,8.33 -0.51,12.5 -0.86,20.82 z"
   id="path3866" />
				<path
   class="st3"
   d="m 1739.42,547.17 c 0.89,-2.21 1.19,-2.62 1.63,-2.65 0.65,-0.04 0.83,0.87 1.43,2.29 4.67,12.95 9.06,26.01 13.67,38.98 2.08,5.77 3.79,6.56 5.14,6.96 0.93,0.27 1.87,0.31 2.52,0.29 0.36,-0.01 0.79,0.13 0.78,0.51 -0.02,0.39 -0.75,0.57 -1.47,0.6 -0.94,0.04 -5.72,0.28 -10.07,0.27 -1.21,0 -2.25,0.03 -2.23,-0.36 0.01,-0.31 0.16,-0.33 0.45,-0.48 0.35,-0.18 1.04,-0.74 0.65,-1.8 -2.04,-5.91 -3.07,-8.86 -5.11,-14.76 -0.13,-0.3 -0.2,-0.37 -0.56,-0.35 -5.89,0.33 -8.83,0.52 -14.72,0.92 -0.29,0.02 -0.51,0.19 -0.67,0.58 -1.62,4.29 -2.43,6.43 -4.05,10.71 -0.65,1.66 -1.08,3.29 -1.12,4.45 -0.05,1.31 1.02,1.69 2.1,1.62 0.23,-0.02 0.35,-0.02 0.58,-0.04 0.51,-0.03 0.64,0.19 0.63,0.49 -0.02,0.38 -0.38,0.56 -0.96,0.6 -1.52,0.1 -4.99,0.12 -5.72,0.17 -0.65,0.05 -3.85,0.51 -6.46,0.71 -0.8,0.06 -1.23,-0.06 -1.21,-0.44 0.01,-0.31 0.31,-0.56 0.6,-0.58 0.44,-0.03 1.38,-0.18 1.89,-0.3 2.92,-0.6 4.24,-3 5.61,-6.39 5.54,-13.99 11.11,-27.99 16.67,-42 z m 5.98,26.85 c 0.29,-0.02 0.3,-0.17 0.24,-0.48 -2.23,-7.05 -3.34,-10.56 -5.57,-17.58 -0.32,-0.98 -0.68,-0.95 -1.09,0.07 -2.67,7.34 -4.01,11.01 -6.68,18.35 -0.09,0.31 -0.02,0.46 0.2,0.45 5.16,-0.35 7.74,-0.51 12.9,-0.81 z"
   id="path3868" />
				<path
   class="st3"
   d="m 1774.22,563.02 c 0.42,-10.24 0.49,-12.11 0.43,-14.19 -0.06,-2.24 -0.37,-3.32 -2.46,-3.54 -0.5,-0.06 -1.59,-0.09 -2.17,-0.06 -0.22,0.01 -0.49,-0.29 -0.48,-0.52 0.02,-0.39 0.31,-0.56 1.04,-0.59 2.9,-0.12 7.17,-0.12 7.53,-0.14 0.65,-0.02 6.03,-0.35 7.98,-0.41 4.06,-0.11 8.54,0.18 11.77,2.62 1.54,1.22 4.24,4.39 4.06,8.99 -0.2,4.91 -2.28,9.67 -8.44,15.21 4.94,6.93 9.11,12.95 12.65,17.06 3.23,3.75 5.37,4.37 6.92,4.65 1.2,0.22 1.88,0.25 2.24,0.26 0.36,0 0.57,0.32 0.56,0.55 -0.02,0.39 -0.39,0.54 -1.54,0.53 -1.6,-0.02 -2.39,-0.03 -3.99,-0.04 -3.63,-0.03 -5.21,-0.42 -6.76,-1.35 -2.69,-1.56 -4.87,-4.81 -8.31,-9.7 -2.49,-3.55 -5.19,-7.79 -6.5,-9.55 -0.28,-0.31 -0.42,-0.38 -0.85,-0.37 -3.25,0 -4.87,0.01 -8.11,0.04 -0.29,0.01 -0.44,0.17 -0.46,0.55 -0.03,0.62 -0.04,0.93 -0.06,1.55 -0.26,6.37 -0.47,11.5 -0.29,14.2 0.13,1.93 0.47,3.15 2.39,3.44 0.86,0.13 2.24,0.26 2.82,0.25 0.44,-0.01 0.49,0.3 0.48,0.53 -0.01,0.31 -0.31,0.55 -1.04,0.56 -3.48,0.07 -7.53,-0.06 -7.82,-0.06 -0.07,0 -4.36,0.35 -6.32,0.42 -0.65,0.02 -1.01,-0.12 -0.99,-0.51 0.01,-0.23 0.17,-0.55 0.53,-0.56 0.58,-0.02 1.39,-0.21 1.97,-0.37 1.23,-0.35 1.46,-1.6 1.81,-3.54 0.49,-2.7 0.68,-7.92 0.94,-14.28 0.19,-4.64 0.28,-6.97 0.47,-11.63 z m 5.29,5.42 c -0.02,0.39 0.12,0.62 0.4,0.84 0.92,0.52 4.16,0.9 6.99,0.84 1.52,-0.03 3.27,-0.14 4.83,-1.26 2.24,-1.59 4.05,-5.12 4.25,-10.18 0.33,-8.26 -3.68,-12.95 -10.49,-12.76 -1.89,0.05 -4.03,0.3 -4.58,0.53 -0.28,0.11 -0.52,0.41 -0.54,0.79 -0.35,8.48 -0.52,12.72 -0.86,21.2 z"
   id="path3870" />
				<path
   class="st3"
   d="m 1828.34,576.38 c 0.15,-3.6 -0.24,-4.95 -1.1,-6.84 -0.47,-1.03 -8.52,-15.95 -10.53,-19.47 -1.43,-2.49 -2.89,-4.05 -4.01,-4.86 -0.88,-0.63 -2.14,-0.93 -2.65,-0.93 -0.36,0 -0.64,-0.31 -0.63,-0.62 0.01,-0.31 0.24,-0.47 0.82,-0.47 1.23,0 6.01,0.15 6.3,0.15 0.43,0 3.05,-0.15 5.52,-0.12 0.73,0.01 0.86,0.16 0.85,0.48 -0.01,0.24 -0.47,0.46 -1.04,0.7 -0.51,0.21 -0.82,0.54 -0.84,1.09 -0.04,0.94 0.37,1.73 0.77,2.59 4.31,8.34 6.46,12.53 10.77,20.97 1.42,-2.79 9.97,-16.83 11.22,-18.99 0.86,-1.47 1.19,-2.55 1.23,-3.42 0.04,-0.94 -0.24,-1.53 -0.95,-1.76 -0.56,-0.19 -0.92,-0.5 -0.91,-0.82 0.01,-0.24 0.38,-0.38 1.03,-0.36 1.67,0.06 3.91,0.3 4.42,0.32 0.43,0.02 5.01,0.05 6.24,0.11 0.44,0.02 0.79,0.19 0.78,0.43 -0.01,0.31 -0.32,0.69 -0.83,0.67 -0.73,-0.03 -1.98,0.14 -3.01,0.73 -1.26,0.72 -1.87,1.42 -3.32,3.17 -2.21,2.59 -11.83,17.99 -13.25,20.78 -1.18,2.32 -0.98,4.45 -1.07,6.64 -0.09,2.29 -0.14,3.43 -0.23,5.72 -0.04,1.1 -0.15,3.93 -0.05,6.67 0.07,1.96 0.47,3.22 2.32,3.61 0.86,0.18 2.31,0.4 2.89,0.42 0.36,0.01 0.49,0.33 0.48,0.57 -0.01,0.31 -0.38,0.54 -1.04,0.51 -3.55,-0.13 -7.68,-0.49 -8.04,-0.51 -0.29,-0.01 -4.36,0.12 -6.24,0.07 -0.73,-0.02 -1.01,-0.18 -0.99,-0.57 0.01,-0.23 0.17,-0.54 0.53,-0.54 0.58,0.01 1.32,-0.14 1.9,-0.27 1.29,-0.3 1.83,-1.54 2.03,-3.48 0.28,-2.71 0.37,-5.56 0.41,-6.65 0.08,-2.29 0.13,-3.43 0.22,-5.72 z"
   id="path3872" />
			</g>
		</g>
		<path
   d="m 1121.49,728.92 0.17,-3.67 6.8,0.31 -0.17,3.67 c 3.62,1.54 6.09,5.22 5.9,9.38 -0.24,5.36 -4.79,9.51 -10.15,9.27 -5.36,-0.24 -9.51,-4.79 -9.27,-10.15 0.19,-4.17 2.97,-7.6 6.72,-8.81 z"
   id="path3878" />
		<g
   id="g3884">
			<path
   class="st3"
   d="m 1129.3,564.49 0.27,5.98 11.07,-0.5 -0.27,-5.98 c 5.9,-2.52 9.91,-8.49 9.61,-15.28 -0.4,-8.73 -7.8,-15.49 -16.53,-15.09 -8.73,0.4 -15.49,7.8 -15.09,16.53 0.3,6.78 4.83,12.37 10.94,14.34 z"
   id="path3880" />
			<path
   d="m 1131.13,557.71 0.17,3.67 6.8,-0.31 -0.17,-3.67 c 3.62,-1.54 6.09,-5.22 5.9,-9.38 -0.24,-5.36 -4.79,-9.51 -10.15,-9.27 -5.36,0.24 -9.51,4.79 -9.27,10.15 0.19,4.17 2.97,7.6 6.72,8.81 z"
   id="path3882" />
		</g>
		<g
   id="g3890">
			<path
   class="st3"
   d="m 1824.83,476.8 -0.04,5.98 11.08,0.06 0.04,-5.98 c 6.02,-2.21 10.33,-7.98 10.37,-14.77 0.05,-8.74 -6.99,-15.87 -15.74,-15.92 -8.74,-0.05 -15.87,6.99 -15.92,15.74 -0.03,6.79 4.21,12.61 10.21,14.89 z"
   id="path3886" />
			<path
   d="m 1827,470.12 -0.02,3.67 6.8,0.04 0.02,-3.67 c 3.7,-1.36 6.35,-4.9 6.37,-9.07 0.03,-5.37 -4.29,-9.74 -9.66,-9.78 -5.37,-0.04 -9.74,4.29 -9.78,9.66 -0.01,4.18 2.59,7.75 6.27,9.15 z"
   id="path3888" />
		</g>
	</g>
</g>
<g
   id="Layer_2"
   transform="matrix(0.09616001,0,0,0.09616001,-4.941695,-36.544682)">
	<g
   id="g4089">
		<linearGradient
   id="SVGID_1_"
   gradientUnits="userSpaceOnUse"
   x1="56.647598"
   y1="589.53198"
   x2="695.28088"
   y2="589.53198">
			<stop
   offset="0"
   style="stop-color:#FFF8A5"
   id="stop3895" />
			<stop
   offset="0.032"
   style="stop-color:#FDE67E"
   id="stop3897" />
			<stop
   offset="0.0572"
   style="stop-color:#F0D36F"
   id="stop3899" />
			<stop
   offset="0.1383"
   style="stop-color:#CB9A42"
   id="stop3901" />
			<stop
   offset="0.1986"
   style="stop-color:#B47727"
   id="stop3903" />
			<stop
   offset="0.2309"
   style="stop-color:#AB6A1C"
   id="stop3905" />
			<stop
   offset="0.2782"
   style="stop-color:#B67A29"
   id="stop3907" />
			<stop
   offset="0.371"
   style="stop-color:#D2A44A"
   id="stop3909" />
			<stop
   offset="0.4952"
   style="stop-color:#FDE67E"
   id="stop3911" />
			<stop
   offset="0.5121"
   style="stop-color:#F5DA75"
   id="stop3913" />
			<stop
   offset="0.5871"
   style="stop-color:#D5AA4F"
   id="stop3915" />
			<stop
   offset="0.6533"
   style="stop-color:#BE8834"
   id="stop3917" />
			<stop
   offset="0.7076"
   style="stop-color:#B07323"
   id="stop3919" />
			<stop
   offset="0.7432"
   style="stop-color:#AB6B1D"
   id="stop3921" />
			<stop
   offset="0.7848"
   style="stop-color:#AD6F20"
   id="stop3923" />
			<stop
   offset="0.8235"
   style="stop-color:#B57A29"
   id="stop3925" />
			<stop
   offset="0.861"
   style="stop-color:#C28D38"
   id="stop3927" />
			<stop
   offset="0.8978"
   style="stop-color:#D3A74C"
   id="stop3929" />
			<stop
   offset="0.9337"
   style="stop-color:#EAC967"
   id="stop3931" />
			<stop
   offset="0.9594"
   style="stop-color:#FDE67E"
   id="stop3933" />
			<stop
   offset="0.9811"
   style="stop-color:#FEF093"
   id="stop3935" />
			<stop
   offset="1"
   style="stop-color:#FFF7A0"
   id="stop3937" />
		</linearGradient>
		<path
   id="polygon3940"
   style="fill:url(#SVGID_1_)"
   d="m 381.83,552.22 297.46,87.42 15.99,-3.2 -311.32,-97.02 -327.31,74.63 3.2,6.4 z"
   class="st5" />
		<linearGradient
   id="SVGID_2_"
   gradientUnits="userSpaceOnUse"
   x1="87.566299"
   y1="501.57339"
   x2="638.77417"
   y2="501.57339">
			<stop
   offset="0"
   style="stop-color:#FFF8A5"
   id="stop3942" />
			<stop
   offset="0.032"
   style="stop-color:#FDE67E"
   id="stop3944" />
			<stop
   offset="0.0572"
   style="stop-color:#F0D36F"
   id="stop3946" />
			<stop
   offset="0.1383"
   style="stop-color:#CB9A42"
   id="stop3948" />
			<stop
   offset="0.1986"
   style="stop-color:#B47727"
   id="stop3950" />
			<stop
   offset="0.2309"
   style="stop-color:#AB6A1C"
   id="stop3952" />
			<stop
   offset="0.2782"
   style="stop-color:#B67A29"
   id="stop3954" />
			<stop
   offset="0.371"
   style="stop-color:#D2A44A"
   id="stop3956" />
			<stop
   offset="0.4952"
   style="stop-color:#FDE67E"
   id="stop3958" />
			<stop
   offset="0.5121"
   style="stop-color:#F5DA75"
   id="stop3960" />
			<stop
   offset="0.5871"
   style="stop-color:#D5AA4F"
   id="stop3962" />
			<stop
   offset="0.6533"
   style="stop-color:#BE8834"
   id="stop3964" />
			<stop
   offset="0.7076"
   style="stop-color:#B07323"
   id="stop3966" />
			<stop
   offset="0.7432"
   style="stop-color:#AB6B1D"
   id="stop3968" />
			<stop
   offset="0.7848"
   style="stop-color:#AD6F20"
   id="stop3970" />
			<stop
   offset="0.8235"
   style="stop-color:#B57A29"
   id="stop3972" />
			<stop
   offset="0.861"
   style="stop-color:#C28D38"
   id="stop3974" />
			<stop
   offset="0.8978"
   style="stop-color:#D3A74C"
   id="stop3976" />
			<stop
   offset="0.9337"
   style="stop-color:#EAC967"
   id="stop3978" />
			<stop
   offset="0.9594"
   style="stop-color:#FDE67E"
   id="stop3980" />
			<stop
   offset="0.9811"
   style="stop-color:#FEF093"
   id="stop3982" />
			<stop
   offset="1"
   style="stop-color:#FFF7A0"
   id="stop3984" />
		</linearGradient>
		<path
   id="polygon3987"
   style="fill:url(#SVGID_2_)"
   d="m 620.65,579.94 18.12,4.26 -1.06,-19.19 -5.43,1.36 -3.1,-16.29 L 379.7,418.95 87.57,544.66 l 18.12,3.29 276.14,-107.68 243.36,127.87 -0.28,0.07 z"
   class="st6" />
		<linearGradient
   id="SVGID_3_"
   gradientUnits="userSpaceOnUse"
   x1="208.37579"
   y1="450.59781"
   x2="508.40289"
   y2="750.62488">
			<stop
   offset="0"
   style="stop-color:#FFF8A5"
   id="stop3989" />
			<stop
   offset="0.032"
   style="stop-color:#FDE67E"
   id="stop3991" />
			<stop
   offset="0.0572"
   style="stop-color:#F0D36F"
   id="stop3993" />
			<stop
   offset="0.1383"
   style="stop-color:#CB9A42"
   id="stop3995" />
			<stop
   offset="0.1986"
   style="stop-color:#B47727"
   id="stop3997" />
			<stop
   offset="0.2309"
   style="stop-color:#AB6A1C"
   id="stop3999" />
			<stop
   offset="0.2782"
   style="stop-color:#B67A29"
   id="stop4001" />
			<stop
   offset="0.371"
   style="stop-color:#D2A44A"
   id="stop4003" />
			<stop
   offset="0.4952"
   style="stop-color:#FDE67E"
   id="stop4005" />
			<stop
   offset="0.5121"
   style="stop-color:#F5DA75"
   id="stop4007" />
			<stop
   offset="0.5871"
   style="stop-color:#D5AA4F"
   id="stop4009" />
			<stop
   offset="0.6533"
   style="stop-color:#BE8834"
   id="stop4011" />
			<stop
   offset="0.7076"
   style="stop-color:#B07323"
   id="stop4013" />
			<stop
   offset="0.7432"
   style="stop-color:#AB6B1D"
   id="stop4015" />
			<stop
   offset="0.7848"
   style="stop-color:#AD6F20"
   id="stop4017" />
			<stop
   offset="0.8235"
   style="stop-color:#B57A29"
   id="stop4019" />
			<stop
   offset="0.861"
   style="stop-color:#C28D38"
   id="stop4021" />
			<stop
   offset="0.8978"
   style="stop-color:#D3A74C"
   id="stop4023" />
			<stop
   offset="0.9337"
   style="stop-color:#EAC967"
   id="stop4025" />
			<stop
   offset="0.9594"
   style="stop-color:#FDE67E"
   id="stop4027" />
			<stop
   offset="0.9811"
   style="stop-color:#FEF093"
   id="stop4029" />
			<stop
   offset="1"
   style="stop-color:#FFF7A0"
   id="stop4031" />
		</linearGradient>
		<path
   id="polygon4034"
   style="fill:url(#SVGID_3_)"
   d="M 91.83,567.14 69.44,604.19 383.33,536.63 642.98,616.04 647.3,597 382.89,482.92 Z"
   class="st7" />
		<linearGradient
   id="SVGID_4_"
   gradientUnits="userSpaceOnUse"
   x1="100.3603"
   y1="634.84412"
   x2="638.77417"
   y2="634.84412">
			<stop
   offset="0"
   style="stop-color:#FFF8A5"
   id="stop4036" />
			<stop
   offset="0.032"
   style="stop-color:#FDE67E"
   id="stop4038" />
			<stop
   offset="0.0572"
   style="stop-color:#F0D36F"
   id="stop4040" />
			<stop
   offset="0.1383"
   style="stop-color:#CB9A42"
   id="stop4042" />
			<stop
   offset="0.1986"
   style="stop-color:#B47727"
   id="stop4044" />
			<stop
   offset="0.2309"
   style="stop-color:#AB6A1C"
   id="stop4046" />
			<stop
   offset="0.2782"
   style="stop-color:#B67A29"
   id="stop4048" />
			<stop
   offset="0.371"
   style="stop-color:#D2A44A"
   id="stop4050" />
			<stop
   offset="0.4952"
   style="stop-color:#FDE67E"
   id="stop4052" />
			<stop
   offset="0.5121"
   style="stop-color:#F5DA75"
   id="stop4054" />
			<stop
   offset="0.5871"
   style="stop-color:#D5AA4F"
   id="stop4056" />
			<stop
   offset="0.6533"
   style="stop-color:#BE8834"
   id="stop4058" />
			<stop
   offset="0.7076"
   style="stop-color:#B07323"
   id="stop4060" />
			<stop
   offset="0.7432"
   style="stop-color:#AB6B1D"
   id="stop4062" />
			<stop
   offset="0.7848"
   style="stop-color:#AD6F20"
   id="stop4064" />
			<stop
   offset="0.8235"
   style="stop-color:#B57A29"
   id="stop4066" />
			<stop
   offset="0.861"
   style="stop-color:#C28D38"
   id="stop4068" />
			<stop
   offset="0.8978"
   style="stop-color:#D3A74C"
   id="stop4070" />
			<stop
   offset="0.9337"
   style="stop-color:#EAC967"
   id="stop4072" />
			<stop
   offset="0.9594"
   style="stop-color:#FDE67E"
   id="stop4074" />
			<stop
   offset="0.9811"
   style="stop-color:#FEF093"
   id="stop4076" />
			<stop
   offset="1"
   style="stop-color:#FFF7A0"
   id="stop4078" />
		</linearGradient>
		<path
   id="polygon4081"
   style="fill:url(#SVGID_4_)"
   d="m 379.7,587.4 -279.34,44.78 21.32,4.26 260.15,-36.25 238.82,51.61 v 8.1 l -237.76,12.79 -258.01,-18.12 -24.52,7.46 276.14,20.26 262.27,-11.73 -2.13,-1.25 v -23.27 l -3.2,-0.85 v -3.42 z"
   class="st8" />
		<g
   id="g4087">
			<path
   class="st9"
   d="M 650.11,636.59 387.53,572.02 99.84,619.73 v 12.54 c 283.04,-39.53 283.05,-39.53 283.05,-39.53 l 248.46,54.58 v 19.76 L 381.89,679.8 99.84,661.78 v 16.07 l 287.69,19.37 266.52,-12.91 z"
   id="path4083" />
			<path
   id="polygon4085"
   style="fill:#08315c"
   d="m 381.56,485.92 265.34,111.6 v 0 l 4.02,-37.84 -0.25,-0.12 -262.19,-174.32 -301.45,138.54 -1.48,0.52 0.02,0.15 -0.09,0.04 h 0.09 l 2,20.17 295.47,-117.05 246.43,138.46 -0.18,8.43 L 382.14,461.86 89.56,563.01 56.59,614.23 383.83,543.91 695.54,635.98 682.42,620.28 385.14,527.7 82.56,599.48 100.23,568.56 Z"
   class="st9" />
		</g>
	</g>
	<g
   id="g4129">
		<path
   class="st9"
   d="m 743.58,549.57 v -26.33 h -29.62 v 26.33 h -13.35 v -62.71 h 13.35 v 24.63 h 29.62 v -24.63 h 13.45 v 62.71 z"
   id="path4091" />
		<path
   class="st9"
   d="m 774.05,549.57 v -62.71 h 44.38 v 11.75 H 787.4 v 13.26 h 30.37 v 11.75 H 787.4 v 14.2 h 31.03 v 11.75 z"
   id="path4093" />
		<path
   class="st9"
   d="m 876.82,549.57 -29.9,-40.9 v 40.9 h -13.35 v -62.71 h 13.73 l 29.05,39.4 v -39.4 h 13.35 v 62.71 z"
   id="path4095" />
		<path
   class="st9"
   d="m 942.26,549.57 -12.32,-22.28 h -9.78 v 22.28 h -13.35 v -62.71 h 29.33 c 13.07,0 21.06,8.56 21.06,20.22 0,11.09 -6.96,17.02 -13.73,18.62 l 14.1,23.88 h -15.31 z m 1.32,-42.5 c 0,-5.27 -4.04,-8.46 -9.4,-8.46 h -14.01 v 16.92 h 14.01 c 5.35,0 9.4,-3.2 9.4,-8.46 z"
   id="path4097" />
		<path
   class="st9"
   d="M 987.77,549.57 V 523.9 l -24.16,-37.05 h 15.23 l 15.61,25.2 15.42,-25.2 h 15.23 l -23.98,37.05 v 25.67 z"
   id="path4099" />
		<path
   class="st9"
   d="m 1064.4,549.57 v -62.71 h 13.35 v 50.96 h 26.51 v 11.75 z"
   id="path4101" />
		<path
   class="st9"
   d="m 1116.02,524.56 v -37.7 h 13.54 v 37.23 c 0,8.74 5.08,14.76 14.76,14.76 9.68,0 14.67,-6.02 14.67,-14.76 v -37.23 h 13.63 v 37.61 c 0,15.61 -9.21,26.23 -28.3,26.23 -19.09,0 -28.3,-10.72 -28.3,-26.14 z"
   id="path4103" />
		<path
   class="st9"
   d="m 1186.64,518.26 c 0,-19.28 14.57,-32.44 33.38,-32.44 13.82,0 21.81,7.52 26.23,15.33 l -11.47,5.64 c -2.63,-5.08 -8.27,-9.12 -14.76,-9.12 -11.38,0 -19.65,8.74 -19.65,20.59 0,11.85 8.27,20.59 19.65,20.59 6.49,0 12.13,-3.95 14.76,-9.12 l 11.47,5.55 c -4.51,7.8 -12.41,15.42 -26.23,15.42 -18.81,-0.01 -33.38,-13.17 -33.38,-32.44 z"
   id="path4105" />
		<path
   class="st9"
   d="m 1258.94,549.57 v -62.71 h 44.38 v 11.75 h -31.03 v 13.26 h 30.37 v 11.75 h -30.37 v 14.2 h 31.03 v 11.75 z"
   id="path4107" />
		<path
   class="st9"
   d="m 1347.23,549.57 v -62.71 h 13.35 v 62.71 z"
   id="path4109" />
		<path
   class="st9"
   d="m 1377.7,549.57 v -62.71 h 13.35 v 62.71 z"
   id="path4111" />
		<path
   class="st9"
   d="m 1408.16,549.57 v -62.71 h 13.35 v 62.71 z"
   id="path4113" />
		<path
   class="st9"
   d="m 1467.39,549.57 v -62.71 h 13.35 v 50.96 h 26.52 v 11.75 z"
   id="path4115" />
		<path
   class="st9"
   d="m 1521.27,549.57 v -62.71 h 13.35 v 62.71 z"
   id="path4117" />
		<path
   class="st9"
   d="m 1551.73,549.57 v -62.71 h 33 c 11.94,0 18.05,7.62 18.05,15.98 0,7.9 -4.89,13.16 -10.81,14.39 6.68,1.03 12.04,7.52 12.04,15.42 0,9.4 -6.3,16.92 -18.24,16.92 z m 37.43,-44.38 c 0,-3.95 -2.82,-6.86 -7.33,-6.86 h -16.74 v 13.63 h 16.74 c 4.5,0 7.33,-2.82 7.33,-6.77 z m 1.22,25.57 c 0,-3.95 -2.82,-7.33 -8.09,-7.33 h -17.21 V 538 h 17.21 c 5.08,0 8.09,-2.73 8.09,-7.24 z"
   id="path4119" />
		<path
   class="st9"
   d="m 1654.22,549.57 -12.32,-22.28 h -9.78 v 22.28 h -13.35 v -62.71 h 29.33 c 13.07,0 21.06,8.56 21.06,20.22 0,11.09 -6.96,17.02 -13.73,18.62 l 14.1,23.88 h -15.31 z m 1.32,-42.5 c 0,-5.27 -4.04,-8.46 -9.4,-8.46 h -14.01 v 16.92 h 14.01 c 5.36,0 9.4,-3.2 9.4,-8.46 z"
   id="path4121" />
		<path
   class="st9"
   d="m 1727.19,549.57 -3.86,-10.63 h -26.89 l -3.95,10.63 h -15.23 l 24.26,-62.71 h 16.74 l 24.16,62.71 z m -17.3,-49.37 -9.78,26.99 h 19.56 z"
   id="path4123" />
		<path
   class="st9"
   d="m 1788.4,549.57 -12.32,-22.28 h -9.78 v 22.28 h -13.35 v -62.71 h 29.33 c 13.07,0 21.06,8.56 21.06,20.22 0,11.09 -6.96,17.02 -13.73,18.62 l 14.1,23.88 h -15.31 z m 1.31,-42.5 c 0,-5.27 -4.04,-8.46 -9.4,-8.46 h -14.01 v 16.92 h 14.01 c 5.36,0 9.4,-3.2 9.4,-8.46 z"
   id="path4125" />
		<path
   class="st9"
   d="M 1833.91,549.57 V 523.9 l -24.16,-37.05 h 15.23 l 15.61,25.2 15.42,-25.2 h 15.23 l -23.98,37.05 v 25.67 z"
   id="path4127" />
	</g>
	<g
   id="g4203">
		<path
   class="st9"
   d="m 697.57,595.69 c 0,-12.69 9.35,-21.36 21.23,-21.36 7.3,0 12.38,3.53 15.66,8.17 l -4.33,2.42 c -2.35,-3.47 -6.62,-6 -11.33,-6 -9.04,0 -15.91,6.93 -15.91,16.78 0,9.78 6.87,16.78 15.91,16.78 4.71,0 8.98,-2.48 11.33,-6 l 4.4,2.41 c -3.47,4.71 -8.42,8.17 -15.72,8.17 -11.9,-0.01 -21.24,-8.68 -21.24,-21.37 z"
   id="path4131" />
		<path
   class="st9"
   d="m 739.47,601.33 c 0,-8.67 6.19,-15.66 14.73,-15.66 9.04,0 14.36,7.06 14.36,16.03 v 1.18 h -24.21 c 0.37,5.63 4.33,10.34 10.77,10.34 3.41,0 6.87,-1.36 9.22,-3.78 l 2.23,3.03 c -2.97,2.97 -7,4.58 -11.89,4.58 -8.83,0 -15.21,-6.38 -15.21,-15.72 z m 14.68,-11.83 c -6.38,0 -9.53,5.39 -9.78,9.97 h 19.62 c -0.06,-4.46 -3.03,-9.97 -9.84,-9.97 z"
   id="path4133" />
		<path
   class="st9"
   d="m 796.55,616.31 v -19.56 c 0,-5.26 -2.66,-6.93 -6.69,-6.93 -3.65,0 -7.12,2.23 -8.85,4.64 v 21.85 h -4.64 v -29.9 h 4.64 v 4.33 c 2.1,-2.48 6.19,-5.08 10.65,-5.08 6.25,0 9.53,3.16 9.53,9.66 v 20.99 z"
   id="path4135" />
		<path
   class="st9"
   d="m 811.72,610.05 v -19.56 h -4.95 v -4.09 h 4.95 v -8.17 h 4.64 v 8.17 h 6.07 v 4.09 h -6.07 v 18.57 c 0,2.23 0.99,3.84 3.03,3.84 1.3,0 2.54,-0.56 3.16,-1.24 l 1.36,3.47 c -1.18,1.11 -2.85,1.92 -5.57,1.92 -4.39,0 -6.62,-2.54 -6.62,-7 z"
   id="path4137" />
		<path
   class="st9"
   d="m 829.3,616.31 v -29.9 h 4.64 v 4.83 c 2.41,-3.16 5.88,-5.45 9.97,-5.45 v 4.77 c -0.56,-0.12 -1.11,-0.19 -1.86,-0.19 -2.85,0 -6.75,2.35 -8.11,4.77 v 21.17 z"
   id="path4139" />
		<path
   class="st9"
   d="m 868.73,616.31 v -3.41 c -2.48,2.72 -5.88,4.15 -9.9,4.15 -5.08,0 -10.46,-3.4 -10.46,-9.9 0,-6.69 5.39,-9.84 10.46,-9.84 4.09,0 7.49,1.3 9.9,4.09 V 596 c 0,-4.02 -3.22,-6.31 -7.55,-6.31 -3.59,0 -6.5,1.3 -9.16,4.15 l -2.17,-3.22 c 3.22,-3.34 7.06,-4.95 11.95,-4.95 6.31,0 11.58,2.85 11.58,10.09 v 20.55 z m 0,-6.32 v -5.63 c -1.79,-2.48 -4.95,-3.71 -8.23,-3.71 -4.33,0 -7.37,2.72 -7.37,6.56 0,3.78 3.03,6.5 7.37,6.5 3.28,0 6.43,-1.24 8.23,-3.72 z"
   id="path4141" />
		<path
   class="st9"
   d="m 882.97,616.31 v -41.29 h 4.64 v 41.29 z"
   id="path4143" />
		<path
   class="st9"
   d="m 913.67,616.31 v -41.29 h 16.59 c 8.3,0 12.94,5.7 12.94,12.44 0,6.75 -4.77,12.44 -12.94,12.44 h -11.45 v 16.41 z m 24.21,-28.85 c 0,-4.64 -3.34,-7.86 -8.23,-7.86 h -10.83 v 15.72 h 10.83 c 4.88,0 8.23,-3.22 8.23,-7.86 z"
   id="path4145" />
		<path
   class="st9"
   d="m 970.38,616.31 v -19.69 c 0,-5.26 -2.72,-6.81 -6.75,-6.81 -3.59,0 -7.06,2.23 -8.85,4.64 v 21.85 h -4.64 v -41.29 h 4.64 v 15.72 c 2.1,-2.48 6.19,-5.08 10.71,-5.08 6.25,0 9.53,3.03 9.53,9.53 v 21.11 h -4.64 z"
   id="path4147" />
		<path
   class="st9"
   d="m 983.81,579.04 c 0,-1.73 1.42,-3.16 3.1,-3.16 1.73,0 3.16,1.42 3.16,3.16 0,1.74 -1.42,3.09 -3.16,3.09 -1.68,0.01 -3.1,-1.36 -3.1,-3.09 z m 0.8,37.27 v -29.9 h 4.64 v 29.9 z"
   id="path4149" />
		<path
   class="st9"
   d="m 998.85,616.31 v -41.29 h 4.64 v 41.29 z"
   id="path4151" />
		<path
   class="st9"
   d="m 1012.28,579.04 c 0,-1.73 1.42,-3.16 3.1,-3.16 1.73,0 3.16,1.42 3.16,3.16 0,1.74 -1.42,3.09 -3.16,3.09 -1.67,0.01 -3.1,-1.36 -3.1,-3.09 z m 0.81,37.27 v -29.9 h 4.64 v 29.9 z"
   id="path4153" />
		<path
   class="st9"
   d="m 1031.97,611.79 v 15.91 h -4.64 v -41.29 h 4.64 v 4.46 c 2.17,-3.03 5.88,-5.2 10.09,-5.2 7.86,0 13.31,5.94 13.31,15.66 0,9.66 -5.45,15.72 -13.31,15.72 -4.09,0 -7.68,-1.92 -10.09,-5.26 z m 18.51,-10.46 c 0,-6.62 -3.59,-11.51 -9.59,-11.51 -3.65,0 -7.3,2.17 -8.91,4.77 v 13.5 c 1.61,2.6 5.26,4.83 8.91,4.83 6,-0.02 9.59,-4.97 9.59,-11.59 z"
   id="path4155" />
		<path
   class="st9"
   d="m 1067.69,611.79 v 15.91 h -4.64 v -41.29 h 4.64 v 4.46 c 2.17,-3.03 5.88,-5.2 10.09,-5.2 7.86,0 13.31,5.94 13.31,15.66 0,9.66 -5.45,15.72 -13.31,15.72 -4.09,0 -7.68,-1.92 -10.09,-5.26 z m 18.51,-10.46 c 0,-6.62 -3.59,-11.51 -9.59,-11.51 -3.65,0 -7.3,2.17 -8.91,4.77 v 13.5 c 1.61,2.6 5.26,4.83 8.91,4.83 6,-0.02 9.59,-4.97 9.59,-11.59 z"
   id="path4157" />
		<path
   class="st9"
   d="m 1097.96,579.04 c 0,-1.73 1.42,-3.16 3.1,-3.16 1.73,0 3.16,1.42 3.16,3.16 0,1.74 -1.42,3.09 -3.16,3.09 -1.68,0.01 -3.1,-1.36 -3.1,-3.09 z m 0.8,37.27 v -29.9 h 4.64 v 29.9 z"
   id="path4159" />
		<path
   class="st9"
   d="m 1133.18,616.31 v -19.56 c 0,-5.26 -2.66,-6.93 -6.69,-6.93 -3.65,0 -7.12,2.23 -8.85,4.64 v 21.85 H 1113 v -29.9 h 4.64 v 4.33 c 2.1,-2.48 6.19,-5.08 10.65,-5.08 6.25,0 9.53,3.16 9.53,9.66 v 20.99 z"
   id="path4161" />
		<path
   class="st9"
   d="m 1145.69,601.33 c 0,-8.67 6.19,-15.66 14.73,-15.66 9.04,0 14.36,7.06 14.36,16.03 v 1.18 h -24.21 c 0.37,5.63 4.33,10.34 10.77,10.34 3.41,0 6.87,-1.36 9.22,-3.78 l 2.23,3.03 c -2.97,2.97 -7,4.58 -11.89,4.58 -8.84,0 -15.21,-6.38 -15.21,-15.72 z m 14.67,-11.83 c -6.38,0 -9.53,5.39 -9.78,9.97 h 19.62 c -0.06,-4.46 -3.03,-9.97 -9.84,-9.97 z"
   id="path4163" />
		<path
   class="st9"
   d="m 1199.05,600.27 v -25.26 h 5.14 v 25.13 c 0,7.55 4.09,12.32 11.7,12.32 7.61,0 11.7,-4.77 11.7,-12.32 v -25.13 h 5.14 v 25.2 c 0,10.28 -5.63,16.84 -16.84,16.84 -11.21,0 -16.84,-6.62 -16.84,-16.78 z"
   id="path4165" />
		<path
   class="st9"
   d="m 1262.69,616.31 v -19.56 c 0,-5.26 -2.66,-6.93 -6.69,-6.93 -3.65,0 -7.12,2.23 -8.85,4.64 v 21.85 h -4.64 v -29.9 h 4.64 v 4.33 c 2.1,-2.48 6.19,-5.08 10.65,-5.08 6.25,0 9.53,3.16 9.53,9.66 v 20.99 z"
   id="path4167" />
		<path
   class="st9"
   d="m 1276.12,579.04 c 0,-1.73 1.42,-3.16 3.1,-3.16 1.73,0 3.16,1.42 3.16,3.16 0,1.74 -1.42,3.09 -3.16,3.09 -1.68,0.01 -3.1,-1.36 -3.1,-3.09 z m 0.8,37.27 v -29.9 h 4.64 v 29.9 z"
   id="path4169" />
		<path
   class="st9"
   d="m 1299.15,616.31 -12.44,-29.9 h 5.01 l 9.97,24.51 9.9,-24.51 h 5.08 l -12.44,29.9 z"
   id="path4171" />
		<path
   class="st9"
   d="m 1320.07,601.33 c 0,-8.67 6.19,-15.66 14.73,-15.66 9.04,0 14.36,7.06 14.36,16.03 v 1.18 h -24.21 c 0.37,5.63 4.33,10.34 10.77,10.34 3.41,0 6.87,-1.36 9.22,-3.78 l 2.23,3.03 c -2.97,2.97 -7,4.58 -11.89,4.58 -8.83,0 -15.21,-6.38 -15.21,-15.72 z m 14.67,-11.83 c -6.38,0 -9.53,5.39 -9.78,9.97 h 19.62 c -0.06,-4.46 -3.03,-9.97 -9.84,-9.97 z"
   id="path4173" />
		<path
   class="st9"
   d="m 1356.96,616.31 v -29.9 h 4.64 v 4.83 c 2.41,-3.16 5.88,-5.45 9.97,-5.45 v 4.77 c -0.56,-0.12 -1.11,-0.19 -1.86,-0.19 -2.85,0 -6.75,2.35 -8.11,4.77 v 21.17 z"
   id="path4175" />
		<path
   class="st9"
   d="m 1375.1,612.35 2.41,-3.34 c 1.98,2.29 5.76,4.27 9.84,4.27 4.58,0 7.06,-2.17 7.06,-5.14 0,-7.24 -18.51,-2.79 -18.51,-13.87 0,-4.64 4.02,-8.61 11.14,-8.61 5.08,0 8.67,1.92 11.08,4.33 l -2.17,3.22 c -1.8,-2.17 -5.08,-3.78 -8.92,-3.78 -4.09,0 -6.62,2.04 -6.62,4.71 0,6.56 18.51,2.23 18.51,13.87 0,5.01 -4.02,9.04 -11.76,9.04 -4.88,0 -9.03,-1.49 -12.06,-4.7 z"
   id="path4177" />
		<path
   class="st9"
   d="m 1405.99,579.04 c 0,-1.73 1.42,-3.16 3.1,-3.16 1.73,0 3.16,1.42 3.16,3.16 0,1.74 -1.42,3.09 -3.16,3.09 -1.67,0.01 -3.1,-1.36 -3.1,-3.09 z m 0.81,37.27 v -29.9 h 4.64 v 29.9 z"
   id="path4179" />
		<path
   class="st9"
   d="m 1421.96,610.05 v -19.56 h -4.95 v -4.09 h 4.95 v -8.17 h 4.64 v 8.17 h 6.07 v 4.09 h -6.07 v 18.57 c 0,2.23 0.99,3.84 3.03,3.84 1.3,0 2.54,-0.56 3.16,-1.24 l 1.36,3.47 c -1.18,1.11 -2.85,1.92 -5.57,1.92 -4.39,0 -6.62,-2.54 -6.62,-7 z"
   id="path4181" />
		<path
   class="st9"
   d="m 1438.61,623.8 c 0.68,0.31 1.8,0.5 2.54,0.5 2.04,0 3.41,-0.68 4.46,-3.16 l 1.98,-4.52 -12.5,-30.21 h 5.01 l 9.97,24.51 9.9,-24.51 h 5.08 l -14.98,35.97 c -1.8,4.33 -4.83,6 -8.79,6.07 -0.99,0 -2.54,-0.19 -3.4,-0.43 z"
   id="path4183" />
		<path
   class="st9"
   d="m 1486.65,616.31 v -41.29 h 5.14 v 36.71 h 19.19 v 4.58 z"
   id="path4185" />
		<path
   class="st9"
   d="m 1517.54,579.04 c 0,-1.73 1.42,-3.16 3.1,-3.16 1.73,0 3.16,1.42 3.16,3.16 0,1.74 -1.42,3.09 -3.16,3.09 -1.67,0.01 -3.1,-1.36 -3.1,-3.09 z m 0.81,37.27 v -29.9 h 4.64 v 29.9 z"
   id="path4187" />
		<path
   class="st9"
   d="m 1532.58,616.31 v -41.29 h 4.64 v 15.91 c 2.41,-3.28 6,-5.26 10.09,-5.26 7.8,0 13.31,6.19 13.31,15.72 0,9.72 -5.51,15.66 -13.31,15.66 -4.21,0 -7.86,-2.17 -10.09,-5.2 v 4.46 z m 13.56,-3.41 c 6.07,0 9.66,-4.89 9.66,-11.51 0,-6.62 -3.59,-11.58 -9.66,-11.58 -3.65,0 -7.3,2.23 -8.91,4.83 v 13.56 c 1.61,2.6 5.26,4.7 8.91,4.7 z"
   id="path4189" />
		<path
   class="st9"
   d="m 1568.49,616.31 v -29.9 h 4.64 v 4.83 c 2.41,-3.16 5.88,-5.45 9.97,-5.45 v 4.77 c -0.56,-0.12 -1.11,-0.19 -1.86,-0.19 -2.85,0 -6.75,2.35 -8.11,4.77 v 21.17 z"
   id="path4191" />
		<path
   class="st9"
   d="m 1607.92,616.31 v -3.41 c -2.48,2.72 -5.88,4.15 -9.9,4.15 -5.08,0 -10.46,-3.4 -10.46,-9.9 0,-6.69 5.39,-9.84 10.46,-9.84 4.09,0 7.49,1.3 9.9,4.09 V 596 c 0,-4.02 -3.22,-6.31 -7.55,-6.31 -3.59,0 -6.5,1.3 -9.16,4.15 l -2.17,-3.22 c 3.22,-3.34 7.06,-4.95 11.95,-4.95 6.31,0 11.58,2.85 11.58,10.09 v 20.55 z m 0,-6.32 v -5.63 c -1.79,-2.48 -4.95,-3.71 -8.23,-3.71 -4.33,0 -7.37,2.72 -7.37,6.56 0,3.78 3.03,6.5 7.37,6.5 3.28,0 6.44,-1.24 8.23,-3.72 z"
   id="path4193" />
		<path
   class="st9"
   d="m 1622.16,616.31 v -29.9 h 4.64 v 4.83 c 2.41,-3.16 5.88,-5.45 9.97,-5.45 v 4.77 c -0.56,-0.12 -1.11,-0.19 -1.86,-0.19 -2.85,0 -6.75,2.35 -8.11,4.77 v 21.17 z"
   id="path4195" />
		<path
   class="st9"
   d="m 1642.09,579.04 c 0,-1.73 1.42,-3.16 3.1,-3.16 1.73,0 3.16,1.42 3.16,3.16 0,1.74 -1.42,3.09 -3.16,3.09 -1.67,0.01 -3.1,-1.36 -3.1,-3.09 z m 0.81,37.27 v -29.9 h 4.64 v 29.9 z"
   id="path4197" />
		<path
   class="st9"
   d="m 1655.4,601.33 c 0,-8.67 6.19,-15.66 14.73,-15.66 9.04,0 14.36,7.06 14.36,16.03 v 1.18 h -24.21 c 0.37,5.63 4.33,10.34 10.77,10.34 3.41,0 6.87,-1.36 9.22,-3.78 l 2.23,3.03 c -2.97,2.97 -7,4.58 -11.89,4.58 -8.83,0 -15.21,-6.38 -15.21,-15.72 z m 14.67,-11.83 c -6.38,0 -9.53,5.39 -9.78,9.97 h 19.62 c -0.06,-4.46 -3.03,-9.97 -9.84,-9.97 z"
   id="path4199" />
		<path
   class="st9"
   d="m 1689.7,612.35 2.41,-3.34 c 1.98,2.29 5.76,4.27 9.84,4.27 4.58,0 7.06,-2.17 7.06,-5.14 0,-7.24 -18.51,-2.79 -18.51,-13.87 0,-4.64 4.02,-8.61 11.14,-8.61 5.08,0 8.67,1.92 11.08,4.33 l -2.17,3.22 c -1.8,-2.17 -5.08,-3.78 -8.92,-3.78 -4.09,0 -6.62,2.04 -6.62,4.71 0,6.56 18.51,2.23 18.51,13.87 0,5.01 -4.02,9.04 -11.76,9.04 -4.88,0 -9.03,-1.49 -12.06,-4.7 z"
   id="path4201" />
	</g>
</g>
</svg>
