<?xml version="1.0" encoding="utf-8"?>
<!-- Generator: Adobe Illustrator 16.0.3, SVG Export Plug-In . SVG Version: 6.00 Build 0)  -->
<!DOCTYPE svg PUBLIC "-//W3C//DTD SVG 1.1//EN" "http://www.w3.org/Graphics/SVG/1.1/DTD/svg11.dtd">
<svg version="1.1"
	 id="svg3053" xmlns:svg="http://www.w3.org/2000/svg" xmlns:dc="http://purl.org/dc/elements/1.1/" xmlns:sodipodi="http://sodipodi.sourceforge.net/DTD/sodipodi-0.dtd" xmlns:rdf="http://www.w3.org/1999/02/22-rdf-syntax-ns#" xmlns:cc="http://creativecommons.org/ns#" xmlns:inkscape="http://www.inkscape.org/namespaces/inkscape" sodipodi:docname="DSpace-logo-line.svg" inkscape:version="0.48.2 r9819"
	 xmlns="http://www.w3.org/2000/svg" xmlns:xlink="http://www.w3.org/1999/xlink" x="0px" y="0px" width="600px" height="39px"
	 viewBox="0 -8 600 39" enable-background="new 0 -8 600 39" xml:space="preserve">
<sodipodi:namedview  id="namedview3077" inkscape:cy="31.629348" guidetolerance="10" inkscape:zoom="6.2769679" showgrid="false" borderopacity="1" objecttolerance="10" pagecolor="#ffffff" bordercolor="#666666" gridtolerance="10" inkscape:cx="101.91044" inkscape:window-maximized="0" inkscape:window-x="2128" inkscape:window-y="295" inkscape:current-layer="svg3053" inkscape:pageopacity="0" inkscape:pageshadow="2" inkscape:window-width="2348" inkscape:window-height="1049">
	</sodipodi:namedview>
<g>
	<path fill-rule="evenodd" clip-rule="evenodd" fill="#5FA9DD" d="M20.943-7c0.773,0,1.537,0,2.31,0
		c9.053,0.739,14.002,5.582,16.785,12.591c-0.38,0.271-0.868,0.434-1.261,0.702C36.244-0.46,31.347-5.27,22.623-5.596
		c-4.411-0.173-7.962,1.541-10.494,3.563C9.44,0.114,7.5,2.756,6.255,6.15C5.693,6.097,5.314,6.229,4.79,6.222
		C7.428-0.933,12.107-6.045,20.943-7z"/>
	<path fill-rule="evenodd" clip-rule="evenodd" fill="#5FA9DD" d="M47.591,5.031c0.071,0.491-0.396,0.486-0.701,0.56
		c-1.247,0.306-2.674,0.291-3.848,0.631c-1.608,0.457-4,1.534-3.848,3.421c0.038,0.467,0.591,1.173,0.915,1.475
		c1.789,1.65,6.704,1.718,9.508,0.906c0.145,0.161,0.389,0.225,0.63,0.276c-1.789,0.717-4.168,1.376-6.788,1.263
		c-2.391-0.109-5.316-1.374-5.66-3.422c-0.183-1.099,0.254-1.943,0.764-2.523C40.326,5.626,43.871,4.992,47.591,5.031z"/>
	<path fill-rule="evenodd" clip-rule="evenodd" fill="#5FA9DD" d="M19.549,5.449c0.478,2.422,0.892,5.277,1.395,7.97
		c0.275,1.508,0.432,2.881,1.191,3.572c-0.887,0.18-1.908,0.219-2.871,0.142c0.113-0.538,0.741-0.57,0.978-0.977
		c-0.089-1.152-0.378-2.096-0.489-3.217c-0.292-0.147-0.851-0.035-1.261-0.071c-0.344,0.91-0.407,2.101-0.693,3.074
		c0.323,0.471,1.018,0.553,1.253,1.12c-1.397,0.156-3.004-0.07-4.194-0.355c0.218-0.476,0.724-0.662,1.19-0.906
		c0.725-3.514,1.664-6.817,2.381-10.352C18.796,5.449,19.172,5.449,19.549,5.449z M18.704,11.74c0.284,0,0.56,0,0.845,0
		c-0.14-0.726-0.163-1.56-0.498-2.097C19.026,10.432,18.741,10.962,18.704,11.74z"/>
	<path fill-rule="evenodd" clip-rule="evenodd" fill="#5FA9DD" d="M9.757,6.781c-0.119,0.328-0.375,0.51-0.561,0.765
		C6.981,7.745,5.153,7.527,3.741,8.46c-1.804,1.18,0.927,2.013,1.884,2.515c0.741,0.384,2.169,1.102,1.893,2.232
		c-0.124,0.494-0.904,0.784-1.608,0.781c-2.035-0.028-3.143-1.503-3.848-2.454c1.486,0.144,1.885,1.375,3.634,1.262
		c-0.021-0.976-1.211-1.278-2.168-1.68C2.32,10.601-0.03,9.89,1.502,8.318C2.947,6.835,6.544,6.711,9.757,6.781z"/>
	<path fill-rule="evenodd" clip-rule="evenodd" fill="#5FA9DD" d="M17.167,7.546c-0.198,0.922-0.383,1.856-0.631,2.728
		c-0.146,0.219-0.562-0.44-0.773-0.631c0.064-1.644-1.904-1.254-3.279-1.466c-0.339,0.717-0.377,1.72-0.631,2.515
		c0.363,0.155,0.833,0.195,1.324,0.213c0.25-0.727,0.523-1.432,1.119-1.822c0.397,0.305,0.628,0.775,1.049,1.057
		c-0.836,0.651-1.41,2.76-0.56,3.848c-0.812-0.074-1.467-0.906-1.537-1.965c-0.603,0.052-1.049-0.069-1.608-0.07
		c0.039,0.661-0.763,1.795-0.561,2.515c0.212,0.723,3.469,1.152,3.572,0c0.292,0.025,0.452-0.107,0.693-0.142
		c-0.255,0.78-0.487,1.576-0.764,2.311c-2.888-0.513-5.56-1.241-7.979-2.239c0.771-0.478,1.491,0.029,2.594-0.071
		c0.581-1.884,0.921-4.017,1.396-6.008c-0.503-0.056-0.579,0.908-1.262,0.907c0.211-0.867,0.489-1.65,0.773-2.444
		C12.43,7.069,14.852,7.255,17.167,7.546z"/>
	<path fill-rule="evenodd" clip-rule="evenodd" fill="#5FA9DD" d="M21.645,7.759c2.3-0.04,4.466,0.054,6.709,0.071
		c0.018,0.561-0.006,1.661,0,2.443c-0.402-0.198-0.854-0.35-0.835-0.977c-0.558-0.654-2.075-0.347-3.216-0.417
		c0,0.864,0,1.721,0,2.585c0.255,0.162,0.814,0.021,1.19,0.07c0.093-0.813,0.218-1.603,0.693-2.026
		c0.434,0.198,0.688,0.565,1.119,0.765c-0.799,1.026-0.546,2.885,0.072,3.91c-0.941-0.19-1.324-0.948-1.68-1.741
		c-0.47,0.04-0.918,0.108-1.324,0.213c-0.307,0.806-0.067,2.172-0.143,3.217c0.29,0.32,0.975,0.244,1.262,0.551
		c-0.862,0.387-2.091,0.391-3.154,0.568c0.037-0.431,0.267-0.678,0.427-0.978c0-2.381,0-4.763,0-7.135
		c-0.537,0.307-0.647,1.032-1.333,1.189C21.328,9.404,21.645,8.553,21.645,7.759z"/>
	<path fill-rule="evenodd" clip-rule="evenodd" fill="#5FA9DD" d="M28.843,7.9c3.335-0.174,6.286,0.563,6.228,3.217
		c-0.052,2.227-2.528,3.101-4.478,3.848c-1.623,0.614-3.377,1.096-4.825,1.458c0.327-0.835,1.395-0.803,2.168-1.119
		c0.813-0.326,1.497-0.761,2.097-1.174c0.013-1.791-0.124-3.428-0.142-5.181c-0.675,0.11-0.278,1.302-1.048,1.324
		C28.626,9.547,28.926,8.719,28.843,7.9z M31.5,13.49c2.737-0.331,3.21-4.668-0.347-4.47C31.295,10.487,31.42,11.97,31.5,13.49z"/>
	<path fill-rule="evenodd" clip-rule="evenodd" fill="#5FA9DD" d="M37.168,7.9c0.437,0.893-1.027,1.108-0.907,1.742
		c0.094,0.538,0.747,0.263,1.191,0.56c-0.19,0.45-0.81,0.452-0.915,0.986c0.147,0.618,0.845,0.692,1.466,0.835
		c0.175,0.245,0.233,0.603,0.426,0.845c-0.756-0.167-1.862-0.568-3.145-0.426c0.325-0.979,0.328-2.641-0.355-3.217
		C35.668,8.773,36.61,8.532,37.168,7.9z"/>
	<path fill-rule="evenodd" clip-rule="evenodd" fill="#5FA9DD" d="M5.554,8.176C5.965,8.102,6.35,8.232,6.469,8.595
		C6.901,9.997,4.935,10.02,4.86,9.021C4.827,8.611,4.939,8.297,5.554,8.176z"/>
	<path fill-rule="evenodd" clip-rule="evenodd" fill="#5FA9DD" d="M40.803,13.988c-0.685,4.886-2.818,8.433-5.874,11.178
		c-2.89,2.599-6.977,4.862-12.235,4.834c-5.217-0.028-9.486-2.025-12.449-4.62c-3.083-2.684-5.128-6.292-6.016-10.982
		c0.326-0.149,1.232,0.292,1.68,0.496c0.82,4.087,2.818,7.09,5.589,9.438c2.598,2.198,6.249,4.188,10.778,4.193
		c4.9,0.023,8.931-1.997,11.676-4.478c2.892-2.603,4.787-6.002,5.526-10.557c-0.033-0.139,0.043-0.253,0.071-0.142
		C40.005,13.524,40.423,13.736,40.803,13.988z"/>
</g>
<g>
	<path fill="#5FA9DD" d="M69.342-0.516l-0.544,3.008l-0.512,0.193c-1.34-0.994-2.88-1.568-4.192-1.568
		c-2.206,0-3.423,1.47-3.423,2.88c0,3.775,9.248,3.422,9.248,9.408c0,3.33-2.88,6.08-7.229,6.08c-1.856,0-3.936-0.478-5.764-1.379
		l0.418-3.263l0.415-0.191c1.665,1.566,3.746,2.241,5.25,2.241c2.337,0,3.649-1.473,3.649-2.979c0-3.996-9.217-3.454-9.217-9.47
		c0-3.359,2.847-5.983,7.039-5.983C65.824-1.54,67.521-1.284,69.342-0.516z"/>
	<path fill="#5FA9DD" d="M85.561,16.7l-0.224,2.525H73.209l0.223-6.174L73.209-1.317h12.193l0.19,0.287L85.337,1.5l-4.866-0.127
		l-3.899,0.03l-0.097,5.985l3.707,0.063l3.397-0.095l0.222,0.254l-0.257,2.53l-3.613-0.097l-3.488,0.064l-0.033,2.657l0.094,3.777
		l3.907,0.029l4.959-0.162L85.561,16.7z"/>
	<path fill="#5FA9DD" d="M100.309,19.226l-0.479-2.3l-0.894-2.849l-4.354-0.097l-3.936,0.097l-0.963,2.688l-0.508,2.461h-3.298
		l7.331-20.542h3.871l6.621,20.542H100.309z M95.158,1.915h-0.226l-3.361,9.472l3.232,0.065l3.298-0.065L95.158,1.915z"/>
	<path fill="#5FA9DD" d="M109.615,7.87l3.231,0.063l3.392-0.098l0.227,0.289l-0.26,2.494l-3.646-0.095l-2.977,0.031l-0.029,2.21
		l0.159,6.461h-3.36l0.223-6.174l-0.223-14.369h11.488l0.224,0.287l-0.257,2.593l-4.802-0.191l-3.293,0.03L109.615,7.87z"/>
	<path fill="#5FA9DD" d="M127.628-1.444c5.886,0,9.154,3.421,9.154,9.666c0,7.231-3.587,11.196-10.052,11.196
		c-1.373,0-4.989-0.093-6.878-0.191h-0.032l0.223-6.174L119.82-1.317h0.032L127.628-1.444z M133.354,8.956
		c0-5.311-1.98-7.713-5.982-7.713c-0.671,0-2.975,0.065-4.192,0.13l-0.158,11.392l0.095,3.807c1.44,0.129,3.52,0.222,4.191,0.222
		C131.148,16.793,133.354,14.299,133.354,8.956z"/>
	<path fill="#5FA9DD" d="M152.263,16.7l-0.222,2.525h-12.13l0.221-6.174l-0.221-14.369h12.191l0.189,0.287L152.041,1.5l-4.867-0.127
		l-3.905,0.03l-0.095,5.985l3.711,0.063l3.395-0.095l0.223,0.254l-0.258,2.53l-3.61-0.097l-3.491,0.064l-0.031,2.657l0.096,3.777
		l3.903,0.029l4.962-0.162L152.263,16.7z"/>
	<path fill="#5FA9DD" d="M168.223-0.132l-0.609,2.913l-0.316,0.095c-1.313-1.023-2.915-1.664-4.736-1.664
		c-3.745,0-5.792,2.529-5.792,7.584c0,5.215,2.115,7.905,5.792,7.905c1.792,0,3.651-0.642,5.121-1.762L168,15.13l-0.257,3.008
		c-1.759,0.869-3.457,1.347-5.44,1.347c-5.758,0-8.992-3.711-8.992-10.337c0-6.846,3.426-10.687,9.378-10.687
		C164.831-1.54,166.688-1.03,168.223-0.132z"/>
	<path fill="#5FA9DD" d="M171.005,22.876h-2.273l-0.19-0.289L175.1-2.5h2.214l0.251,0.321L171.005,22.876z"/>
	<path fill="#5FA9DD" d="M191.354,19.226l-0.478-2.3l-0.899-2.849l-4.351-0.097l-3.938,0.097l-0.959,2.688l-0.513,2.461h-3.295
		l7.328-20.542h3.871l6.624,20.542H191.354z M186.198,1.915h-0.219l-3.361,9.472l3.228,0.065l3.303-0.065L186.198,1.915z"/>
	<path fill="#5FA9DD" d="M217.687,23.26c-0.48,0.961-0.898,1.537-1.508,2.114l-0.285,0.126c-3.967-1.218-7.777-3.267-11.011-6.016
		l-0.702,0.032c-5.758,0-8.9-3.777-8.9-10.37c0-6.881,3.396-10.719,9.444-10.719c5.667,0,8.83,3.617,8.83,10.177
		c0,5.28-2.01,8.896-5.662,10.268c2.915,1.921,6.113,3.3,9.668,4.003L217.687,23.26z M204.438,16.86
		c3.744,0,5.692-2.433,5.692-7.809c0-5.473-1.856-7.904-5.723-7.904c-3.907,0-5.731,2.368-5.731,7.68
		C198.677,14.364,200.528,16.86,204.438,16.86z"/>
	<path fill="#5FA9DD" d="M224.618-1.444c5.89,0,9.158,3.421,9.158,9.666c0,7.231-3.585,11.196-10.052,11.196
		c-1.378,0-4.987-0.093-6.876-0.191h-0.032l0.223-6.174l-0.223-14.369h0.032L224.618-1.444z M230.35,8.956
		c0-5.311-1.987-7.713-5.982-7.713c-0.675,0-2.976,0.065-4.192,0.13l-0.158,11.392l0.088,3.807c1.447,0.129,3.527,0.222,4.197,0.222
		C228.144,16.793,230.35,14.299,230.35,8.956z"/>
</g>
<g>
	<path d="M244.679,19.226h-3.359l0.223-6.174l-0.223-14.369h3.392l-0.19,14.082L244.679,19.226z"/>
	<path d="M265.954,19.226h-3.55L252.77,3.836h-0.261l-0.029,8.511l0.164,6.878h-3.107l0.223-6.078l-0.158-14.464h3.518l9.667,15.394
		h0.252l-0.094-15.233l3.104-0.226l-0.224,14.463L265.954,19.226z"/>
	<path d="M281.721-0.516l-0.544,3.008l-0.508,0.193c-1.345-0.994-2.884-1.568-4.196-1.568c-2.205,0-3.424,1.47-3.424,2.88
		c0,3.775,9.249,3.422,9.249,9.408c0,3.33-2.884,6.08-7.232,6.08c-1.859,0-3.938-0.478-5.762-1.379l0.419-3.263l0.418-0.191
		c1.661,1.566,3.745,2.241,5.248,2.241c2.331,0,3.643-1.473,3.643-2.979c0-3.996-9.216-3.454-9.216-9.47
		c0-3.359,2.848-5.983,7.044-5.983C278.203-1.54,279.901-1.284,281.721-0.516z"/>
	<path d="M297.398,1.468l-3.711-0.191h-1.728l-0.16,11.487l0.16,6.461h-3.332l0.192-6.174l-0.164-11.774h-1.724l-3.773,0.191
		l-0.225-0.289l0.253-2.497h14.211l0.191,0.287L297.398,1.468z"/>
	<path d="M303.568,19.226h-3.359l0.224-6.174l-0.224-14.369h3.392l-0.19,14.082L303.568,19.226z"/>
	<path d="M320.754,1.468l-3.715-0.191h-1.725l-0.163,11.487l0.163,6.461h-3.335l0.192-6.174l-0.16-11.774h-1.728l-3.773,0.191
		l-0.222-0.289l0.252-2.497h14.213l0.19,0.287L320.754,1.468z"/>
	<path d="M338.695,11.547c0.1,5.024-2.844,7.937-8.032,7.937c-4.987,0-7.746-2.75-7.644-7.681l0.062-2.847L323.02-1.317h3.262
		l-0.126,12.673c-0.038,3.583,1.535,5.311,4.735,5.311c3.132,0,4.797-1.632,4.769-4.992l-0.164-12.992h3.333l-0.103,10.431
		L338.695,11.547z"/>
	<path d="M355.362,1.468l-3.708-0.191h-1.73l-0.158,11.487l0.158,6.461h-3.327l0.191-6.174l-0.163-11.774h-1.724l-3.775,0.191
		l-0.228-0.289l0.258-2.497h14.206l0.19,0.287L355.362,1.468z"/>
	<path d="M361.531,19.226h-3.359l0.224-6.174l-0.224-14.369h3.392l-0.19,14.082L361.531,19.226z"/>
	<path d="M383.002,8.54c0,7.009-3.424,10.977-9.439,10.977c-5.664,0-8.836-3.777-8.836-10.37c0-6.881,3.397-10.719,9.445-10.719
		C379.838-1.572,383.002,2.075,383.002,8.54z M368.124,8.731c0,5.633,1.824,8.129,5.698,8.129c3.865,0,5.756-2.4,5.756-7.713
		c0-5.569-1.824-8-5.692-8C369.977,1.147,368.124,3.515,368.124,8.731z"/>
	<path d="M402.546,19.226h-3.55l-9.634-15.389h-0.252l-0.032,8.511l0.158,6.878h-3.101l0.219-6.078l-0.161-14.464h3.525
		l9.659,15.394h0.261l-0.104-15.233l3.113-0.226l-0.228,14.463L402.546,19.226z"/>
	<path d="M419.374,19.226l-0.48-2.3l-0.896-2.849l-4.354-0.097l-3.938,0.097l-0.956,2.688l-0.514,2.461h-3.294l7.327-20.542h3.871
		l6.624,20.542H419.374z M414.219,1.915H414l-3.364,9.472l3.229,0.065l3.303-0.065L414.219,1.915z"/>
	<path d="M435.875,19.226H425.32l0.223-6.174L425.32-1.317h3.391l-0.192,14.082l0.063,3.71h7.332l0.223,0.29L435.875,19.226z"/>
</g>
<g>
	<path fill="#818285" d="M457.216,18.46l-0.033,0.383c-1.019,0.354-2.079,0.574-3.168,0.674l-0.381-0.26
		c-1.471-2.396-2.941-4.862-4.285-7.356h-3.494v0.864l0.164,6.461h-3.362l0.221-6.174l-0.221-14.369l6.972-0.03
		c4.13,0,6.504,2.11,6.504,5.981c0,2.754-1.503,5.026-4.069,6.369C453.634,13.53,455.364,15.999,457.216,18.46z M449.438,9.305
		c2.116-0.638,3.232-2.078,3.232-4.415c0-2.431-1.344-3.552-3.936-3.647l-2.716,0.095L445.92,9.21L449.438,9.305z"/>
	<path fill="#818285" d="M472.542,16.7l-0.221,2.525h-12.133l0.224-6.174l-0.224-14.369h12.189l0.192,0.287L472.321,1.5
		l-4.866-0.127l-3.908,0.03l-0.093,5.985l3.713,0.063l3.392-0.095l0.223,0.254l-0.26,2.53l-3.612-0.097l-3.487,0.064l-0.032,2.657
		l0.097,3.777l3.904,0.029l4.961-0.162L472.542,16.7z"/>
	<path fill="#818285" d="M482.231-1.347c4.126,0,6.466,2.175,6.466,6.142c0,4.608-3.01,7.49-7.974,7.49h-2.271v0.479l0.159,6.461
		h-3.359l0.223-6.174l-0.223-14.369L482.231-1.347z M481.687,9.724c2.34-0.447,3.583-2.017,3.583-4.641
		c0-2.591-1.345-3.745-3.937-3.84l-2.721,0.095l-0.126,8.323L481.687,9.724z"/>
	<path fill="#818285" d="M508.242,8.54c0,7.009-3.424,10.977-9.439,10.977c-5.666,0-8.835-3.777-8.835-10.37
		c0-6.881,3.396-10.719,9.444-10.719C505.078-1.572,508.242,2.075,508.242,8.54z M493.364,8.731c0,5.633,1.818,8.129,5.699,8.129
		c3.866,0,5.755-2.4,5.755-7.713c0-5.569-1.824-8-5.698-8C495.216,1.147,493.364,3.515,493.364,8.731z"/>
	<path fill="#818285" d="M522.254-0.516l-0.547,3.008l-0.513,0.193c-1.345-0.994-2.878-1.568-4.19-1.568
		c-2.211,0-3.421,1.47-3.421,2.88c0,3.775,9.245,3.422,9.245,9.408c0,3.33-2.881,6.08-7.23,6.08c-1.856,0-3.937-0.478-5.76-1.379
		l0.412-3.263l0.416-0.191c1.662,1.566,3.745,2.241,5.248,2.241c2.34,0,3.651-1.473,3.651-2.979c0-3.996-9.216-3.454-9.216-9.47
		c0-3.359,2.848-5.983,7.037-5.983C518.729-1.54,520.427-1.284,522.254-0.516z"/>
	<path fill="#818285" d="M529.48,19.226h-3.359l0.224-6.174l-0.224-14.369h3.392l-0.19,14.082L529.48,19.226z"/>
	<path fill="#818285" d="M546.661,1.468l-3.708-0.191h-1.73l-0.158,11.487l0.158,6.461h-3.328l0.191-6.174l-0.164-11.774h-1.723
		l-3.773,0.191l-0.229-0.289l0.256-2.497h14.208l0.19,0.287L546.661,1.468z"/>
	<path fill="#818285" d="M564.931,8.54c0,7.009-3.424,10.977-9.439,10.977c-5.666,0-8.835-3.777-8.835-10.37
		c0-6.881,3.396-10.719,9.444-10.719C561.766-1.572,564.931,2.075,564.931,8.54z M550.053,8.731c0,5.633,1.819,8.129,5.697,8.129
		c3.868,0,5.757-2.4,5.757-7.713c0-5.569-1.824-8-5.699-8C551.904,1.147,550.053,3.515,550.053,8.731z"/>
	<path fill="#818285" d="M582.619,18.46l-0.033,0.383c-1.023,0.354-2.079,0.574-3.168,0.674l-0.382-0.26
		c-1.47-2.396-2.942-4.862-4.284-7.356h-3.494v0.864l0.16,6.461h-3.36l0.223-6.174l-0.223-14.369l6.979-0.03
		c4.126,0,6.499,2.11,6.499,5.981c0,2.754-1.504,5.026-4.071,6.369C579.036,13.53,580.768,15.999,582.619,18.46z M574.84,9.305
		c2.117-0.638,3.233-2.078,3.233-4.415c0-2.431-1.344-3.552-3.936-3.647l-2.72,0.095l-0.095,7.873L574.84,9.305z"/>
	<path fill="#818285" d="M591.956,19.226h-3.326l0.19-5.887l-0.032-1.312l-6.527-13.344h3.518l0.418,1.282l4.062,8.604h0.293
		l4.48-8.542l0.507-1.345H599l-7.17,13.375l-0.032,1.28L591.956,19.226z"/>
</g>
</svg>
