<?xml version="1.0" encoding="utf-8"?>
<!-- Generator: Adobe Illustrator 16.0.3, SVG Export Plug-In . SVG Version: 6.00 Build 0)  -->
<!DOCTYPE svg PUBLIC "-//W3C//DTD SVG 1.1//EN" "http://www.w3.org/Graphics/SVG/1.1/DTD/svg11.dtd">
<svg version="1.1"
	 id="svg3053" xmlns:svg="http://www.w3.org/2000/svg" xmlns:dc="http://purl.org/dc/elements/1.1/" xmlns:sodipodi="http://sodipodi.sourceforge.net/DTD/sodipodi-0.dtd" xmlns:rdf="http://www.w3.org/1999/02/22-rdf-syntax-ns#" xmlns:cc="http://creativecommons.org/ns#" xmlns:inkscape="http://www.inkscape.org/namespaces/inkscape" sodipodi:docname="DSpace-logo-line.svg" inkscape:version="0.48.2 r9819"
	 xmlns="http://www.w3.org/2000/svg" xmlns:xlink="http://www.w3.org/1999/xlink" x="0px" y="0px" width="152.609px" height="39px"
	 viewBox="0 -8 152.609 39" enable-background="new 0 -8 152.609 39" xml:space="preserve">
<sodipodi:namedview  id="namedview3077" inkscape:cy="31.629348" guidetolerance="10" inkscape:zoom="6.2769679" showgrid="false" borderopacity="1" objecttolerance="10" pagecolor="#ffffff" bordercolor="#666666" gridtolerance="10" inkscape:cx="101.91044" inkscape:window-maximized="0" inkscape:window-x="2128" inkscape:window-y="295" inkscape:current-layer="svg3053" inkscape:pageopacity="0" inkscape:pageshadow="2" inkscape:window-width="2348" inkscape:window-height="1049">
	</sodipodi:namedview>
<g>
	<path fill-rule="evenodd" clip-rule="evenodd" fill="#5FA9DD" d="M20.943-7c0.773,0,1.537,0,2.31,0
		c9.053,0.739,14.002,5.582,16.785,12.591c-0.38,0.271-0.868,0.434-1.261,0.702C36.244-0.46,31.347-5.27,22.623-5.596
		c-4.411-0.173-7.962,1.541-10.494,3.563C9.44,0.114,7.5,2.756,6.255,6.15C5.693,6.097,5.314,6.229,4.79,6.222
		C7.428-0.933,12.107-6.045,20.943-7z"/>
	<path fill-rule="evenodd" clip-rule="evenodd" fill="#5FA9DD" d="M47.591,5.031c0.071,0.491-0.396,0.486-0.701,0.56
		c-1.247,0.306-2.674,0.291-3.848,0.631c-1.608,0.457-4,1.534-3.848,3.421c0.038,0.467,0.591,1.173,0.915,1.475
		c1.789,1.65,6.704,1.718,9.508,0.906c0.145,0.161,0.389,0.225,0.63,0.276c-1.789,0.717-4.168,1.376-6.788,1.263
		c-2.391-0.109-5.316-1.374-5.66-3.422c-0.183-1.099,0.254-1.943,0.764-2.523C40.326,5.626,43.871,4.992,47.591,5.031z"/>
	<path fill-rule="evenodd" clip-rule="evenodd" fill="#5FA9DD" d="M19.549,5.449c0.478,2.422,0.892,5.277,1.395,7.97
		c0.275,1.508,0.432,2.881,1.191,3.572c-0.887,0.18-1.908,0.219-2.871,0.142c0.113-0.538,0.741-0.57,0.978-0.977
		c-0.089-1.152-0.378-2.096-0.489-3.217c-0.292-0.147-0.851-0.035-1.261-0.071c-0.344,0.91-0.407,2.101-0.693,3.074
		c0.323,0.471,1.018,0.553,1.253,1.12c-1.397,0.156-3.004-0.07-4.194-0.355c0.218-0.476,0.724-0.662,1.19-0.906
		c0.725-3.514,1.664-6.817,2.381-10.352C18.796,5.449,19.172,5.449,19.549,5.449z M18.704,11.74c0.284,0,0.56,0,0.845,0
		c-0.14-0.726-0.163-1.56-0.498-2.097C19.026,10.432,18.741,10.962,18.704,11.74z"/>
	<path fill-rule="evenodd" clip-rule="evenodd" fill="#5FA9DD" d="M9.757,6.781c-0.119,0.328-0.375,0.51-0.561,0.765
		C6.981,7.745,5.153,7.527,3.741,8.46c-1.804,1.18,0.927,2.013,1.884,2.515c0.741,0.384,2.169,1.102,1.893,2.232
		c-0.124,0.494-0.904,0.784-1.608,0.781c-2.035-0.028-3.143-1.503-3.848-2.454c1.486,0.144,1.885,1.375,3.634,1.262
		c-0.021-0.976-1.211-1.278-2.168-1.68C2.32,10.601-0.03,9.89,1.502,8.318C2.947,6.835,6.544,6.711,9.757,6.781z"/>
	<path fill-rule="evenodd" clip-rule="evenodd" fill="#5FA9DD" d="M17.167,7.546c-0.198,0.922-0.383,1.856-0.631,2.728
		c-0.146,0.219-0.562-0.44-0.773-0.631c0.064-1.644-1.904-1.254-3.279-1.466c-0.339,0.717-0.377,1.72-0.631,2.515
		c0.363,0.155,0.833,0.195,1.324,0.213c0.25-0.727,0.523-1.432,1.119-1.822c0.397,0.305,0.628,0.775,1.049,1.057
		c-0.836,0.651-1.41,2.76-0.56,3.848c-0.812-0.074-1.467-0.906-1.537-1.965c-0.603,0.052-1.049-0.069-1.608-0.07
		c0.039,0.661-0.763,1.795-0.561,2.515c0.212,0.723,3.469,1.152,3.572,0c0.292,0.025,0.452-0.107,0.693-0.142
		c-0.255,0.78-0.487,1.576-0.764,2.311c-2.888-0.513-5.56-1.241-7.979-2.239c0.771-0.478,1.491,0.029,2.594-0.071
		c0.581-1.884,0.921-4.017,1.396-6.008c-0.503-0.056-0.579,0.908-1.262,0.907c0.211-0.867,0.489-1.65,0.773-2.444
		C12.43,7.069,14.852,7.255,17.167,7.546z"/>
	<path fill-rule="evenodd" clip-rule="evenodd" fill="#5FA9DD" d="M21.645,7.759c2.3-0.04,4.466,0.054,6.709,0.071
		c0.018,0.561-0.006,1.661,0,2.443c-0.402-0.198-0.854-0.35-0.835-0.977c-0.558-0.654-2.075-0.347-3.216-0.417
		c0,0.864,0,1.721,0,2.585c0.255,0.162,0.814,0.021,1.19,0.07c0.093-0.813,0.218-1.603,0.693-2.026
		c0.434,0.198,0.688,0.565,1.119,0.765c-0.799,1.026-0.546,2.885,0.072,3.91c-0.941-0.19-1.324-0.948-1.68-1.741
		c-0.47,0.04-0.918,0.108-1.324,0.213c-0.307,0.806-0.067,2.172-0.143,3.217c0.29,0.32,0.975,0.244,1.262,0.551
		c-0.862,0.387-2.091,0.391-3.154,0.568c0.037-0.431,0.267-0.678,0.427-0.978c0-2.381,0-4.763,0-7.135
		c-0.537,0.307-0.647,1.032-1.333,1.189C21.328,9.404,21.645,8.553,21.645,7.759z"/>
	<path fill-rule="evenodd" clip-rule="evenodd" fill="#5FA9DD" d="M28.843,7.9c3.335-0.174,6.286,0.563,6.228,3.217
		c-0.052,2.227-2.528,3.101-4.478,3.848c-1.623,0.614-3.377,1.096-4.825,1.458c0.327-0.835,1.395-0.803,2.168-1.119
		c0.813-0.326,1.497-0.761,2.097-1.174c0.013-1.791-0.124-3.428-0.142-5.181c-0.675,0.11-0.278,1.302-1.048,1.324
		C28.626,9.547,28.926,8.719,28.843,7.9z M31.5,13.49c2.737-0.331,3.21-4.668-0.347-4.47C31.295,10.487,31.42,11.97,31.5,13.49z"/>
	<path fill-rule="evenodd" clip-rule="evenodd" fill="#5FA9DD" d="M37.168,7.9c0.437,0.893-1.027,1.108-0.907,1.742
		c0.094,0.538,0.747,0.263,1.191,0.56c-0.19,0.45-0.81,0.452-0.915,0.986c0.147,0.618,0.845,0.692,1.466,0.835
		c0.175,0.245,0.233,0.603,0.426,0.845c-0.756-0.167-1.862-0.568-3.145-0.426c0.325-0.979,0.328-2.641-0.355-3.217
		C35.668,8.773,36.61,8.532,37.168,7.9z"/>
	<path fill-rule="evenodd" clip-rule="evenodd" fill="#5FA9DD" d="M5.554,8.176C5.965,8.102,6.35,8.232,6.469,8.595
		C6.901,9.997,4.935,10.02,4.86,9.021C4.827,8.611,4.939,8.297,5.554,8.176z"/>
	<path fill-rule="evenodd" clip-rule="evenodd" fill="#5FA9DD" d="M40.803,13.988c-0.685,4.886-2.818,8.433-5.874,11.178
		c-2.89,2.599-6.977,4.862-12.235,4.834c-5.217-0.028-9.486-2.025-12.449-4.62c-3.083-2.684-5.128-6.292-6.016-10.982
		c0.326-0.149,1.232,0.292,1.68,0.496c0.82,4.087,2.818,7.09,5.589,9.438c2.598,2.198,6.249,4.188,10.778,4.193
		c4.9,0.023,8.931-1.997,11.676-4.478c2.892-2.603,4.787-6.002,5.526-10.557c-0.033-0.139,0.043-0.253,0.071-0.142
		C40.005,13.524,40.423,13.736,40.803,13.988z"/>
</g>
<g>
	<path fill="#5FA9DD" d="M65.297-6.061l-0.256,1.425l-0.246,0.091c-0.635-0.47-1.359-0.742-1.984-0.742
		c-1.039,0-1.615,0.692-1.615,1.36c0,1.787,4.373,1.623,4.373,4.456c0,1.574-1.358,2.875-3.418,2.875
		c-0.881,0-1.861-0.23-2.727-0.651l0.197-1.548l0.197-0.091c0.784,0.742,1.771,1.063,2.48,1.063c1.104,0,1.729-0.7,1.729-1.409
		c0-1.894-4.365-1.639-4.365-4.481c0-1.59,1.351-2.833,3.335-2.833C63.633-6.547,64.433-6.423,65.297-6.061z"/>
	<path fill="#5FA9DD" d="M72.971,2.085L72.863,3.28h-5.738l0.107-2.924L67.125-6.44h5.767l0.098,0.14l-0.126,1.195l-2.302-0.065
		l-1.846,0.016l-0.043,2.833l1.755,0.033l1.604-0.049l0.105,0.123L72.018-1.02l-1.712-0.042l-1.649,0.025l-0.017,1.26l0.05,1.787
		l1.846,0.017l2.347-0.082L72.971,2.085z"/>
	<path fill="#5FA9DD" d="M79.945,3.28l-0.227-1.088l-0.424-1.35L77.235,0.8l-1.858,0.042l-0.456,1.276l-0.24,1.162h-1.563
		l3.468-9.72h1.832l3.138,9.72H79.945z M77.511-4.908h-0.106l-1.59,4.481l1.527,0.025l1.564-0.025L77.511-4.908z"/>
	<path fill="#5FA9DD" d="M84.351-2.091l1.531,0.025l1.603-0.042l0.107,0.132l-0.12,1.186l-1.726-0.049l-1.408,0.016l-0.02,1.046
		l0.081,3.056h-1.59l0.1-2.924l-0.1-6.796h5.433L88.35-6.3l-0.12,1.22l-2.273-0.09l-1.557,0.016L84.351-2.091z"/>
	<path fill="#5FA9DD" d="M92.871-6.498c2.784,0,4.333,1.615,4.333,4.572c0,3.418-1.697,5.297-4.759,5.297
		c-0.65,0-2.358-0.042-3.252-0.091h-0.013l0.106-2.924L89.181-6.44h0.013L92.871-6.498z M95.581-1.58
		c0-2.513-0.938-3.649-2.826-3.649c-0.32,0-1.408,0.033-1.984,0.058l-0.074,5.395l0.041,1.804c0.684,0.058,1.664,0.1,1.985,0.1
		C94.535,2.127,95.581,0.949,95.581-1.58z"/>
	<path fill="#5FA9DD" d="M104.533,2.085l-0.106,1.195h-5.741l0.106-2.924L98.686-6.44h5.773l0.083,0.14l-0.115,1.195l-2.307-0.065
		l-1.845,0.016l-0.042,2.833l1.747,0.033l1.614-0.049l0.106,0.123L103.57-1.02l-1.705-0.042l-1.655,0.025l-0.009,1.26l0.041,1.787
		l1.846,0.017l2.348-0.082L104.533,2.085z"/>
	<path fill="#5FA9DD" d="M112.085-5.88l-0.288,1.376l-0.148,0.049c-0.633-0.486-1.391-0.79-2.24-0.79
		c-1.771,0-2.743,1.194-2.743,3.591c0,2.464,0.99,3.74,2.743,3.74c0.841,0,1.715-0.304,2.422-0.832l0.148,0.091l-0.131,1.425
		c-0.832,0.404-1.632,0.635-2.57,0.635c-2.719,0-4.259-1.755-4.259-4.893c0-3.237,1.623-5.058,4.44-5.058
		C110.472-6.547,111.36-6.3,112.085-5.88z"/>
	<path fill="#5FA9DD" d="M113.396,5.01h-1.079l-0.083-0.14L115.339-7h1.046l0.116,0.148L113.396,5.01z"/>
	<path fill="#5FA9DD" d="M123.031,3.28l-0.237-1.088l-0.413-1.35l-2.06-0.042l-1.869,0.042l-0.446,1.276L117.76,3.28h-1.558
		l3.468-9.72h1.822l3.138,9.72H123.031z M120.586-4.908h-0.107l-1.59,4.481l1.539,0.025l1.558-0.025L120.586-4.908z"/>
	<path fill="#5FA9DD" d="M135.479,5.191c-0.224,0.453-0.414,0.725-0.702,0.997l-0.14,0.058c-1.878-0.577-3.682-1.541-5.206-2.842
		l-0.33,0.016c-2.733,0-4.217-1.788-4.217-4.909c0-3.254,1.614-5.074,4.473-5.074c2.678,0,4.169,1.713,4.169,4.818
		c0,2.496-0.947,4.209-2.677,4.86c1.376,0.906,2.891,1.557,4.579,1.895L135.479,5.191z M129.217,2.16
		c1.771,0,2.701-1.153,2.701-3.691c0-2.594-0.889-3.74-2.71-3.74c-1.86,0-2.71,1.12-2.71,3.633
		C126.498,0.982,127.371,2.16,129.217,2.16z"/>
	<path fill="#5FA9DD" d="M138.763-6.498c2.784,0,4.333,1.615,4.333,4.572c0,3.418-1.697,5.297-4.746,5.297
		c-0.65,0-2.371-0.042-3.269-0.091h-0.009l0.106-2.924l-0.106-6.796h0.009L138.763-6.498z M141.473-1.58
		c0-2.513-0.938-3.649-2.826-3.649c-0.32,0-1.408,0.033-1.984,0.058l-0.074,5.395l0.041,1.804c0.684,0.058,1.664,0.1,1.985,0.1
		C140.427,2.127,141.473,0.949,141.473-1.58z"/>
</g>
<g>
	<path d="M61.014,17.171h-1.59l0.107-2.924l-0.107-6.796h1.606l-0.091,6.656L61.014,17.171z"/>
	<path d="M71.079,17.171h-1.681L64.844,9.89h-0.123l-0.017,4.027l0.078,3.254h-1.47l0.106-2.882l-0.074-6.838h1.664l4.571,7.274
		h0.124l-0.048-7.2l1.469-0.107l-0.104,6.837L71.079,17.171z"/>
	<path d="M78.537,7.83l-0.256,1.425l-0.235,0.091c-0.642-0.47-1.366-0.742-1.984-0.742c-1.047,0-1.623,0.692-1.623,1.36
		c0,1.787,4.374,1.623,4.374,4.455c0,1.566-1.362,2.868-3.422,2.868c-0.878,0-1.858-0.224-2.724-0.651l0.195-1.548l0.2-0.084
		c0.787,0.734,1.771,1.056,2.477,1.056c1.107,0,1.729-0.692,1.729-1.409c0-1.887-4.359-1.631-4.359-4.473
		c0-1.59,1.348-2.833,3.333-2.833C76.873,7.344,77.68,7.468,78.537,7.83z"/>
	<path d="M85.962,8.769l-1.759-0.09H83.38l-0.074,5.429l0.074,3.063h-1.57l0.088-2.924l-0.074-5.568h-0.813l-1.791,0.09l-0.107-0.14
		l0.127-1.178h6.723l0.087,0.132L85.962,8.769z"/>
	<path d="M88.88,17.171h-1.59l0.1-2.924l-0.1-6.796h1.603l-0.094,6.656L88.88,17.171z"/>
	<path d="M97.014,8.769l-1.762-0.09h-0.823l-0.074,5.429l0.074,3.063h-1.566l0.083-2.924l-0.074-5.568h-0.811l-1.792,0.09
		l-0.107-0.14l0.128-1.178h6.725l0.083,0.132L97.014,8.769z"/>
	<path d="M105.505,13.53c0.042,2.381-1.357,3.757-3.813,3.757c-2.356,0-3.658-1.302-3.616-3.626l0.033-1.356l-0.033-4.854h1.548
		l-0.064,5.996c-0.01,1.697,0.739,2.506,2.24,2.506c1.482,0,2.273-0.767,2.265-2.356l-0.075-6.146h1.566l-0.042,4.941L105.505,13.53
		z"/>
	<path d="M113.387,8.769l-1.762-0.09h-0.809l-0.074,5.429l0.074,3.063h-1.581l0.098-2.924l-0.089-5.568h-0.808l-1.795,0.09
		l-0.107-0.14l0.131-1.178h6.722l0.083,0.132L113.387,8.769z"/>
	<path d="M116.311,17.171h-1.59l0.106-2.924l-0.106-6.796h1.599l-0.083,6.656L116.311,17.171z"/>
	<path d="M126.466,12.113c0,3.319-1.622,5.197-4.472,5.197c-2.678,0-4.17-1.795-4.17-4.909c0-3.253,1.6-5.073,4.458-5.073
		C124.96,7.328,126.466,9.058,126.466,12.113z M119.424,12.199c0,2.666,0.864,3.852,2.701,3.852c1.821,0,2.719-1.129,2.719-3.649
		c0-2.635-0.865-3.788-2.701-3.788C120.297,8.613,119.424,9.733,119.424,12.199z"/>
	<path d="M135.715,17.171h-1.688l-4.556-7.281h-0.116l-0.023,4.027l0.074,3.254h-1.459l0.106-2.882l-0.074-6.838h1.664l4.564,7.274
		h0.131l-0.057-7.2l1.475-0.107l-0.107,6.837L135.715,17.171z"/>
	<path d="M143.671,17.171l-0.223-1.088l-0.428-1.357l-2.06-0.042l-1.854,0.042l-0.461,1.283l-0.246,1.162h-1.558l3.468-9.72h1.837
		l3.138,9.72H143.671z M141.24,8.976h-0.107l-1.59,4.48l1.524,0.033l1.558-0.033L141.24,8.976z"/>
	<path d="M151.479,17.171h-4.992l0.107-2.924l-0.107-6.796h1.599l-0.083,6.656l0.032,1.762h3.469l0.106,0.14L151.479,17.171z"/>
</g>
<g>
	<path fill="#818285" d="M66.312,29.498l-0.017,0.181c-0.482,0.173-0.98,0.279-1.499,0.321l-0.182-0.116
		c-0.692-1.144-1.394-2.306-2.026-3.491h-1.648v0.419l0.074,3.049h-1.59l0.107-2.924l-0.107-6.796l3.3-0.01
		c1.956,0,3.076,0.99,3.076,2.826c0,1.302-0.717,2.381-1.927,3.022C64.614,27.174,65.434,28.336,66.312,29.498z M62.633,25.165
		c1.001-0.297,1.527-0.98,1.527-2.077c0-1.153-0.634-1.688-1.861-1.729L61.014,21.4l-0.049,3.724L62.633,25.165z"/>
	<path fill="#818285" d="M73.566,28.666l-0.107,1.194h-5.74l0.106-2.924l-0.106-6.796h5.77l0.087,0.14l-0.116,1.194l-2.306-0.065
		l-1.845,0.023l-0.043,2.826l1.754,0.033l1.606-0.042l0.103,0.116l-0.121,1.194l-1.71-0.042l-1.651,0.033l-0.013,1.26l0.042,1.78
		l1.85,0.009l2.347-0.074L73.566,28.666z"/>
	<path fill="#818285" d="M78.149,20.131c1.951,0,3.056,1.022,3.056,2.9c0,2.19-1.421,3.543-3.769,3.543h-1.078v0.237l0.078,3.049
		h-1.59l0.106-2.924l-0.106-6.796L78.149,20.131z M77.887,25.37c1.107-0.214,1.697-0.963,1.697-2.199
		c0-1.227-0.632-1.771-1.858-1.813L76.437,21.4l-0.059,3.938L77.887,25.37z"/>
	<path fill="#818285" d="M90.454,24.803c0,3.319-1.622,5.197-4.465,5.197c-2.684,0-4.18-1.78-4.18-4.909
		c0-3.254,1.603-5.066,4.461-5.066C88.959,20.024,90.454,21.754,90.454,24.803z M83.412,24.9c0,2.669,0.865,3.84,2.697,3.84
		c1.837,0,2.723-1.13,2.723-3.649c0-2.636-0.864-3.789-2.689-3.789C84.297,21.302,83.412,22.438,83.412,24.9z"/>
	<path fill="#818285" d="M97.088,20.526l-0.256,1.418l-0.246,0.098c-0.642-0.47-1.367-0.749-1.985-0.749
		c-1.046,0-1.622,0.692-1.622,1.367c0,1.78,4.374,1.622,4.374,4.448c0,1.581-1.353,2.883-3.411,2.883
		c-0.889,0-1.869-0.238-2.734-0.651l0.203-1.548l0.192-0.098c0.79,0.748,1.771,1.069,2.487,1.069c1.097,0,1.729-0.707,1.729-1.408
		c0-1.902-4.365-1.646-4.365-4.481c0-1.59,1.343-2.841,3.328-2.841C95.424,20.033,96.224,20.164,97.088,20.526z"/>
	<path fill="#818285" d="M100.498,29.86h-1.59l0.106-2.924l-0.106-6.796h1.613l-0.098,6.671L100.498,29.86z"/>
	<path fill="#818285" d="M108.628,21.466l-1.747-0.099h-0.823l-0.074,5.444l0.074,3.049h-1.566l0.083-2.924l-0.074-5.569h-0.823
		l-1.779,0.099l-0.107-0.14l0.116-1.186h6.722l0.098,0.14L108.628,21.466z"/>
	<path fill="#818285" d="M117.282,24.803c0,3.319-1.622,5.197-4.472,5.197c-2.678,0-4.185-1.78-4.185-4.909
		c0-3.254,1.614-5.066,4.473-5.066C115.776,20.024,117.282,21.754,117.282,24.803z M110.24,24.9c0,2.669,0.864,3.84,2.687,3.84
		c1.836,0,2.733-1.13,2.733-3.649c0-2.636-0.865-3.789-2.701-3.789C111.113,21.302,110.24,22.438,110.24,24.9z"/>
	<path fill="#818285" d="M125.643,29.498l-0.009,0.181c-0.493,0.173-0.98,0.279-1.507,0.321l-0.181-0.116
		c-0.692-1.144-1.385-2.306-2.026-3.491h-1.655v0.419l0.089,3.049h-1.59l0.092-2.924l-0.092-6.796l3.295-0.01
		c1.953,0,3.073,0.99,3.073,2.826c0,1.302-0.716,2.381-1.92,3.022C123.946,27.174,124.77,28.336,125.643,29.498z M121.961,25.165
		c1.005-0.297,1.539-0.98,1.539-2.077c0-1.153-0.642-1.688-1.869-1.729l-1.277,0.042l-0.057,3.724L121.961,25.165z"/>
	<path fill="#818285" d="M130.072,29.86h-1.581l0.083-2.784l-0.009-0.618l-3.082-6.317h1.664l0.19,0.608l1.92,4.077h0.14
		l2.125-4.044l0.231-0.642h1.646l-3.394,6.326l-0.023,0.609L130.072,29.86z"/>
</g>
</svg>
